<?xml version="1.0" standalone="no"?>
<!DOCTYPE svg PUBLIC "-//W3C//DTD SVG 1.1//EN" "http://www.w3.org/Graphics/SVG/1.1/DTD/svg11.dtd" >
<svg xmlns="http://www.w3.org/2000/svg" xmlns:xlink="http://www.w3.org/1999/xlink" version="1.1">
<metadata>
Created by FontForge 20201107 at Thu Jan 28 13:14:41 2021
 By 
Copyright 2020 The Archivo Project Authors (https://github.com/Omnibus-Type/Archivo)
</metadata>
<defs>
<font id="Archivo-SemiBoldItalic" horiz-adv-x="0" >
  <font-face 
    font-family="Archivo SemiBold"
    font-weight="600"
    font-style="italic"
    font-stretch="normal"
    units-per-em="1000"
    panose-1="0 0 0 0 0 0 0 0 0 0"
    ascent="800"
    descent="-200"
    x-height="526"
    cap-height="686"
    bbox="-294 -406 1380 1092"
    underline-thickness="44"
    underline-position="-170"
    slope="-10"
    unicode-range="U+000D-FEFF"
  />
<missing-glyph horiz-adv-x="652" 
d="M92 0v700h500v-700h-500zM172 50h340l-170 255zM142 95l170 255l-170 255v-510zM542 95v510l-170 -255zM342 395l170 255h-340z" />
    <glyph glyph-name="fi" unicode="fi" horiz-adv-x="559" 
d="M3 -182q-15 0 -30 2t-28.5 5.5t-22.5 7.5l15 85h50q23 0 36 11.5t17 33.5l81 463h-76l18 100h76l12 67q6 35 21.5 66.5t47.5 51.5t88 20q15 0 30 -2t28.5 -5.5t22.5 -7.5l-15 -85h-50q-22 0 -35.5 -11.5t-17.5 -33.5l-10 -60h95l-18 -100h-95l-83 -470q-6 -34 -22 -66
t-48 -52t-87 -20zM431 607l21 116h122l-20 -116h-123zM326 0l93 526h122l-93 -526h-122z" />
    <glyph glyph-name="fl" unicode="fl" horiz-adv-x="559" 
d="M3 -182q-15 0 -30 2t-28.5 5.5t-22.5 7.5l15 85h50q23 0 36 11.5t17 33.5l81 463h-76l18 100h76l12 67q6 35 21.5 66.5t47.5 51.5t88 20q15 0 30 -2t28.5 -5.5t22.5 -7.5l-15 -85h-50q-22 0 -35.5 -11.5t-17.5 -33.5l-10 -60h95l-18 -100h-95l-83 -470q-6 -34 -22 -66
t-48 -52t-87 -20zM326 0l127 723h122l-127 -723h-122z" />
    <glyph glyph-name="f_f" unicode="ff" horiz-adv-x="589" 
d="M3 -182q-15 0 -30 2t-28.5 5.5t-22.5 7.5l15 85h50q23 0 36 11.5t17 33.5l81 463h-76l18 100h76l12 67q6 35 21.5 66.5t47.5 51.5t88 20q15 0 30 -2t28.5 -5.5t22.5 -7.5l-15 -85h-50q-22 0 -35.5 -11.5t-17.5 -33.5l-10 -60h160l12 67q6 35 21.5 66.5t47.5 51.5t88 20
q15 0 30 -2t28.5 -5.5t22.5 -7.5l-15 -85h-50q-22 0 -35.5 -11.5t-17.5 -33.5l-10 -60h95l-18 -100h-95l-75 -426h-122l75 426h-160l-83 -470q-6 -34 -22 -66t-48 -52t-87 -20z" />
    <glyph glyph-name="f_f_i" unicode="ffi" horiz-adv-x="841" 
d="M3 -182q-15 0 -30 2t-28.5 5.5t-22.5 7.5l15 85h50q23 0 36 11.5t17 33.5l81 463h-76l18 100h76l12 67q6 35 21.5 66.5t47.5 51.5t88 20q15 0 30 -2t28.5 -5.5t22.5 -7.5l-15 -85h-50q-22 0 -35.5 -11.5t-17.5 -33.5l-10 -60h160l12 67q6 35 21.5 66.5t47.5 51.5t88 20
q15 0 30 -2t28.5 -5.5t22.5 -7.5l-15 -85h-50q-22 0 -35.5 -11.5t-17.5 -33.5l-10 -60h95l-18 -100h-95l-75 -426h-122l75 426h-160l-83 -470q-6 -34 -22 -66t-48 -52t-87 -20zM713 607l21 116h122l-20 -116h-123zM608 0l93 526h122l-93 -526h-122z" />
    <glyph glyph-name="f_f_l" unicode="ffl" horiz-adv-x="841" 
d="M3 -182q-15 0 -30 2t-28.5 5.5t-22.5 7.5l15 85h50q23 0 36 11.5t17 33.5l81 463h-76l18 100h76l12 67q6 35 21.5 66.5t47.5 51.5t88 20q15 0 30 -2t28.5 -5.5t22.5 -7.5l-15 -85h-50q-22 0 -35.5 -11.5t-17.5 -33.5l-10 -60h160l12 67q6 35 21.5 66.5t47.5 51.5t88 20
q15 0 30 -2t28.5 -5.5t22.5 -7.5l-15 -85h-50q-22 0 -35.5 -11.5t-17.5 -33.5l-10 -60h95l-18 -100h-95l-75 -426h-122l75 426h-160l-83 -470q-6 -34 -22 -66t-48 -52t-87 -20zM608 0l127 723h122l-127 -723h-122z" />
    <glyph glyph-name=".notdef" horiz-adv-x="652" 
d="M92 0v700h500v-700h-500zM172 50h340l-170 255zM142 95l170 255l-170 255v-510zM542 95v510l-170 -255zM342 395l170 255h-340z" />
    <glyph glyph-name=".null" 
 />
    <glyph glyph-name="nonmarkingreturn" horiz-adv-x="333" 
 />
    <glyph glyph-name="CR" unicode="&#xd;" horiz-adv-x="600" 
 />
    <glyph glyph-name="space" unicode=" " horiz-adv-x="200" 
 />
    <glyph glyph-name="exclam" unicode="!" horiz-adv-x="292" 
d="M95 189l55 497h142l-121 -497h-76zM37 0l23 128h127l-23 -128h-127z" />
    <glyph glyph-name="quotedbl" unicode="&#x22;" horiz-adv-x="444" 
d="M108 407v132l26 147h129l-26 -147l-46 -132h-83zM306 407v132l26 147h129l-26 -147l-46 -132h-83z" />
    <glyph glyph-name="numbersign" unicode="#" horiz-adv-x="583" 
d="M68 -12l37 180h-68v98h89l27 133h-70v98h91l43 201h100l-42 -201h120l42 201h101l-42 -201h76v-98h-96l-28 -133h78v-98h-98l-38 -180h-101l38 180h-121l-37 -180h-101zM226 266h121l28 133h-121z" />
    <glyph glyph-name="dollar" unicode="$" horiz-adv-x="541" 
d="M180 -49l137 772h51l-137 -772h-51zM252 67q-55 0 -97 10t-70.5 28t-42.5 43.5t-14 55.5q0 12 2.5 23t4.5 17h119q-1 -4 -2 -10t-1 -8q0 -23 14 -37t37.5 -20t50.5 -6q21 0 41.5 3.5t37.5 10.5t27 19t10 30t-11 29.5t-29.5 19.5t-42 14.5t-49.5 13.5q-28 8 -56 18
t-50.5 25t-36 38t-13.5 56q0 43 18 76t50 55.5t74.5 34t91.5 11.5q47 0 85.5 -8.5t66 -24.5t42.5 -38.5t15 -50.5q0 -16 -3 -29t-4 -15h-119q1 5 1.5 9t0.5 7q0 17 -10 29t-29 18.5t-48 6.5q-27 0 -46.5 -4.5t-32.5 -12.5t-19.5 -18.5t-6.5 -21.5q0 -21 19 -32.5t49 -19
t64 -18.5q29 -9 56.5 -18.5t50.5 -24.5t36.5 -38.5t13.5 -58.5q0 -52 -20 -88t-54.5 -57.5t-78.5 -31.5t-92 -10z" />
    <glyph glyph-name="percent" unicode="%" horiz-adv-x="966" 
d="M140 0l623 686h99l-625 -686h-97zM280 337q-72 0 -111.5 28t-39.5 98q0 14 1.5 29.5t4.5 31.5q10 62 33.5 100t60.5 56t86 18q71 0 110.5 -28.5t39.5 -99.5q0 -13 -1 -26.5t-3 -29.5q-10 -62 -33.5 -101t-60 -57.5t-87.5 -18.5zM680 -12q-71 0 -111 28t-40 98
q0 14 2 30.5t5 33.5q11 61 34.5 98.5t60 55t84.5 17.5q72 0 111.5 -28.5t39.5 -99.5q0 -14 -1.5 -29.5t-4.5 -32.5q-11 -61 -34.5 -98.5t-59.5 -55t-86 -17.5zM279 411q41 0 58 28t25 69q3 13 4.5 22.5t2 17t0.5 13.5q0 31 -12.5 47t-42.5 16q-39 0 -56.5 -27.5t-25.5 -68.5
q-2 -13 -4 -22.5t-2.5 -17t-0.5 -14.5q0 -31 12.5 -47t41.5 -16zM679 62q41 0 58.5 28t25.5 69q3 13 4 22.5t1.5 17t0.5 13.5q0 31 -12.5 47t-41.5 16q-40 0 -57.5 -28t-25.5 -69q-2 -13 -3.5 -22.5t-2 -16.5t-0.5 -14q0 -31 12.5 -47t40.5 -16z" />
    <glyph glyph-name="ampersand" unicode="&#x26;" horiz-adv-x="729" 
d="M297 -12q-79 0 -137 19.5t-90 57t-32 91.5q0 56 23 96t61.5 65.5t83.5 34.5l1 4q-41 20 -68 49t-27 79q0 52 22 91.5t61.5 67t91.5 41.5t112 14q75 0 130 -19.5t85.5 -54.5t30.5 -84q0 -7 -1 -18.5t-6 -36.5h-123q3 17 3.5 24t0.5 11q0 26 -14 43.5t-40.5 26t-65.5 8.5
q-36 0 -65.5 -8t-51.5 -23t-34 -37.5t-12 -51.5q0 -26 13.5 -44t37 -27t52.5 -9h66l-17 -100h-64q-27 0 -55 -5.5t-51 -18.5t-37 -37t-14 -62q0 -30 15 -49t43 -28.5t67 -9.5q52 0 88 12.5t57.5 37.5t27.5 60l35 200h214l-17 -101h-92l-17 -96q-12 -66 -48.5 -113.5
t-97.5 -73.5t-145 -26z" />
    <glyph glyph-name="quotesingle" unicode="'" horiz-adv-x="246" 
d="M108 407v132l26 147h129l-26 -147l-46 -132h-83z" />
    <glyph glyph-name="parenleft" unicode="(" horiz-adv-x="357" 
d="M156 -157q-51 72 -76.5 158t-25.5 179q0 102 30.5 201t87.5 189t138 165h82q-48 -60 -89 -128t-71 -141.5t-47 -149.5t-17 -152q0 -58 8 -115t23.5 -109t35.5 -97h-79z" />
    <glyph glyph-name="parenright" unicode=")" horiz-adv-x="357" 
d="M211 735q51 -72 76.5 -158t25.5 -179q0 -102 -30.5 -201t-87.5 -189t-138 -165h-82q48 60 89 128t71 141.5t47 149.5t17 152q0 59 -8 115.5t-23 109t-36 96.5h79z" />
    <glyph glyph-name="asterisk" unicode="*" horiz-adv-x="407" 
d="M178 329l34 133l-117 -76l-27 66l125 56l-105 57l50 65l90 -76l13 133h75l-35 -133l118 76l26 -65l-126 -57l106 -56l-49 -66l-91 76l-12 -133h-75z" />
    <glyph glyph-name="plus" unicode="+" horiz-adv-x="636" 
d="M220 0l37 206h-185l18 98h185l36 207h101l-36 -207h186l-18 -98h-186l-37 -206h-101z" />
    <glyph glyph-name="comma" unicode="," horiz-adv-x="300" 
d="M-1 -163l10 51q25 4 43.5 20t30 40t15.5 52h-62l23 128h126l-20 -117q-8 -44 -23.5 -75.5t-37.5 -52.5t-48.5 -32t-56.5 -14z" />
    <glyph glyph-name="hyphen" unicode="-" horiz-adv-x="333" 
d="M32 214l19 112h252l-19 -112h-252z" />
    <glyph glyph-name="period" unicode="." horiz-adv-x="300" 
d="M40 0l23 128h127l-23 -128h-127z" />
    <glyph glyph-name="slash" unicode="/" horiz-adv-x="298" 
d="M-55 -49l345 784h91l-345 -784h-91z" />
    <glyph glyph-name="zero" unicode="0" horiz-adv-x="575" 
d="M255 -12q-63 0 -109.5 18.5t-71.5 64t-25 124.5q0 21 1.5 44t5 49t8.5 55q17 105 43.5 173.5t62 108.5t80 56.5t96.5 16.5q65 0 111.5 -19t71.5 -64.5t25 -125.5q0 -20 -2 -43.5t-5 -49t-8 -53.5q-17 -105 -44 -173.5t-63 -108.5t-80 -56.5t-97 -16.5zM254 88
q35 0 60 14.5t42 43t29.5 72t22.5 100.5q7 37 11.5 64.5t7 47.5t3.5 35t1 27q0 53 -18.5 79t-63.5 26q-36 0 -61 -14.5t-42 -43t-29 -71.5t-23 -101q-7 -37 -11.5 -64.5t-7.5 -47.5t-4 -35t-1 -27q0 -52 19 -78.5t65 -26.5z" />
    <glyph glyph-name="one" unicode="1" horiz-adv-x="576" 
d="M25 0l18 100h165l76 432h-166l13 75q23 2 53 9t63 18t66 24t61 28h60l-103 -586h152l-18 -100h-440z" />
    <glyph glyph-name="two" unicode="2" horiz-adv-x="576" 
d="M-2 0l6 33q9 52 37 94t67.5 76.5t83.5 65t87 59t78.5 58.5t56.5 64t21 75q0 26 -20 48.5t-68 22.5q-39 0 -66 -12.5t-42.5 -35.5t-22.5 -57l-8 -41h-122q5 69 29 116.5t61.5 76.5t83 42t93.5 13q82 0 127 -25t63 -64t18 -81q0 -52 -18 -94.5t-48.5 -77.5t-68 -64.5
t-76.5 -54.5t-74.5 -48t-62.5 -45q-10 -8 -18.5 -16.5t-14.5 -17.5h313l-20 -110h-475z" />
    <glyph glyph-name="three" unicode="3" horiz-adv-x="576" 
d="M259 -12q-76 0 -127.5 20t-77.5 57.5t-26 87.5q0 10 1 22.5t5 33.5h124q-3 -17 -4 -26.5t-1 -15.5q0 -39 26.5 -59t75.5 -20q38 0 69 14t50 43t19 74q0 32 -15 49t-40 23.5t-54 6.5h-57l17 101h60q24 0 47 7.5t41.5 23t29.5 39.5t11 57q0 25 -11.5 40.5t-31 23t-44.5 7.5
q-34 0 -60 -11.5t-42 -33t-21 -51.5l-2 -16h-124l4 21q12 59 47 102t87.5 66.5t114.5 23.5q65 0 112.5 -18.5t73 -54.5t25.5 -88q0 -50 -19 -85t-51 -58t-70 -38l-1 -4q43 -15 70.5 -50t27.5 -91q0 -69 -35 -119t-94 -77t-130 -27z" />
    <glyph glyph-name="four" unicode="4" horiz-adv-x="577" 
d="M291 0l28 153h-301l16 100q51 66 95.5 136t84 147t75.5 162h136q-22 -53 -52 -109t-62.5 -109t-64 -98.5t-57.5 -79t-41 -49.5h188l29 167q13 19 26 41t25.5 45.5t23.5 46.5t20 43h58l-60 -343h85l-17 -100h-85l-28 -153h-122z" />
    <glyph glyph-name="five" unicode="5" horiz-adv-x="575" 
d="M257 -12q-69 0 -119.5 21t-77.5 60.5t-27 95.5q0 11 1 23t3 25h126q-1 -9 -2 -16.5t-1 -14.5q0 -29 11 -50.5t32 -32.5t50 -11q26 0 51.5 10t46 30.5t33 52t12.5 74.5q0 47 -24 70t-65 23q-25 0 -46.5 -8t-39.5 -20.5t-32 -28.5l-113 15l94 380h395l-19 -111h-288
l-41 -168q14 9 32.5 18t43.5 15t55 6q52 0 91.5 -19t62 -58.5t22.5 -99.5q0 -88 -36 -151t-96.5 -96.5t-134.5 -33.5z" />
    <glyph glyph-name="six" unicode="6" horiz-adv-x="576" 
d="M268 -12q-69 0 -118.5 20t-76.5 67.5t-27 127.5q0 26 3 57t9 66q24 141 65 222t99 115.5t132 34.5q70 0 113.5 -20.5t64 -57t20.5 -83.5q0 -13 -1.5 -26t-3.5 -27h-124q2 11 3 20t1 17q0 38 -18.5 57.5t-58.5 19.5q-49 0 -79 -26.5t-47 -75.5t-30 -116q11 10 31.5 24
t50.5 25t67 11q64 0 104.5 -22t60 -62t19.5 -94q0 -62 -20.5 -112.5t-56 -86.5t-82.5 -55.5t-100 -19.5zM263 88q38 0 66 17.5t45 45.5q13 20 19 45t6 51q0 28 -9.5 49t-29 33t-51.5 12q-35 0 -62.5 -14t-45.5 -39q-15 -20 -23 -47t-8 -57q0 -28 10 -50t30.5 -34t52.5 -12z
" />
    <glyph glyph-name="seven" unicode="7" horiz-adv-x="576" 
d="M95 0q15 84 49 164.5t80.5 154.5t99.5 139t107 117h-333l20 111h491l-14 -80q-42 -42 -85.5 -90t-85 -102t-77 -112.5t-61 -121.5t-37.5 -130q-2 -13 -4 -23t-4 -27h-146z" />
    <glyph glyph-name="eight" unicode="8" horiz-adv-x="576" 
d="M255 -12q-82 0 -132 21.5t-73 58t-23 82.5t15.5 85t47.5 69t79 48q-34 20 -51.5 52.5t-17.5 70.5q0 45 17.5 85t50 71t78.5 49t103 18q71 0 117.5 -21.5t69 -58.5t22.5 -84q0 -38 -14 -72.5t-41.5 -62.5t-68.5 -47q45 -21 65 -55.5t20 -79.5q0 -61 -29 -113t-87.5 -84
t-147.5 -32zM255 87q18 0 34.5 3.5t32 10.5t27.5 17q20 17 32.5 42t12.5 58q0 40 -25.5 61.5t-75.5 21.5q-18 0 -34.5 -3t-30.5 -9t-26 -15q-22 -17 -34.5 -43.5t-12.5 -61.5q0 -39 25.5 -60.5t74.5 -21.5zM310 400q19 0 36.5 4.5t32 13t25.5 21.5q14 15 21 36.5t7 47.5
q0 37 -22.5 56.5t-63.5 19.5q-17 0 -32.5 -3.5t-28.5 -10.5t-24 -17q-17 -16 -27 -39.5t-10 -54.5q0 -36 21.5 -55t64.5 -19z" />
    <glyph glyph-name="nine" unicode="9" horiz-adv-x="575" 
d="M246 -12q-69 0 -113 20.5t-64.5 57t-20.5 83.5q0 13 1.5 26.5t3.5 26.5h124q-1 -10 -2.5 -19.5t-1.5 -17.5q0 -37 18.5 -57t58.5 -20q50 0 79.5 26.5t47 75.5t29.5 116q-11 -10 -31.5 -24t-50 -25t-67.5 -11q-64 0 -104.5 22t-60 62.5t-19.5 93.5q0 62 20.5 112.5
t56 86.5t82.5 55.5t100 19.5q69 0 119 -20t76.5 -67t26.5 -128q0 -26 -3 -57t-9 -66q-23 -141 -64.5 -222t-99.5 -115.5t-132 -34.5zM291 345q35 0 62.5 14t45.5 39q15 20 23 47t8 57q0 29 -10 50.5t-30.5 33.5t-52.5 12q-37 0 -65.5 -17t-45.5 -46q-13 -20 -19 -45t-6 -51
q0 -28 9.5 -49t29.5 -33t51 -12z" />
    <glyph glyph-name="colon" unicode=":" horiz-adv-x="336" 
d="M126 399l23 128h127l-23 -128h-127zM57 0l23 128h127l-23 -128h-127z" />
    <glyph glyph-name="semicolon" unicode=";" horiz-adv-x="336" 
d="M18 -163l10 51q25 4 43.5 20t30 40t15.5 52h-62l23 128h126l-20 -117q-8 -44 -23.5 -75.5t-37.5 -52.5t-48.5 -32t-56.5 -14zM125 399l23 128h127l-23 -128h-127z" />
    <glyph glyph-name="less" unicode="&#x3c;" horiz-adv-x="636" 
d="M499 3l-440 196l22 121l509 197l-20 -114l-404 -147l352 -148z" />
    <glyph glyph-name="equal" unicode="=" horiz-adv-x="636" 
d="M90 311l18 98h472l-17 -98h-473zM53 99l17 97h473l-18 -97h-472z" />
    <glyph glyph-name="greater" unicode="&#x3e;" horiz-adv-x="636" 
d="M46 3l19 113l405 147l-352 147l19 107l439 -197l-22 -121z" />
    <glyph glyph-name="question" unicode="?" horiz-adv-x="613" 
d="M233 192l8 47q7 43 25.5 73.5t42.5 52.5t49 39.5t47 34.5t35.5 37t13.5 47q0 15 -6.5 30.5t-26 26t-57.5 10.5q-34 0 -58 -10t-39.5 -26.5t-24 -35t-11.5 -36.5q-1 -6 -1.5 -12t-0.5 -11h-124q0 43 13 79.5t36.5 66t56.5 50.5t74.5 32t88.5 11q51 0 91.5 -10.5t68 -30.5
t42 -50t14.5 -69q0 -47 -16 -80.5t-41.5 -58.5t-54.5 -45t-56.5 -39t-46 -40.5t-23.5 -50.5l-5 -32h-114zM197 0l22 128h127l-23 -128h-126z" />
    <glyph glyph-name="at" unicode="@" horiz-adv-x="998" 
d="M454 -153q-114 0 -191 26.5t-123.5 75t-67 114t-20.5 143.5q0 85 15.5 154.5t46 124t74.5 95t101.5 66.5t127 39t150.5 13q96 0 170 -22t124 -63.5t75.5 -100.5t25.5 -133q0 -48 -10 -98t-31.5 -96.5t-55.5 -83t-81.5 -58t-110.5 -21.5q-31 0 -53 8t-34 23.5t-12 39.5
l-5 5q-26 -37 -64.5 -57t-80.5 -20q-46 0 -81.5 20.5t-55 61.5t-19.5 102q0 20 1.5 40.5t5.5 40.5q8 46 25.5 88.5t44 75.5t62 52t80.5 19q34 0 59 -7.5t43.5 -22.5t31.5 -37h6l27 56h94l-21 -118q-9 -49 -16 -88.5t-13 -69.5t-10 -51t-6 -32.5t-2 -13.5q0 -13 9 -19t28 -6
q31 0 56.5 14.5t45.5 40.5t34 60t21 73t7 79q0 76 -36 131.5t-106 85.5t-172 30q-81 0 -148.5 -16t-120.5 -48.5t-90 -82t-56 -116t-19 -150.5q0 -64 15.5 -117.5t52 -93t98.5 -61.5t155 -22q29 0 56.5 1.5t51 4.5t43 6t31.5 6l-11 -76q-16 -2 -41 -5.5t-57.5 -6t-72.5 -2.5
zM463 118q23 0 41.5 9t33 24t25.5 34q10 18 17 37t11.5 38.5t6.5 37t2 31.5q0 33 -9.5 54.5t-27.5 32t-46 10.5q-23 0 -41 -8t-32 -22t-25 -33q-9 -16 -15.5 -35t-10.5 -39t-6 -40t-2 -38q0 -46 18.5 -69.5t59.5 -23.5z" />
    <glyph glyph-name="A" unicode="A" horiz-adv-x="709" 
d="M-40 0l386 686h164l147 -686h-133l-30 146h-317l-80 -146h-137zM239 256h231l-36 182q-3 18 -6.5 36.5l-7 37t-5.5 34t-4 27.5h-5q-10 -20 -23 -46.5t-25.5 -51t-21.5 -40.5z" />
    <glyph glyph-name="B" unicode="B" horiz-adv-x="706" 
d="M30 0l121 686h323q67 0 115 -17.5t74.5 -52t26.5 -87.5q0 -42 -19.5 -77.5t-51.5 -59t-72 -32.5v-4q46 -14 75.5 -51.5t29.5 -96.5q0 -72 -35 -118t-91.5 -68t-121.5 -22h-374zM180 111h221q32 0 59 10.5t43.5 33.5t16.5 60q0 38 -23.5 59.5t-71.5 21.5h-213zM232 406
h210q28 0 49 8t34.5 21.5t20.5 30.5t7 36q0 38 -22.5 55.5t-57.5 17.5h-212z" />
    <glyph glyph-name="C" unicode="C" horiz-adv-x="721" 
d="M341 -12q-139 0 -214.5 63.5t-75.5 202.5q0 28 2.5 55t6.5 53q19 104 69 179.5t129.5 116t184.5 40.5q80 0 142 -23t97.5 -69.5t35.5 -117.5q0 -13 -1.5 -27t-3.5 -28h-134q2 9 2.5 17.5t0.5 15.5q0 41 -17.5 68t-49 40t-74.5 13q-51 0 -91.5 -15.5t-71 -44.5t-50.5 -70
t-30 -92q-4 -19 -6.5 -34t-4 -27.5t-2 -23t-0.5 -21.5q0 -54 17 -89.5t52.5 -53t88.5 -17.5q55 0 98.5 17.5t72.5 51.5t38 84h129q-15 -90 -64 -148.5t-120.5 -87t-155.5 -28.5z" />
    <glyph glyph-name="D" unicode="D" horiz-adv-x="728" 
d="M30 0l121 686h259q140 0 217.5 -65.5t77.5 -205.5q0 -25 -2 -49t-6 -47q-17 -99 -67.5 -170.5t-128.5 -110t-179 -38.5h-292zM180 111h136q49 0 90 14.5t72.5 41.5t52 67t29.5 91q4 20 6 35.5t3 28t1 23.5q0 55 -19 91t-56 54t-91 18h-143z" />
    <glyph glyph-name="E" unicode="E" horiz-adv-x="672" 
d="M30 0l121 686h536l-20 -111h-405l-30 -169h362l-19 -111h-363l-32 -184h412l-20 -111h-542z" />
    <glyph glyph-name="F" unicode="F" horiz-adv-x="609" 
d="M30 0l121 686h494l-20 -111h-363l-33 -184h327l-19 -111h-327l-50 -280h-130z" />
    <glyph glyph-name="G" unicode="G" horiz-adv-x="794" 
d="M339 -12q-137 0 -212.5 65.5t-75.5 202.5q0 27 2.5 53.5t6.5 51.5q19 106 72.5 181.5t137 115.5t190.5 40q62 0 115.5 -12.5t94 -37.5t63 -63t22.5 -89q0 -10 -1 -21t-3 -23h-134q1 6 1 11.5v10.5q0 28 -11.5 49t-32.5 35.5t-49 22t-61 7.5q-55 0 -100 -15t-78.5 -43.5
t-55.5 -69.5t-32 -94q-3 -19 -5.5 -34t-4 -27.5t-2.5 -23t-1 -21.5q0 -55 18.5 -91t55 -53.5t90.5 -17.5q62 0 113 19.5t84 54.5t39 81l1 7h-218l20 108h348l-65 -368h-92v78q-33 -29 -69.5 -49.5t-78 -30.5t-92.5 -10z" />
    <glyph glyph-name="H" unicode="H" horiz-adv-x="732" 
d="M30 0l121 686h130l-49 -279h321l49 279h130l-121 -686h-130l52 295h-321l-52 -295h-130z" />
    <glyph glyph-name="I" unicode="I" horiz-adv-x="282" 
d="M30 0l121 686h130l-121 -686h-130z" />
    <glyph glyph-name="J" unicode="J" horiz-adv-x="585" 
d="M242 -12q-107 0 -164.5 41.5t-57.5 123.5q0 10 1.5 26.5t8.5 48.5h129q-6 -28 -7 -41.5t-1 -18.5q0 -34 23.5 -52t71.5 -18q53 0 87 36t45 101l79 451h131l-79 -451q-15 -84 -50.5 -139t-90 -81.5t-126.5 -26.5z" />
    <glyph glyph-name="K" unicode="K" horiz-adv-x="695" 
d="M30 0l121 686h130l-55 -310l346 310h171l-314 -279l199 -407h-147l-151 318l-133 -105l-37 -213h-130z" />
    <glyph glyph-name="L" unicode="L" horiz-adv-x="570" 
d="M31 0l120 686h130l-100 -573h344l-20 -113h-474z" />
    <glyph glyph-name="M" unicode="M" horiz-adv-x="844" 
d="M30 0l121 686h197l42 -382q3 -23 4.5 -50t2.5 -52t1 -43h8q7 20 16.5 46.5t20 53.5t19.5 47l175 380h206l-121 -686h-130l78 441q3 18 8.5 42.5t10.5 46t6 27.5h-8q-4 -10 -10 -25.5t-11.5 -30t-9.5 -22.5l-223 -479h-123l-49 470q-2 20 -3 46t-2 41h-8
q-2 -19 -4.5 -42.5t-5.5 -43.5t-5 -30l-78 -441h-125z" />
    <glyph glyph-name="N" unicode="N" horiz-adv-x="732" 
d="M30 0l121 686h124l209 -399q5 -9 11.5 -22.5t13.5 -27.5t12 -25l6 1q2 16 5 37t5 33l70 403h125l-121 -686h-123l-199 383q-9 17 -23 45.5t-24 48.5h-6q-2 -17 -6 -42.5t-7 -42.5l-68 -392h-125z" />
    <glyph glyph-name="O" unicode="O" horiz-adv-x="782" 
d="M359 -12q-97 0 -166 30t-105.5 89.5t-36.5 148.5q0 24 1.5 47t5.5 45q18 109 69 187.5t133 120.5t192 42q97 0 166 -30t106 -89.5t37 -148.5q0 -22 -1.5 -44t-5.5 -44q-17 -110 -68.5 -189.5t-134 -122t-192.5 -42.5zM357 99q55 0 98.5 15.5t76 45.5t53.5 74t31 101
q3 16 5 29t3 23t1.5 19t0.5 17q0 52 -19.5 89t-58.5 56.5t-96 19.5q-54 0 -97.5 -15.5t-76 -45.5t-53.5 -74t-31 -101q-3 -16 -4.5 -29t-2.5 -23.5t-1.5 -19t-0.5 -16.5q0 -52 19.5 -89t58 -56.5t94.5 -19.5z" />
    <glyph glyph-name="P" unicode="P" horiz-adv-x="670" 
d="M30 0l121 686h300q84 0 136 -23t76 -65t24 -100q0 -60 -19 -107t-55 -80t-86.5 -50t-112.5 -17h-210l-44 -244h-130zM223 355h190q41 0 72.5 15t50 43.5t18.5 70.5q0 44 -25 67.5t-78 23.5h-189z" />
    <glyph glyph-name="Q" unicode="Q" horiz-adv-x="782" 
d="M484 -130l-101 119q-6 -1 -12 -1h-12q-97 0 -166 30t-105.5 89.5t-36.5 148.5q0 24 1.5 47t5.5 45q18 109 69 187.5t133 120.5t192 42q97 0 166 -30t106 -89.5t37 -148.5q0 -22 -1.5 -44t-5.5 -44q-19 -121 -80 -205.5t-158 -121.5l127 -145h-159zM357 99q55 0 98.5 15.5
t76 45.5t53.5 74t31 101q3 16 5 29t3 23t1.5 19t0.5 17q0 52 -19.5 89t-58.5 56.5t-96 19.5q-54 0 -97.5 -15.5t-76 -45.5t-53.5 -74t-31 -101q-3 -16 -4.5 -29t-2.5 -23.5t-1.5 -19t-0.5 -16.5q0 -52 19.5 -89t58 -56.5t94.5 -19.5z" />
    <glyph glyph-name="R" unicode="R" horiz-adv-x="717" 
d="M30 0l121 686h342q72 0 119 -21t70.5 -59t23.5 -91q0 -59 -18 -106t-52.5 -80.5t-86.5 -52.5l93 -276h-138l-81 254h-218l-45 -254h-130zM225 364h218q37 0 66 16.5t46 46.5t17 71q0 37 -22.5 57t-66.5 20h-221z" />
    <glyph glyph-name="S" unicode="S" horiz-adv-x="667" 
d="M312 -12q-60 0 -112 10.5t-91 32t-61 54.5t-22 78q0 14 2.5 30t5.5 27h131q-1 -6 -3.5 -16.5t-2.5 -18.5q0 -27 17 -46.5t49 -29.5t76 -10q45 0 77.5 7t53.5 19.5t31 30.5t10 39q0 23 -13.5 39t-36.5 28t-52 21t-61 18q-37 11 -74.5 24.5t-69 34.5t-50 51.5t-18.5 74.5
q0 54 22.5 93.5t62 66t91 39.5t108.5 13q56 0 103.5 -9.5t83 -29t55.5 -50.5t20 -73q0 -9 -1 -20.5t-4 -29.5h-129q3 11 3.5 16.5t0.5 8.5q0 36 -33.5 56.5t-91.5 20.5q-47 0 -82.5 -10t-55 -28.5t-19.5 -45.5q0 -18 11 -31.5t30.5 -23t45 -18t53.5 -16.5q40 -12 81.5 -26
t77 -35.5t57 -54t21.5 -79.5q0 -64 -25.5 -108t-68 -71.5t-95.5 -40t-108 -12.5z" />
    <glyph glyph-name="T" unicode="T" horiz-adv-x="619" 
d="M198 0l101 574h-219l20 112h568l-19 -112h-220l-101 -574h-130z" />
    <glyph glyph-name="U" unicode="U" horiz-adv-x="724" 
d="M332 -12q-127 0 -196.5 53.5t-69.5 157.5q0 14 1.5 30.5t4.5 32.5l74 424h130l-75 -426q-1 -7 -3 -19.5t-2 -22.5q0 -59 34.5 -89.5t101.5 -30.5q77 0 126 40.5t63 119.5l76 428h130l-76 -432q-16 -89 -57 -148.5t-106.5 -88.5t-155.5 -29z" />
    <glyph glyph-name="V" unicode="V" horiz-adv-x="671" 
d="M214 0l-129 686h133l69 -392q6 -33 11 -62.5t8.5 -51.5t4.5 -35h7q11 22 26 51.5t29.5 58t24.5 47.5l200 384h138l-371 -686h-151z" />
    <glyph glyph-name="W" unicode="W" horiz-adv-x="954" 
d="M146 0l-60 686h124l36 -441q1 -10 1.5 -27.5t1.5 -36.5t1 -35h5q5 16 11.5 35.5t12.5 37t9 26.5l179 441h167l26 -441q1 -10 1 -27.5t0.5 -36.5t0.5 -35h5q5 15 11.5 33.5t13 36.5t11.5 29l189 441h127l-307 -686h-154l-27 450q-1 14 -1.5 32.5l-1 37t-0.5 31.5h-5
q-4 -15 -10 -34t-12 -37t-11 -30l-190 -450h-154z" />
    <glyph glyph-name="X" unicode="X" horiz-adv-x="686" 
d="M-34 0l319 364l-176 322h147l116 -222h5l190 222h159l-290 -331l193 -355h-147l-133 253h-5l-218 -253h-160z" />
    <glyph glyph-name="Y" unicode="Y" horiz-adv-x="677" 
d="M229 0l49 279l-193 407h134l138 -291h7l236 291h143l-335 -407l-49 -279h-130z" />
    <glyph glyph-name="Z" unicode="Z" horiz-adv-x="634" 
d="M-17 0l11 62l447 513h-332l20 111h533l-11 -63l-448 -512h367l-20 -111h-567z" />
    <glyph glyph-name="bracketleft" unicode="[" horiz-adv-x="339" 
d="M34 -161l156 896h208l-14 -86h-103l-128 -724h103l-15 -86h-207z" />
    <glyph glyph-name="backslash" unicode="\" horiz-adv-x="298" 
d="M160 -49l-77 784h83l77 -784h-83z" />
    <glyph glyph-name="bracketright" unicode="]" horiz-adv-x="339" 
d="M313 735l-156 -896h-208l14 86h103l128 724h-103l15 86h207z" />
    <glyph glyph-name="asciicircum" unicode="^" horiz-adv-x="636" 
d="M114 294l224 392h107l88 -392h-101l-57 283l-155 -283h-106z" />
    <glyph glyph-name="underscore" unicode="_" horiz-adv-x="507" 
d="M-72 -149l14 84h507l-15 -84h-506z" />
    <glyph glyph-name="grave" unicode="`" horiz-adv-x="201" 
d="M161 591l-80 129l1 3h121l56 -132h-98z" />
    <glyph glyph-name="a" unicode="a" horiz-adv-x="587" 
d="M192 -12q-51 0 -90 22t-60.5 65t-21.5 107q0 20 2.5 41.5t6.5 46.5q16 93 50.5 152.5t84.5 87.5t112 28q34 0 62.5 -8t50.5 -24t35 -41h7l31 61h102l-24 -130q-7 -41 -14.5 -80.5t-13.5 -74t-11 -61.5t-7.5 -44t-2.5 -21q0 -14 8 -20.5t21 -6.5h33l-14 -84
q-10 -5 -29 -10.5t-45 -5.5t-45.5 10t-30.5 30q-4 9 -7 20.5t-3 24.5h-7q-33 -43 -78.5 -64t-101.5 -21zM246 93q27 0 51 11t43 32t33 51.5t21 69.5q3 17 4.5 29.5t2 22.5t0.5 18q0 35 -10 58.5t-31 35.5t-54 12q-44 0 -73.5 -17.5t-47.5 -54t-29 -92.5q-3 -18 -5 -32
t-3 -25t-1 -20q0 -50 23.5 -74.5t75.5 -24.5z" />
    <glyph glyph-name="b" unicode="b" horiz-adv-x="592" 
d="M306 -12q-55 0 -96 20.5t-61 61.5h-7l-22 -70h-101l127 723h122l-45 -258h6q20 25 44 41t53.5 24t63.5 8q52 0 90.5 -22t60 -65t21.5 -107q0 -19 -2 -41t-7 -47q-16 -93 -50.5 -152t-84.5 -87.5t-112 -28.5zM276 93q45 0 74 17.5t47 54t29 92.5q4 19 5.5 32.5t2.5 24.5
t1 20q0 34 -10 55.5t-32 32.5t-57 11q-28 0 -52 -11t-43 -32t-32.5 -51.5t-20.5 -69.5q-3 -16 -4.5 -29t-2 -22.5t-0.5 -18.5q0 -34 10 -58t31 -36t54 -12z" />
    <glyph glyph-name="c" unicode="c" horiz-adv-x="547" 
d="M260 -12q-76 0 -126.5 21.5t-75 66.5t-24.5 113q0 30 3 60t10 58q11 48 32 89.5t53 73.5t76.5 50t102.5 18q68 0 115.5 -19t72.5 -55.5t25 -89.5q0 -11 -1 -22.5t-3 -22.5h-123q1 7 1.5 13.5t0.5 13.5q0 25 -8.5 43.5t-27.5 29t-49 10.5q-43 0 -72 -20.5t-46.5 -57.5
t-27.5 -86q-3 -17 -5 -31t-3 -25.5t-1 -21.5q0 -37 10.5 -61.5t32.5 -36t55 -11.5q36 0 61 13.5t40.5 38.5t21.5 57h117q-10 -66 -40.5 -113t-79.5 -71.5t-117 -24.5z" />
    <glyph glyph-name="d" unicode="d" horiz-adv-x="592" 
d="M210 -12q-55 0 -95 24t-61.5 67.5t-21.5 102.5q0 20 2 42.5t6 47.5q12 69 35.5 119t55 82.5t69.5 48.5t80 16q39 0 69 -8t52 -24t34 -41h6l45 258h122l-127 -723h-99v70h-7q-31 -41 -74 -61.5t-91 -20.5zM256 93q42 0 71.5 19t48.5 55.5t28 89.5q3 17 4.5 29.5t2.5 22.5
t1 19q0 34 -10 57.5t-31.5 35.5t-54.5 12q-44 0 -73 -17t-47 -52t-28 -89q-3 -20 -5.5 -35t-3.5 -26.5t-1 -21.5q0 -50 23.5 -74.5t74.5 -24.5z" />
    <glyph glyph-name="e" unicode="e" horiz-adv-x="561" 
d="M268 -12q-78 0 -130.5 21.5t-78.5 66.5t-26 113q0 28 3 56t8 54q14 67 46.5 121t87.5 86t139 32q71 0 118.5 -21t71.5 -63.5t24 -107.5q0 -23 -3.5 -53.5t-11.5 -59.5h-356q-2 -12 -3 -22.5t-1 -20.5q0 -35 11.5 -58.5t35.5 -34.5t62 -11q24 0 44.5 5.5t36.5 17.5
t27 30.5t15 44.5h120q-8 -50 -29 -87t-53 -61t-72 -36t-86 -12zM176 319h229q2 10 2.5 19t0.5 16q0 31 -10.5 50t-30.5 28t-47 9q-38 0 -66 -14t-47 -41t-31 -67z" />
    <glyph glyph-name="f" unicode="f" horiz-adv-x="307" 
d="M3 -182q-15 0 -30 2t-28.5 5.5t-22.5 7.5l15 85h50q23 0 36 11.5t17 33.5l81 463h-76l18 100h76l12 67q6 35 21.5 66.5t47.5 51.5t88 20q15 0 30 -2t28.5 -5.5t22.5 -7.5l-15 -85h-50q-22 0 -35.5 -11.5t-17.5 -33.5l-10 -60h95l-18 -100h-95l-83 -470q-6 -34 -22 -66
t-48 -52t-87 -20z" />
    <glyph glyph-name="g" unicode="g" horiz-adv-x="591" 
d="M206 -182q-57 0 -101.5 14t-69.5 40.5t-25 65.5q0 7 0.5 15.5t3.5 21.5h118q-1 -4 -1 -6v-4q0 -17 11.5 -27.5t31 -15t42.5 -4.5q44 0 75 16t50 47.5t27 77.5q2 9 3 17t2 12h-6q-19 -24 -43.5 -40.5t-54 -24.5t-63.5 -8q-52 0 -91 20.5t-60.5 63t-21.5 107.5
q0 17 1.5 36.5t5.5 41.5q23 132 87.5 193t157.5 61q55 0 96 -20.5t61 -61.5h7l22 70h101l-81 -460q-16 -90 -51 -144.5t-92.5 -79t-141.5 -24.5zM259 120q29 0 53.5 10t43 29.5t31 47.5t18.5 64q3 16 4.5 27t2 20t0.5 17q0 32 -10.5 54t-31.5 33t-55 11q-40 0 -70.5 -16
t-50 -49t-27.5 -85q-3 -17 -5 -30t-2.5 -22t-0.5 -18q0 -31 10 -51.5t32.5 -31t57.5 -10.5z" />
    <glyph glyph-name="h" unicode="h" horiz-adv-x="584" 
d="M19 0l127 723h122l-45 -257h6q19 20 44.5 36.5t55.5 26t62 9.5q43 0 77 -13.5t54.5 -43t20.5 -78.5q0 -18 -2.5 -37.5t-6.5 -41.5l-58 -324h-122l56 315q2 14 4 26.5t2 23.5q0 25 -8.5 39t-24.5 20.5t-37 6.5q-27 0 -52.5 -9.5t-46 -28.5t-35.5 -47t-21 -64l-50 -282
h-122z" />
    <glyph glyph-name="i" unicode="i" horiz-adv-x="252" 
d="M124 607l21 116h122l-20 -116h-123zM19 0l93 526h122l-93 -526h-122z" />
    <glyph glyph-name="j" unicode="j" horiz-adv-x="250" 
d="M123 607l21 116h122l-20 -116h-123zM-13 -182q-15 0 -32.5 2t-32.5 5.5t-25 7.5l14 85h49q23 0 35.5 11t16.5 33l100 564h122l-101 -573q-6 -33 -21.5 -64t-45.5 -51t-79 -20z" />
    <glyph glyph-name="k" unicode="k" horiz-adv-x="543" 
d="M19 0l127 723h122l-74 -421l229 224h143l-212 -207l129 -319h-132l-87 241l-96 -84l-27 -157h-122z" />
    <glyph glyph-name="l" unicode="l" horiz-adv-x="252" 
d="M19 0l127 723h122l-127 -723h-122z" />
    <glyph glyph-name="m" unicode="m" horiz-adv-x="861" 
d="M19 0l92 526h100v-71h7q20 24 44.5 42.5t53.5 29.5t62 11q48 0 82 -19.5t47 -63.5h7q21 24 46.5 42.5t56 29.5t64.5 11q62 0 101 -30.5t39 -102.5q0 -16 -2.5 -34t-6.5 -38l-60 -333h-121l57 321l3.5 24.5t1.5 20.5q0 25 -8 39t-22.5 20t-34.5 6q-31 0 -58 -18t-45.5 -50
t-26.5 -74l-51 -289h-122l57 321q2 14 3.5 25t1.5 21q0 24 -8 38t-22.5 20t-34.5 6q-30 0 -57 -18t-46 -50t-27 -74l-51 -289h-122z" />
    <glyph glyph-name="n" unicode="n" horiz-adv-x="584" 
d="M19 0l92 526h100v-71h7q19 23 46.5 42t60 30t66.5 11q43 0 77 -13.5t54.5 -43t20.5 -78.5q0 -18 -2.5 -37.5t-6.5 -41.5l-58 -324h-122l56 315q2 14 4 26.5t2 23.5q0 25 -8.5 39t-24.5 20.5t-37 6.5q-27 0 -52.5 -9.5t-46 -28.5t-35.5 -47t-21 -64l-50 -282h-122z" />
    <glyph glyph-name="o" unicode="o" horiz-adv-x="598" 
d="M260 -12q-76 0 -127 21.5t-76.5 66t-25.5 112.5q0 19 2 40t6 43q16 92 54.5 151t99.5 87.5t144 28.5q77 0 128 -21.5t76.5 -66t25.5 -113.5q0 -19 -2 -39t-6 -43q-16 -92 -53.5 -151t-98 -87.5t-147.5 -28.5zM268 88q48 0 80.5 18.5t52.5 56t30 93.5q4 18 5.5 31t2 23
t0.5 19q0 36 -11.5 60.5t-35.5 36.5t-63 12q-48 0 -80 -19t-52 -56t-31 -93q-3 -18 -5 -31.5t-3 -23.5t-1 -19q0 -36 11.5 -60t36.5 -36t63 -12z" />
    <glyph glyph-name="p" unicode="p" horiz-adv-x="592" 
d="M-12 -173l123 699h99v-70h7q31 41 74 61.5t91 20.5q56 0 95.5 -22.5t61 -65.5t21.5 -106q0 -20 -1.5 -42.5t-6.5 -47.5q-16 -91 -51.5 -150t-84 -87.5t-104.5 -28.5q-38 0 -68.5 8t-52 24.5t-34.5 40.5h-6l-41 -234h-122zM276 93q44 0 73 17t47 52.5t28 88.5q4 20 6 35
t3 26.5t1 21.5q0 34 -10.5 55.5t-32 32.5t-55.5 11q-41 0 -71 -19t-49 -55.5t-28 -89.5q-3 -17 -5 -29.5t-2.5 -22.5t-0.5 -19q0 -34 10.5 -57.5t31.5 -35.5t54 -12z" />
    <glyph glyph-name="q" unicode="q" horiz-adv-x="592" 
d="M328 -173l41 234h-6q-19 -24 -43.5 -40.5t-54 -24.5t-63.5 -8q-51 0 -90 22t-60.5 65t-21.5 107q0 20 2.5 41.5t6.5 46.5q16 93 50.5 152.5t84.5 87.5t112 28q55 0 96 -20.5t61 -61.5h7l22 70h101l-123 -699h-122zM256 93q29 0 52.5 11t42.5 32t32.5 51.5t20.5 69.5
q3 17 4.5 29.5t2 22.5t0.5 18q0 35 -10 58.5t-31 35.5t-54 12q-44 0 -73.5 -17.5t-47.5 -54t-29 -92.5q-3 -18 -5 -32t-3 -25t-1 -20q0 -50 23.5 -74.5t75.5 -24.5z" />
    <glyph glyph-name="r" unicode="r" horiz-adv-x="362" 
d="M19 0l93 526h98v-83h6q14 25 31.5 46.5t41.5 35t57 13.5q18 0 32 -3t21 -6l-19 -115h-38q-31 0 -57 -9t-45.5 -27t-32.5 -45.5t-19 -64.5l-47 -268h-122z" />
    <glyph glyph-name="s" unicode="s" horiz-adv-x="541" 
d="M238 -12q-55 0 -97 10t-70.5 28t-42.5 43.5t-14 55.5q0 12 2.5 23t4.5 17h119q-1 -4 -2 -10t-1 -8q0 -23 14 -37t37.5 -20t50.5 -6q21 0 41.5 3.5t37.5 10.5t27 19t10 30t-11 29.5t-29.5 19.5t-42 14.5t-49.5 13.5q-28 8 -56 18t-50.5 25t-36 38t-13.5 56q0 43 18 76
t50 55.5t74.5 34t91.5 11.5q47 0 85.5 -8.5t66 -24.5t42.5 -38.5t15 -50.5q0 -16 -3 -29t-4 -15h-119q1 5 1.5 9t0.5 7q0 17 -10 29t-29 18.5t-48 6.5q-27 0 -46.5 -4.5t-32.5 -12.5t-19.5 -18.5t-6.5 -21.5q0 -21 19 -32.5t49 -19t64 -18.5q29 -9 56.5 -18.5t50.5 -24.5
t36.5 -38.5t13.5 -58.5q0 -52 -20 -88t-54.5 -57.5t-78.5 -31.5t-92 -10z" />
    <glyph glyph-name="t" unicode="t" horiz-adv-x="314" 
d="M166 -12q-43 0 -66.5 14.5t-33.5 38t-10 51.5q0 8 1 16l2 16l52 302h-63l17 100h66l48 147h97l-26 -147h91l-17 -100h-91l-49 -277q-1 -3 -2.5 -14t-1.5 -13q0 -16 9.5 -25t28.5 -9h47l-15 -84q-10 -4 -24.5 -7.5t-30 -6t-29.5 -2.5z" />
    <glyph glyph-name="u" unicode="u" horiz-adv-x="583" 
d="M191 -12q-42 0 -77 13.5t-55.5 43t-20.5 78.5q0 18 3 37.5t7 41.5l57 324h123l-56 -316q-2 -14 -4 -26t-2 -23q0 -25 9 -39.5t25 -20.5t37 -6q27 0 52 9.5t45.5 28.5t35.5 47t21 64l50 282h123l-93 -526h-100v71h-7q-19 -23 -46.5 -42t-59.5 -30t-67 -11z" />
    <glyph glyph-name="v" unicode="v" horiz-adv-x="529" 
d="M154 0l-101 526h123l43 -237q3 -17 7 -45.5t8 -59t7 -55.5h5q9 23 22 53t26 59t23 48l125 237h129l-288 -526h-129z" />
    <glyph glyph-name="w" unicode="w" horiz-adv-x="758" 
d="M113 0l-64 526h121l22 -241q1 -12 2.5 -37t2.5 -53.5t2 -52.5h4q8 23 18.5 50.5t20 52.5t15.5 39l101 242h131l19 -242q1 -15 2.5 -40.5t3 -52.5t2.5 -49h4q7 20 17 46.5t20 52t17 43.5l105 242h122l-250 -526h-128l-17 270q-1 16 -2 36.5t-1.5 41t-0.5 35.5h-4
q-5 -14 -12 -34.5t-15 -41t-15 -36.5l-114 -271h-129z" />
    <glyph glyph-name="x" unicode="x" horiz-adv-x="546" 
d="M-37 0l240 273l-135 253h136l82 -164h6l138 164h141l-226 -257l143 -269h-136l-88 175h-6l-152 -175h-143z" />
    <glyph glyph-name="y" unicode="y" horiz-adv-x="529" 
d="M61 -182q-40 0 -61 5.5t-25 6.5l15 88h55q23 0 45 8.5t41 26.5t33 47l-112 526h122l51 -240q5 -22 10 -51.5t9 -57.5t6 -49h5q6 15 14 34t16.5 39t17 39t15.5 33l125 253h128l-260 -499q-22 -43 -47.5 -80.5t-55.5 -66.5t-66.5 -45.5t-80.5 -16.5z" />
    <glyph glyph-name="z" unicode="z" horiz-adv-x="509" 
d="M-19 0l11 57l319 369h-238l17 100h427l-10 -56l-321 -370h268l-18 -100h-455z" />
    <glyph glyph-name="braceleft" unicode="{" horiz-adv-x="394" 
d="M267 -159q-55 0 -95.5 8.5t-63 32.5t-22.5 72q0 15 4 41t10 56.5t12 59.5t10 51t4 30q0 29 -26.5 40t-57.5 11l16 90q34 0 65.5 13t37.5 47l34 194q11 63 39 95t75 42.5t115 10.5l-12 -71q-21 0 -44 -5t-40.5 -18.5t-23.5 -40.5l-42 -199q-7 -35 -21 -59.5t-40.5 -36.5
t-73.5 -12l-2 -10q55 0 77.5 -21.5t22.5 -61.5q0 -10 -3 -35t-8 -57t-10 -63t-8 -53.5t-3 -27.5q0 -21 13 -32.5t33 -15.5t40 -4z" />
    <glyph glyph-name="bar" unicode="|" horiz-adv-x="245" 
d="M77 -192v915h93v-915h-93z" />
    <glyph glyph-name="braceright" unicode="}" horiz-adv-x="395" 
d="M136 735q55 0 95.5 -8t63 -32.5t22.5 -72.5q0 -15 -4 -41t-10 -56.5t-12 -59.5t-10 -51t-4 -30q0 -29 26.5 -40t57.5 -11l-16 -90q-34 0 -65.5 -13t-37.5 -47l-34 -194q-11 -63 -39 -94.5t-75 -42.5t-115 -11l12 71q21 0 44 5t41 19t23 40l42 199q8 36 21.5 60t40 36
t73.5 12l2 10q-55 0 -77.5 21.5t-22.5 61.5q0 10 3 35t8 57t10 63t8 53.5t3 27.5q0 22 -13 33t-32.5 15t-40.5 4z" />
    <glyph glyph-name="asciitilde" unicode="~" horiz-adv-x="636" 
d="M24 203l19 111l11 11t31.5 25t49.5 25t65 11q29 0 53 -9t47 -21t48 -21t54 -9q32 0 60.5 11t50 25t34 25l12.5 11l-19 -111l-11 -11t-31.5 -25t-49.5 -25t-65 -11q-28 0 -52.5 9t-47.5 21t-48 21t-54 9q-32 0 -60.5 -11t-50 -25t-34 -25z" />
    <glyph glyph-name="uni00A0" unicode="&#xa0;" horiz-adv-x="200" 
 />
    <glyph glyph-name="exclamdown" unicode="&#xa1;" horiz-adv-x="292" 
d="M2 -160l121 497h76l-55 -497h-142zM107 398l23 128h127l-23 -128h-127z" />
    <glyph glyph-name="cent" unicode="&#xa2;" horiz-adv-x="556" 
d="M191 -49l137 772h51l-137 -772h-51zM278 67q-76 0 -126.5 21.5t-75 66.5t-24.5 113q0 30 3 60t10 58q11 48 32 89.5t53 73.5t76.5 50t102.5 18q68 0 115.5 -19t72.5 -55.5t25 -89.5q0 -11 -1 -22.5t-3 -22.5h-123q1 7 1.5 13.5t0.5 13.5q0 25 -8.5 43.5t-27.5 29
t-49 10.5q-43 0 -72 -20.5t-46.5 -57.5t-27.5 -86q-3 -17 -5 -31t-3 -25.5t-1 -21.5q0 -37 10.5 -61.5t32.5 -36t55 -11.5q36 0 61 13.5t40.5 38.5t21.5 57h117q-10 -66 -40.5 -113t-79.5 -71.5t-117 -24.5z" />
    <glyph glyph-name="sterling" unicode="&#xa3;" horiz-adv-x="580" 
d="M3 0l18 102h65l33 187h-79l16 100h80l20 110q12 69 42.5 113t78 65t110.5 21q62 0 107 -15.5t69 -48t24 -83.5q0 -17 -1 -29t-5 -31h-121q2 11 3 18t1 11.5v7.5q0 23 -9 38t-25.5 23t-41.5 8q-29 0 -51.5 -10t-36.5 -28.5t-19 -45.5l-22 -124h159l-17 -100h-160l-45 -187
h311l-18 -102h-486z" />
    <glyph glyph-name="currency" unicode="&#xa4;" horiz-adv-x="580" 
d="M102 99l-45 45l54 56q-25 32 -37.5 71t-12.5 80t12.5 81t37.5 69l-55 54l48 48l57 -56q29 25 67 38t78 13t78.5 -13t66.5 -38l57 56l48 -48l-55 -54q26 -29 38 -69t12 -81t-12 -80t-38 -71l54 -56l-45 -45l-55 58q-30 -28 -69 -41.5t-80 -13.5q-40 0 -79.5 13.5
t-69.5 41.5zM306 181q46 0 82.5 23.5t58.5 62.5t22 84t-22 83t-59 61.5t-82 23.5t-82 -23.5t-59 -61.5t-22 -83t22 -84t59 -62.5t82 -23.5z" />
    <glyph glyph-name="yen" unicode="&#xa5;" horiz-adv-x="572" 
d="M182 0l27 150h-191l12 76h192l13 70h-192l13 76h162q-10 21 -21.5 47.5t-16.5 37.5l-95 229h132l69 -188q4 -9 8.5 -23t9.5 -29.5t9 -27.5h4q9 13 19.5 28.5t20.5 29.5l15 21l133 189h133l-179 -238q-12 -16 -29.5 -38.5t-28.5 -37.5h158l-13 -76h-189l-13 -70h189
l-13 -76h-189l-27 -150h-122z" />
    <glyph glyph-name="brokenbar" unicode="&#xa6;" horiz-adv-x="245" 
d="M77 345v378h93v-378h-93zM77 -192v378h93v-378h-93z" />
    <glyph glyph-name="section" unicode="&#xa7;" horiz-adv-x="579" 
d="M222 -182q-48 0 -86 8.5t-65.5 25t-42 39.5t-14.5 51q0 11 3 24t4 17h125q-1 -5 -1.5 -9t-0.5 -6q0 -17 9 -29t28 -18.5t47 -6.5q38 0 61.5 11.5t34.5 28t11 32.5q0 21 -15.5 37t-40.5 29.5t-55 27t-60 29t-55 36t-40.5 47.5t-15.5 63q0 25 8 47.5t23 43t36 38t47 31.5
q-23 19 -37 45t-14 61t12 63t33.5 49t51.5 35.5t66.5 22t77.5 7.5q47 0 85 -8.5t65.5 -25t42 -39t14.5 -50.5q0 -11 -2.5 -24t-4.5 -18h-125q1 5 1 8.5v6.5q0 16 -9 28t-27 18.5t-46 6.5q-39 0 -62.5 -11t-34.5 -27.5t-11 -32.5q0 -21 15 -37.5t40.5 -30.5t55.5 -28
t59.5 -30t55 -36.5t40.5 -48t15 -64.5q0 -24 -8 -46.5t-23 -42t-35.5 -36.5t-46.5 -30q23 -19 37 -43.5t14 -57.5q0 -36 -12 -64.5t-33.5 -50.5t-51.5 -36.5t-66 -22t-77 -7.5zM341 144q19 12 31.5 26t19.5 31t7 36q0 27 -14 46t-37.5 33.5t-52.5 27.5t-59 27
q-18 -12 -31 -26.5t-20 -30.5t-7 -36q0 -27 14.5 -46.5t38 -34.5t52.5 -27.5t58 -25.5z" />
    <glyph glyph-name="dieresis" unicode="&#xa8;" horiz-adv-x="312" 
d="M62 612l19 111h108l-19 -111h-108zM265 612l19 111h109l-19 -111h-109z" />
    <glyph glyph-name="copyright" unicode="&#xa9;" horiz-adv-x="764" 
d="M397 -12q-77 0 -142 26.5t-112.5 74t-74 112.5t-26.5 142t26.5 142t74 112.5t112.5 74t142 26.5t142 -26.5t112.5 -74t74 -112.5t26.5 -142t-26.5 -142t-74 -112.5t-112.5 -74t-142 -26.5zM397 132q-61 0 -100.5 22.5t-58.5 69t-19 118.5t19 118.5t58.5 69t100.5 22.5
q56 0 91 -18.5t51.5 -55t16.5 -90.5h-75q0 35 -7.5 57.5t-25.5 33t-51 10.5q-53 0 -77.5 -33.5t-24.5 -113.5v-1q0 -52 10.5 -84.5t33 -47t58.5 -14.5q32 0 51.5 11.5t28 34t8.5 54.5h71q0 -43 -16 -80.5t-51 -60t-92 -22.5zM397 45q86 0 152.5 38.5t104.5 106t38 153.5
t-38 153t-104.5 105.5t-152.5 38.5t-153 -38.5t-105 -105.5t-38 -153t38 -153.5t105 -106t153 -38.5z" />
    <glyph glyph-name="ordfeminine" unicode="&#xaa;" horiz-adv-x="397" 
d="M180 330q-46 0 -75.5 33.5t-29.5 98.5q0 17 1.5 33.5t4.5 34.5q8 45 26.5 83.5t48 61.5t68.5 23q35 0 57.5 -12t35.5 -38h4l19 42h66l-19 -103q-5 -29 -10 -55t-9 -47t-6.5 -36.5t-4 -24.5t-1.5 -11q0 -10 5.5 -14.5t12.5 -4.5h21l-9 -53q-7 -3 -19 -7t-30 -4
q-20 0 -34 10t-19 28q-1 5 -1.5 10.5t-0.5 9.5h-4q-17 -28 -43 -43t-55 -15zM207 400q15 0 26.5 7t21.5 18.5t17 24.5q12 22 21 53.5t9 56.5q0 24 -6 39.5t-18 23t-30 7.5q-38 0 -59 -33t-28 -74q-3 -17 -4 -30t-1 -26q0 -32 12.5 -49.5t38.5 -17.5z" />
    <glyph glyph-name="guillemotleft" unicode="&#xab;" horiz-adv-x="571" 
d="M175 126l-106 200l167 200h100l-149 -200l78 -200h-90zM390 126l-106 200l167 200h100l-149 -200l78 -200h-90z" />
    <glyph glyph-name="logicalnot" unicode="&#xac;" horiz-adv-x="636" 
d="M421 194l29 164h-399l18 96h492l-47 -260h-93z" />
    <glyph glyph-name="uni00AD" unicode="&#xad;" horiz-adv-x="333" 
d="M32 214l19 112h252l-19 -112h-252z" />
    <glyph glyph-name="registered" unicode="&#xae;" horiz-adv-x="764" 
d="M397 -12q-77 0 -142 26.5t-112.5 74t-74 112.5t-26.5 142t26.5 142t74 112.5t112.5 74t142 26.5t142 -26.5t112.5 -74t74 -112.5t26.5 -142t-26.5 -142t-74 -112.5t-112.5 -74t-142 -26.5zM397 45q86 0 152.5 38.5t104.5 106t38 153.5t-38 153t-104.5 105.5t-152.5 38.5
t-153 -38.5t-105 -105.5t-38 -153t38 -153.5t105 -106t153 -38.5zM250 138v412h192q64 0 95.5 -34.5t31.5 -90.5q0 -40 -17 -71t-52 -46l87 -170h-81l-78 157h-103v-157h-75zM325 359h107q27 0 44 17.5t17 48.5t-16 46.5t-45 15.5h-107v-128z" />
    <glyph glyph-name="macron" unicode="&#xaf;" horiz-adv-x="305" 
d="M63 617l14 83h304l-14 -83h-304z" />
    <glyph glyph-name="degree" unicode="&#xb0;" horiz-adv-x="400" 
d="M250 399q-41 0 -75 20t-54 54t-20 75q0 42 20 76t54 54t75 20q42 0 76 -20t54 -54t20 -76q0 -41 -20 -75t-54 -54t-76 -20zM250 472q32 0 54 22.5t22 53.5q0 32 -22 53.5t-54 21.5q-31 0 -53.5 -21.5t-22.5 -53.5q0 -31 22.5 -53.5t53.5 -22.5z" />
    <glyph glyph-name="plusminus" unicode="&#xb1;" horiz-adv-x="636" 
d="M191 142l36 206h-185l18 98h185l36 207h101l-36 -207h186l-18 -98h-186l-36 -206h-101zM-19 0l18 97h471l-17 -97h-472z" />
    <glyph glyph-name="uni00B2" unicode="&#xb2;" horiz-adv-x="357" 
d="M81 440l5 24q6 29 24 52.5t42.5 42.5t50.5 36t48.5 33.5t36.5 35t14 39.5q0 12 -8.5 22t-29.5 10q-17 0 -29.5 -5.5t-19.5 -16t-10 -25.5l-4 -20h-74q0 8 0.5 15t1.5 13q7 37 28 59.5t50.5 33.5t61.5 11q43 0 67 -13t34 -33.5t10 -42.5q0 -28 -9.5 -50.5t-25 -40.5
t-35 -33t-40 -27.5t-40 -25t-34.5 -25.5h151l-12 -69h-254z" />
    <glyph glyph-name="uni00B3" unicode="&#xb3;" horiz-adv-x="357" 
d="M221 428q-61 0 -92.5 23.5t-31.5 63.5q0 5 1 13t3 19h77q-2 -9 -2.5 -13.5t-0.5 -6.5q0 -17 12 -26t34 -9q17 0 30.5 6t21.5 18.5t8 31.5q0 15 -6.5 22.5t-17.5 10.5t-24 3h-31l11 66h26q16 0 30 5.5t23.5 17.5t9.5 30q0 17 -10.5 25t-27.5 8q-13 0 -24 -4.5t-18.5 -14.5
t-11.5 -26l-1 -7h-77l2 14q5 31 23.5 54t46.5 35.5t61 12.5q53 0 84.5 -22.5t31.5 -66.5q0 -23 -8.5 -40t-23.5 -29t-36 -21v-4q22 -10 34 -28t12 -45q0 -37 -19 -62.5t-50.5 -39.5t-68.5 -14z" />
    <glyph glyph-name="acute" unicode="&#xb4;" horiz-adv-x="209" 
d="M58 591l103 132h129v-3l-129 -129h-103z" />
    <glyph glyph-name="uni00B5" unicode="&#xb5;" horiz-adv-x="587" 
d="M-14 -185l126 711h122l-55 -316q-2 -14 -4 -26t-2 -23q0 -25 8.5 -39.5t24 -20.5t36.5 -6q27 0 52 9.5t45.5 28.5t35 47t20.5 64l50 282h123l-93 -526h-100v71h-7q-18 -23 -45 -42t-59 -30t-67 -11q-17 0 -31 2.5t-28 6.5q-1 -14 -3 -28l-4 -28l-23 -126h-122z" />
    <glyph glyph-name="paragraph" unicode="&#xb6;" horiz-adv-x="590" 
d="M184 -168l74 421q-49 0 -90 19t-66 58t-25 98q0 60 19.5 107.5t55.5 81.5t85 51.5t107 17.5h286l-11 -61h-61l-140 -793h-84l140 793h-66l-140 -793h-84z" />
    <glyph glyph-name="periodcentered" unicode="&#xb7;" horiz-adv-x="333" 
d="M108 293l23 128h127l-23 -128h-127z" />
    <glyph glyph-name="cedilla" unicode="&#xb8;" horiz-adv-x="233" 
d="M23 -182q-25 0 -51.5 2t-48.5 6l9 49h91q23 0 35.5 6t12.5 24q0 9 -8 13.5t-29 4.5h-44l30 88h78l-14 -45q35 -2 60 -14.5t25 -41.5t-15.5 -47t-38.5 -28t-48 -13.5t-44 -3.5z" />
    <glyph glyph-name="uni00B9" unicode="&#xb9;" horiz-adv-x="357" 
d="M91 440l13 69h84l34 194h-84l9 50q17 2 39.5 7.5t46 14t42.5 18.5h40l-50 -284h75l-13 -69h-236z" />
    <glyph glyph-name="ordmasculine" unicode="&#xba;" horiz-adv-x="391" 
d="M224 330q-75 0 -113 33t-38 100q0 16 1.5 32.5t4.5 35.5q9 50 31.5 88t59 59t85.5 21q76 0 114.5 -32.5t38.5 -100.5q0 -17 -1.5 -32.5t-4.5 -33.5q-9 -53 -33 -91t-61 -58.5t-84 -20.5zM221 397q44 0 67.5 31t31.5 79q2 11 3.5 20t2 17t0.5 16q0 37 -16.5 54.5
t-51.5 17.5q-43 0 -67 -30t-32 -79q-1 -9 -2.5 -18t-2 -18t-0.5 -18q0 -36 16.5 -54t50.5 -18z" />
    <glyph glyph-name="guillemotright" unicode="&#xbb;" horiz-adv-x="571" 
d="M418 526l106 -200l-167 -200h-100l149 200l-78 200h90zM203 526l106 -200l-167 -200h-100l149 200l-78 200h90z" />
    <glyph glyph-name="onequarter" unicode="&#xbc;" horiz-adv-x="855" 
d="M83 -12l671 710h91l-671 -710h-91zM73 340l13 69h84l34 194h-84l9 50q17 2 39.5 7.5t46 14t42.5 18.5h40l-50 -284h75l-13 -69h-236zM650 0l13 74h-152l10 60q37 47 68.5 104t59.5 122h82q-13 -32 -31 -65t-37.5 -63.5t-37.5 -54.5t-30 -38h79l10 58q9 13 17.5 28.5
t17.5 31.5t16 32h43l-27 -150h41l-11 -65h-41l-13 -74h-77z" />
    <glyph glyph-name="onehalf" unicode="&#xbd;" horiz-adv-x="855" 
d="M83 -12l671 710h91l-671 -710h-91zM73 340l13 69h84l34 194h-84l9 50q17 2 39.5 7.5t46 14t42.5 18.5h40l-50 -284h75l-13 -69h-236zM500 0l5 24q6 29 24 52.5t42.5 42.5t50.5 36t48.5 33.5t36.5 35t14 39.5q0 12 -8.5 22t-29.5 10q-17 0 -29.5 -5.5t-19.5 -16t-10 -25.5
l-4 -20h-74q0 8 0.5 15t1.5 13q7 37 28 59.5t50.5 33.5t61.5 11q43 0 67 -13t34 -33.5t10 -42.5q0 -28 -9.5 -50.5t-25 -40.5t-35 -33t-40 -27.5t-40 -25t-34.5 -25.5h151l-12 -69h-254z" />
    <glyph glyph-name="threequarters" unicode="&#xbe;" horiz-adv-x="855" 
d="M83 -12l671 710h91l-671 -710h-91zM203 328q-61 0 -92.5 23.5t-31.5 63.5q0 5 1 13t3 19h77q-2 -9 -2.5 -13.5t-0.5 -6.5q0 -17 12 -26t34 -9q17 0 30.5 6t21.5 18.5t8 31.5q0 15 -6.5 22.5t-17.5 10.5t-24 3h-31l11 66h26q16 0 30 5.5t23.5 17.5t9.5 30q0 17 -10.5 25
t-27.5 8q-13 0 -24 -4.5t-18.5 -14.5t-11.5 -26l-1 -7h-77l2 14q5 31 23.5 54t46.5 35.5t61 12.5q53 0 84.5 -22.5t31.5 -66.5q0 -23 -8.5 -40t-23.5 -29t-36 -21v-4q22 -10 34 -28t12 -45q0 -36 -19 -62t-50.5 -40t-68.5 -14zM650 0l13 74h-152l10 60q37 47 68.5 104
t59.5 122h82q-13 -32 -31 -65t-37.5 -63.5t-37.5 -54.5t-30 -38h79l10 58q9 13 17.5 28.5t17.5 31.5t16 32h43l-27 -150h41l-11 -65h-41l-13 -74h-77z" />
    <glyph glyph-name="questiondown" unicode="&#xbf;" horiz-adv-x="613" 
d="M239 -172q-51 0 -91.5 10.5t-68 30.5t-42 50t-14.5 69q0 47 16 80.5t41.5 58.5t54.5 45t56.5 39t46.5 40.5t23 50.5l5 32h114l-8 -47q-7 -43 -25.5 -73.5t-42.5 -52.5t-49 -39.5t-47 -34.5t-35.5 -37t-13.5 -47q0 -15 6.5 -30.5t26 -26t57.5 -10.5q34 0 58 10t39.5 26.5
t24 35t11.5 36.5q1 6 1.5 12t0.5 11h124q0 -43 -13 -79.5t-36.5 -66t-56.5 -50.5t-74.5 -32t-88.5 -11zM267 398l23 128h126l-22 -128h-127z" />
    <glyph glyph-name="Agrave" unicode="&#xc0;" horiz-adv-x="709" 
d="M-40 0l386 686h164l147 -686h-133l-30 146h-317l-80 -146h-137zM239 256h231l-36 182q-3 18 -6.5 36.5l-7 37t-5.5 34t-4 27.5h-5q-10 -20 -23 -46.5t-25.5 -51t-21.5 -40.5zM401 736l-86 129l1 3h127l59 -132h-101z" />
    <glyph glyph-name="Aacute" unicode="&#xc1;" horiz-adv-x="709" 
d="M-40 0l386 686h164l147 -686h-133l-30 146h-317l-80 -146h-137zM239 256h231l-36 182q-3 18 -6.5 36.5l-7 37t-5.5 34t-4 27.5h-5q-10 -20 -23 -46.5t-25.5 -51t-21.5 -40.5zM388 736l105 132h132v-3l-131 -129h-106z" />
    <glyph glyph-name="Acircumflex" unicode="&#xc2;" horiz-adv-x="709" 
d="M-40 0l386 686h164l147 -686h-133l-30 146h-317l-80 -146h-137zM239 256h231l-36 182q-3 18 -6.5 36.5l-7 37t-5.5 34t-4 27.5h-5q-10 -20 -23 -46.5t-25.5 -51t-21.5 -40.5zM276 736l130 132h122l81 -132h-106l-65 105l56 -1l-105 -104h-113z" />
    <glyph glyph-name="Atilde" unicode="&#xc3;" horiz-adv-x="709" 
d="M-40 0l386 686h164l147 -686h-133l-30 146h-317l-80 -146h-137zM239 256h231l-36 182q-3 18 -6.5 36.5l-7 37t-5.5 34t-4 27.5h-5q-10 -20 -23 -46.5t-25.5 -51t-21.5 -40.5zM282 751q6 31 20 57.5t37.5 43t56.5 16.5q26 0 47 -8.5t41.5 -17.5t43.5 -9q13 0 23 7.5
t16 27.5h68q-5 -31 -19.5 -58t-38 -43t-57.5 -16q-25 0 -46 9t-41 18t-44 9q-13 0 -23 -8t-16 -28h-68z" />
    <glyph glyph-name="Adieresis" unicode="&#xc4;" horiz-adv-x="709" 
d="M-40 0l386 686h164l147 -686h-133l-30 146h-317l-80 -146h-137zM239 256h231l-36 182q-3 18 -6.5 36.5l-7 37t-5.5 34t-4 27.5h-5q-10 -20 -23 -46.5t-25.5 -51t-21.5 -40.5zM294 757l18 111h109l-19 -111h-108zM496 757l19 111h110l-19 -111h-110z" />
    <glyph glyph-name="Aring" unicode="&#xc5;" horiz-adv-x="709" 
d="M-40 0l386 686h164l147 -686h-133l-30 146h-317l-80 -146h-137zM239 256h231l-36 182q-3 18 -6.5 36.5l-7 37t-5.5 34t-4 27.5h-5q-10 -20 -23 -46.5t-25.5 -51t-21.5 -40.5zM447 729q-42 0 -69 24t-27 61q0 33 16.5 59t45 40.5t65.5 14.5q42 0 69 -23.5t27 -60.5
q0 -33 -16.5 -59t-45 -41t-65.5 -15zM455 790q16 0 27.5 5.5t18.5 15.5t7 22q0 15 -10.5 24.5t-27.5 9.5q-15 0 -26.5 -5.5t-18.5 -15.5t-7 -23q0 -14 10.5 -23.5t26.5 -9.5z" />
    <glyph glyph-name="AE" unicode="&#xc6;" horiz-adv-x="999" 
d="M-49 0l456 686h607l-20 -111h-405l17 -169h315l-20 -111h-284l17 -184h285l-20 -111h-379l-13 147h-321l-95 -147h-140zM257 256h240l-24 270q0 6 -0.5 12t-1.5 12.5t-1.5 12.5t-0.5 12h-5q-5 -8 -10.5 -16t-10.5 -16.5t-11 -16.5z" />
    <glyph glyph-name="Ccedilla" unicode="&#xc7;" horiz-adv-x="721" 
d="M341 -12q-139 0 -214.5 63.5t-75.5 202.5q0 28 2.5 55t6.5 53q19 104 69 179.5t129.5 116t184.5 40.5q80 0 142 -23t97.5 -69.5t35.5 -117.5q0 -13 -1.5 -27t-3.5 -28h-134q2 9 2.5 17.5t0.5 15.5q0 41 -17.5 68t-49 40t-74.5 13q-51 0 -91.5 -15.5t-71 -44.5t-50.5 -70
t-30 -92q-4 -19 -6.5 -34t-4 -27.5t-2 -23t-0.5 -21.5q0 -54 17 -89.5t52.5 -53t88.5 -17.5q55 0 98.5 17.5t72.5 51.5t38 84h129q-15 -90 -64 -148.5t-120.5 -87t-155.5 -28.5zM292 -182q-25 0 -51.5 2t-48.5 6l9 49h91q23 0 35.5 6t12.5 24q0 9 -8 13.5t-29 4.5h-44l30 88
h78l-14 -45q35 -2 60 -14.5t25 -41.5t-15.5 -47t-38.5 -28t-48 -13.5t-44 -3.5z" />
    <glyph glyph-name="Egrave" unicode="&#xc8;" horiz-adv-x="672" 
d="M30 0l121 686h536l-20 -111h-405l-30 -169h362l-19 -111h-363l-32 -184h412l-20 -111h-542zM385 736l-86 129l1 3h127l59 -132h-101z" />
    <glyph glyph-name="Eacute" unicode="&#xc9;" horiz-adv-x="672" 
d="M30 0l121 686h536l-20 -111h-405l-30 -169h362l-19 -111h-363l-32 -184h412l-20 -111h-542zM372 736l105 132h132v-3l-131 -129h-106z" />
    <glyph glyph-name="Ecircumflex" unicode="&#xca;" horiz-adv-x="672" 
d="M30 0l121 686h536l-20 -111h-405l-30 -169h362l-19 -111h-363l-32 -184h412l-20 -111h-542zM260 736l130 132h122l81 -132h-106l-65 105l56 -1l-105 -104h-113z" />
    <glyph glyph-name="Edieresis" unicode="&#xcb;" horiz-adv-x="672" 
d="M30 0l121 686h536l-20 -111h-405l-30 -169h362l-19 -111h-363l-32 -184h412l-20 -111h-542zM278 757l18 111h109l-19 -111h-108zM480 757l19 111h110l-19 -111h-110z" />
    <glyph glyph-name="Igrave" unicode="&#xcc;" horiz-adv-x="282" 
d="M30 0l121 686h130l-121 -686h-130zM181 736l-86 129l1 3h127l59 -132h-101z" />
    <glyph glyph-name="Iacute" unicode="&#xcd;" horiz-adv-x="282" 
d="M30 0l121 686h130l-121 -686h-130zM168 736l105 132h132v-3l-131 -129h-106z" />
    <glyph glyph-name="Icircumflex" unicode="&#xce;" horiz-adv-x="282" 
d="M30 0l121 686h130l-121 -686h-130zM56 736l130 132h122l81 -132h-106l-65 105l56 -1l-105 -104h-113z" />
    <glyph glyph-name="Idieresis" unicode="&#xcf;" horiz-adv-x="282" 
d="M30 0l121 686h130l-121 -686h-130zM74 757l18 111h109l-19 -111h-108zM276 757l19 111h110l-19 -111h-110z" />
    <glyph glyph-name="Eth" unicode="&#xd0;" horiz-adv-x="728" 
d="M6 298l18 100h372l-18 -100h-372zM30 0l121 686h259q140 0 217.5 -65.5t77.5 -205.5q0 -25 -2 -49t-6 -47q-17 -99 -67.5 -170.5t-128.5 -110t-179 -38.5h-292zM180 111h136q49 0 90 14.5t72.5 41.5t52 67t29.5 91q4 20 6 35.5t3 28t1 23.5q0 55 -19 91t-56 54t-91 18
h-143z" />
    <glyph glyph-name="Ntilde" unicode="&#xd1;" horiz-adv-x="732" 
d="M30 0l121 686h124l209 -399q5 -9 11.5 -22.5t13.5 -27.5t12 -25l6 1q2 16 5 37t5 33l70 403h125l-121 -686h-123l-199 383q-9 17 -23 45.5t-24 48.5h-6q-2 -17 -6 -42.5t-7 -42.5l-68 -392h-125zM290 751q6 31 20 57.5t37.5 43t56.5 16.5q26 0 47 -8.5t41.5 -17.5
t43.5 -9q13 0 23 7.5t16 27.5h68q-5 -31 -19.5 -58t-38 -43t-57.5 -16q-25 0 -46 9t-41 18t-44 9q-13 0 -23 -8t-16 -28h-68z" />
    <glyph glyph-name="Ograve" unicode="&#xd2;" horiz-adv-x="782" 
d="M359 -12q-97 0 -166 30t-105.5 89.5t-36.5 148.5q0 24 1.5 47t5.5 45q18 109 69 187.5t133 120.5t192 42q97 0 166 -30t106 -89.5t37 -148.5q0 -22 -1.5 -44t-5.5 -44q-17 -110 -68.5 -189.5t-134 -122t-192.5 -42.5zM357 99q55 0 98.5 15.5t76 45.5t53.5 74t31 101
q3 16 5 29t3 23t1.5 19t0.5 17q0 52 -19.5 89t-58.5 56.5t-96 19.5q-54 0 -97.5 -15.5t-76 -45.5t-53.5 -74t-31 -101q-3 -16 -4.5 -29t-2.5 -23.5t-1.5 -19t-0.5 -16.5q0 -52 19.5 -89t58 -56.5t94.5 -19.5zM431 736l-86 129l1 3h127l59 -132h-101z" />
    <glyph glyph-name="Oacute" unicode="&#xd3;" horiz-adv-x="782" 
d="M359 -12q-97 0 -166 30t-105.5 89.5t-36.5 148.5q0 24 1.5 47t5.5 45q18 109 69 187.5t133 120.5t192 42q97 0 166 -30t106 -89.5t37 -148.5q0 -22 -1.5 -44t-5.5 -44q-17 -110 -68.5 -189.5t-134 -122t-192.5 -42.5zM357 99q55 0 98.5 15.5t76 45.5t53.5 74t31 101
q3 16 5 29t3 23t1.5 19t0.5 17q0 52 -19.5 89t-58.5 56.5t-96 19.5q-54 0 -97.5 -15.5t-76 -45.5t-53.5 -74t-31 -101q-3 -16 -4.5 -29t-2.5 -23.5t-1.5 -19t-0.5 -16.5q0 -52 19.5 -89t58 -56.5t94.5 -19.5zM418 736l105 132h132v-3l-131 -129h-106z" />
    <glyph glyph-name="Ocircumflex" unicode="&#xd4;" horiz-adv-x="782" 
d="M359 -12q-97 0 -166 30t-105.5 89.5t-36.5 148.5q0 24 1.5 47t5.5 45q18 109 69 187.5t133 120.5t192 42q97 0 166 -30t106 -89.5t37 -148.5q0 -22 -1.5 -44t-5.5 -44q-17 -110 -68.5 -189.5t-134 -122t-192.5 -42.5zM357 99q55 0 98.5 15.5t76 45.5t53.5 74t31 101
q3 16 5 29t3 23t1.5 19t0.5 17q0 52 -19.5 89t-58.5 56.5t-96 19.5q-54 0 -97.5 -15.5t-76 -45.5t-53.5 -74t-31 -101q-3 -16 -4.5 -29t-2.5 -23.5t-1.5 -19t-0.5 -16.5q0 -52 19.5 -89t58 -56.5t94.5 -19.5zM306 736l130 132h122l81 -132h-106l-65 105l56 -1l-105 -104
h-113z" />
    <glyph glyph-name="Otilde" unicode="&#xd5;" horiz-adv-x="782" 
d="M359 -12q-97 0 -166 30t-105.5 89.5t-36.5 148.5q0 24 1.5 47t5.5 45q18 109 69 187.5t133 120.5t192 42q97 0 166 -30t106 -89.5t37 -148.5q0 -22 -1.5 -44t-5.5 -44q-17 -110 -68.5 -189.5t-134 -122t-192.5 -42.5zM357 99q55 0 98.5 15.5t76 45.5t53.5 74t31 101
q3 16 5 29t3 23t1.5 19t0.5 17q0 52 -19.5 89t-58.5 56.5t-96 19.5q-54 0 -97.5 -15.5t-76 -45.5t-53.5 -74t-31 -101q-3 -16 -4.5 -29t-2.5 -23.5t-1.5 -19t-0.5 -16.5q0 -52 19.5 -89t58 -56.5t94.5 -19.5zM312 751q6 31 20 57.5t37.5 43t56.5 16.5q26 0 47 -8.5
t41.5 -17.5t43.5 -9q13 0 23 7.5t16 27.5h68q-5 -31 -19.5 -58t-38 -43t-57.5 -16q-25 0 -46 9t-41 18t-44 9q-13 0 -23 -8t-16 -28h-68z" />
    <glyph glyph-name="Odieresis" unicode="&#xd6;" horiz-adv-x="782" 
d="M359 -12q-97 0 -166 30t-105.5 89.5t-36.5 148.5q0 24 1.5 47t5.5 45q18 109 69 187.5t133 120.5t192 42q97 0 166 -30t106 -89.5t37 -148.5q0 -22 -1.5 -44t-5.5 -44q-17 -110 -68.5 -189.5t-134 -122t-192.5 -42.5zM357 99q55 0 98.5 15.5t76 45.5t53.5 74t31 101
q3 16 5 29t3 23t1.5 19t0.5 17q0 52 -19.5 89t-58.5 56.5t-96 19.5q-54 0 -97.5 -15.5t-76 -45.5t-53.5 -74t-31 -101q-3 -16 -4.5 -29t-2.5 -23.5t-1.5 -19t-0.5 -16.5q0 -52 19.5 -89t58 -56.5t94.5 -19.5zM324 757l18 111h109l-19 -111h-108zM526 757l19 111h110
l-19 -111h-110z" />
    <glyph glyph-name="multiply" unicode="&#xd7;" horiz-adv-x="636" 
d="M134 37l-61 74l176 147l-119 144l75 67l119 -144l175 148l61 -74l-176 -148l119 -143l-76 -67l-118 144z" />
    <glyph glyph-name="Oslash" unicode="&#xd8;" horiz-adv-x="782" 
d="M359 -12q-97 0 -166 30t-105.5 89.5t-36.5 148.5q0 24 1.5 47t5.5 45q18 109 69 187.5t133 120.5t192 42q97 0 166 -30t106 -89.5t37 -148.5q0 -22 -1.5 -44t-5.5 -44q-17 -110 -68.5 -189.5t-134 -122t-192.5 -42.5zM357 99q55 0 98.5 15.5t76 45.5t53.5 74t31 101
q3 16 5 29t3 23t1.5 19t0.5 17q0 52 -19.5 89t-58.5 56.5t-96 19.5q-54 0 -97.5 -15.5t-76 -45.5t-53.5 -74t-31 -101q-3 -16 -4.5 -29t-2.5 -23.5t-1.5 -19t-0.5 -16.5q0 -52 19.5 -89t58 -56.5t94.5 -19.5zM-6 -49l715 784h108l-715 -784h-108z" />
    <glyph glyph-name="Ugrave" unicode="&#xd9;" horiz-adv-x="724" 
d="M332 -12q-127 0 -196.5 53.5t-69.5 157.5q0 14 1.5 30.5t4.5 32.5l74 424h130l-75 -426q-1 -7 -3 -19.5t-2 -22.5q0 -59 34.5 -89.5t101.5 -30.5q77 0 126 40.5t63 119.5l76 428h130l-76 -432q-16 -89 -57 -148.5t-106.5 -88.5t-155.5 -29zM410 736l-86 129l1 3h127
l59 -132h-101z" />
    <glyph glyph-name="Uacute" unicode="&#xda;" horiz-adv-x="724" 
d="M332 -12q-127 0 -196.5 53.5t-69.5 157.5q0 14 1.5 30.5t4.5 32.5l74 424h130l-75 -426q-1 -7 -3 -19.5t-2 -22.5q0 -59 34.5 -89.5t101.5 -30.5q77 0 126 40.5t63 119.5l76 428h130l-76 -432q-16 -89 -57 -148.5t-106.5 -88.5t-155.5 -29zM397 736l105 132h132v-3
l-131 -129h-106z" />
    <glyph glyph-name="Ucircumflex" unicode="&#xdb;" horiz-adv-x="724" 
d="M332 -12q-127 0 -196.5 53.5t-69.5 157.5q0 14 1.5 30.5t4.5 32.5l74 424h130l-75 -426q-1 -7 -3 -19.5t-2 -22.5q0 -59 34.5 -89.5t101.5 -30.5q77 0 126 40.5t63 119.5l76 428h130l-76 -432q-16 -89 -57 -148.5t-106.5 -88.5t-155.5 -29zM285 736l130 132h122l81 -132
h-106l-65 105l56 -1l-105 -104h-113z" />
    <glyph glyph-name="Udieresis" unicode="&#xdc;" horiz-adv-x="724" 
d="M332 -12q-127 0 -196.5 53.5t-69.5 157.5q0 14 1.5 30.5t4.5 32.5l74 424h130l-75 -426q-1 -7 -3 -19.5t-2 -22.5q0 -59 34.5 -89.5t101.5 -30.5q77 0 126 40.5t63 119.5l76 428h130l-76 -432q-16 -89 -57 -148.5t-106.5 -88.5t-155.5 -29zM303 757l18 111h109l-19 -111
h-108zM505 757l19 111h110l-19 -111h-110z" />
    <glyph glyph-name="Yacute" unicode="&#xdd;" horiz-adv-x="677" 
d="M229 0l49 279l-193 407h134l138 -291h7l236 291h143l-335 -407l-49 -279h-130zM362 736l105 132h132v-3l-131 -129h-106z" />
    <glyph glyph-name="Thorn" unicode="&#xde;" horiz-adv-x="690" 
d="M30 0l121 686h130l-19 -111h154q85 0 136.5 -22.5t75.5 -64.5t24 -101q0 -60 -19.5 -107t-55.5 -80t-86 -50t-112 -17h-195l-24 -133h-130zM203 244h175q41 0 72.5 15t50 43.5t18.5 70.5q0 44 -24.5 67.5t-78.5 23.5h-174z" />
    <glyph glyph-name="germandbls" unicode="&#xdf;" horiz-adv-x="625" 
d="M19 0l90 512q10 56 32 97.5t55.5 69.5t78.5 42t101 14q54 0 96 -11t71 -32.5t44 -52.5t15 -70q0 -41 -17.5 -75.5t-49.5 -60t-76 -38.5v-4q54 -19 81.5 -59t27.5 -103q0 -51 -19 -93t-54.5 -72.5t-85.5 -47t-111 -16.5h-90l17 100h76q45 0 77 18.5t49 48t17 62.5
q0 30 -12.5 52.5t-35.5 35t-55 12.5h-76l19 107h71q34 0 61 14.5t43 40t16 58.5q0 38 -24.5 62.5t-75.5 24.5q-37 0 -66.5 -13.5t-49.5 -39.5t-27 -65l-91 -518h-122z" />
    <glyph glyph-name="agrave" unicode="&#xe0;" horiz-adv-x="587" 
d="M192 -12q-51 0 -90 22t-60.5 65t-21.5 107q0 20 2.5 41.5t6.5 46.5q16 93 50.5 152.5t84.5 87.5t112 28q34 0 62.5 -8t50.5 -24t35 -41h7l31 61h102l-24 -130q-7 -41 -14.5 -80.5t-13.5 -74t-11 -61.5t-7.5 -44t-2.5 -21q0 -14 8 -20.5t21 -6.5h33l-14 -84
q-10 -5 -29 -10.5t-45 -5.5t-45.5 10t-30.5 30q-4 9 -7 20.5t-3 24.5h-7q-33 -43 -78.5 -64t-101.5 -21zM246 93q27 0 51 11t43 32t33 51.5t21 69.5q3 17 4.5 29.5t2 22.5t0.5 18q0 35 -10 58.5t-31 35.5t-54 12q-44 0 -73.5 -17.5t-47.5 -54t-29 -92.5q-3 -18 -5 -32
t-3 -25t-1 -20q0 -50 23.5 -74.5t75.5 -24.5zM286 591l-80 129l1 3h121l56 -132h-98z" />
    <glyph glyph-name="aacute" unicode="&#xe1;" horiz-adv-x="587" 
d="M192 -12q-51 0 -90 22t-60.5 65t-21.5 107q0 20 2.5 41.5t6.5 46.5q16 93 50.5 152.5t84.5 87.5t112 28q34 0 62.5 -8t50.5 -24t35 -41h7l31 61h102l-24 -130q-7 -41 -14.5 -80.5t-13.5 -74t-11 -61.5t-7.5 -44t-2.5 -21q0 -14 8 -20.5t21 -6.5h33l-14 -84
q-10 -5 -29 -10.5t-45 -5.5t-45.5 10t-30.5 30q-4 9 -7 20.5t-3 24.5h-7q-33 -43 -78.5 -64t-101.5 -21zM246 93q27 0 51 11t43 32t33 51.5t21 69.5q3 17 4.5 29.5t2 22.5t0.5 18q0 35 -10 58.5t-31 35.5t-54 12q-44 0 -73.5 -17.5t-47.5 -54t-29 -92.5q-3 -18 -5 -32
t-3 -25t-1 -20q0 -50 23.5 -74.5t75.5 -24.5zM272 591l103 132h129v-3l-129 -129h-103z" />
    <glyph glyph-name="acircumflex" unicode="&#xe2;" horiz-adv-x="587" 
d="M192 -12q-51 0 -90 22t-60.5 65t-21.5 107q0 20 2.5 41.5t6.5 46.5q16 93 50.5 152.5t84.5 87.5t112 28q34 0 62.5 -8t50.5 -24t35 -41h7l31 61h102l-24 -130q-7 -41 -14.5 -80.5t-13.5 -74t-11 -61.5t-7.5 -44t-2.5 -21q0 -14 8 -20.5t21 -6.5h33l-14 -84
q-10 -5 -29 -10.5t-45 -5.5t-45.5 10t-30.5 30q-4 9 -7 20.5t-3 24.5h-7q-33 -43 -78.5 -64t-101.5 -21zM246 93q27 0 51 11t43 32t33 51.5t21 69.5q3 17 4.5 29.5t2 22.5t0.5 18q0 35 -10 58.5t-31 35.5t-54 12q-44 0 -73.5 -17.5t-47.5 -54t-29 -92.5q-3 -18 -5 -32
t-3 -25t-1 -20q0 -50 23.5 -74.5t75.5 -24.5zM166 591l130 132h114l81 -132h-103l-65 104h56l-104 -104h-109z" />
    <glyph glyph-name="atilde" unicode="&#xe3;" horiz-adv-x="587" 
d="M192 -12q-51 0 -90 22t-60.5 65t-21.5 107q0 20 2.5 41.5t6.5 46.5q16 93 50.5 152.5t84.5 87.5t112 28q34 0 62.5 -8t50.5 -24t35 -41h7l31 61h102l-24 -130q-7 -41 -14.5 -80.5t-13.5 -74t-11 -61.5t-7.5 -44t-2.5 -21q0 -14 8 -20.5t21 -6.5h33l-14 -84
q-10 -5 -29 -10.5t-45 -5.5t-45.5 10t-30.5 30q-4 9 -7 20.5t-3 24.5h-7q-33 -43 -78.5 -64t-101.5 -21zM246 93q27 0 51 11t43 32t33 51.5t21 69.5q3 17 4.5 29.5t2 22.5t0.5 18q0 35 -10 58.5t-31 35.5t-54 12q-44 0 -73.5 -17.5t-47.5 -54t-29 -92.5q-3 -18 -5 -32
t-3 -25t-1 -20q0 -50 23.5 -74.5t75.5 -24.5zM164 606q6 31 20 57.5t37.5 43t56.5 16.5q26 0 47.5 -8.5t41.5 -17.5t43 -9q14 0 23.5 7.5t15.5 27.5h69q-6 -31 -20.5 -58t-38 -43t-57.5 -16q-25 0 -46 9t-41 18t-43 9q-13 0 -23.5 -8t-16.5 -28h-68z" />
    <glyph glyph-name="adieresis" unicode="&#xe4;" horiz-adv-x="587" 
d="M192 -12q-51 0 -90 22t-60.5 65t-21.5 107q0 20 2.5 41.5t6.5 46.5q16 93 50.5 152.5t84.5 87.5t112 28q34 0 62.5 -8t50.5 -24t35 -41h7l31 61h102l-24 -130q-7 -41 -14.5 -80.5t-13.5 -74t-11 -61.5t-7.5 -44t-2.5 -21q0 -14 8 -20.5t21 -6.5h33l-14 -84
q-10 -5 -29 -10.5t-45 -5.5t-45.5 10t-30.5 30q-4 9 -7 20.5t-3 24.5h-7q-33 -43 -78.5 -64t-101.5 -21zM246 93q27 0 51 11t43 32t33 51.5t21 69.5q3 17 4.5 29.5t2 22.5t0.5 18q0 35 -10 58.5t-31 35.5t-54 12q-44 0 -73.5 -17.5t-47.5 -54t-29 -92.5q-3 -18 -5 -32
t-3 -25t-1 -20q0 -50 23.5 -74.5t75.5 -24.5zM181 612l19 111h108l-19 -111h-108zM384 612l19 111h109l-19 -111h-109z" />
    <glyph glyph-name="aring" unicode="&#xe5;" horiz-adv-x="587" 
d="M192 -12q-51 0 -90 22t-60.5 65t-21.5 107q0 20 2.5 41.5t6.5 46.5q16 93 50.5 152.5t84.5 87.5t112 28q34 0 62.5 -8t50.5 -24t35 -41h7l31 61h102l-24 -130q-7 -41 -14.5 -80.5t-13.5 -74t-11 -61.5t-7.5 -44t-2.5 -21q0 -14 8 -20.5t21 -6.5h33l-14 -84
q-10 -5 -29 -10.5t-45 -5.5t-45.5 10t-30.5 30q-4 9 -7 20.5t-3 24.5h-7q-33 -43 -78.5 -64t-101.5 -21zM246 93q27 0 51 11t43 32t33 51.5t21 69.5q3 17 4.5 29.5t2 22.5t0.5 18q0 35 -10 58.5t-31 35.5t-54 12q-44 0 -73.5 -17.5t-47.5 -54t-29 -92.5q-3 -18 -5 -32
t-3 -25t-1 -20q0 -50 23.5 -74.5t75.5 -24.5zM338 579q-39 0 -64.5 25t-25.5 63q0 48 32 79.5t81 31.5q37 0 61.5 -24.5t24.5 -62.5q0 -32 -14 -57.5t-38.5 -40t-56.5 -14.5zM340 632q16 0 27.5 6.5t18.5 18.5t7 27q0 18 -10.5 29.5t-27.5 11.5q-15 0 -27 -7t-19 -18.5
t-7 -27.5q0 -17 11 -28.5t27 -11.5z" />
    <glyph glyph-name="ae" unicode="&#xe6;" horiz-adv-x="895" 
d="M200 -12q-28 0 -61 4.5t-62.5 18t-48.5 39t-19 67.5q0 49 19 84t53.5 58t81.5 36t104.5 18.5t121.5 5.5l7 43q1 6 1.5 11.5t0.5 10.5q0 26 -18 42t-68 16q-40 0 -63.5 -8.5t-34 -22t-14.5 -30.5l-2 -11h-119v6.5t1 7.5q8 47 39.5 81.5t81 53.5t111.5 19q65 0 108.5 -14
t68.5 -40q30 26 70.5 40t93.5 14q70 0 117 -21t71 -63.5t24 -107.5q0 -22 -3 -49.5t-11 -63.5h-354q-2 -12 -3 -22.5t-1 -20.5q0 -35 11 -59t35 -35.5t61 -11.5q24 0 44.5 6t36.5 18t26.5 31t14.5 45h120q-7 -50 -28 -87t-53 -61t-72 -36t-85 -12q-73 0 -124 19t-78 59
q-25 -25 -56 -42.5t-67 -26.5t-79 -9zM213 85q32 0 59 9t47 26t33 40t18 51l4 22q-63 0 -117 -7.5t-86.5 -29t-32.5 -62.5q0 -15 8 -26t25 -17t42 -6zM514 319h226q2 10 2.5 19t0.5 16q0 31 -10.5 50t-30 28t-46.5 9q-38 0 -66 -14t-46.5 -41t-29.5 -67z" />
    <glyph glyph-name="ccedilla" unicode="&#xe7;" horiz-adv-x="547" 
d="M260 -12q-76 0 -126.5 21.5t-75 66.5t-24.5 113q0 30 3 60t10 58q11 48 32 89.5t53 73.5t76.5 50t102.5 18q68 0 115.5 -19t72.5 -55.5t25 -89.5q0 -11 -1 -22.5t-3 -22.5h-123q1 7 1.5 13.5t0.5 13.5q0 25 -8.5 43.5t-27.5 29t-49 10.5q-43 0 -72 -20.5t-46.5 -57.5
t-27.5 -86q-3 -17 -5 -31t-3 -25.5t-1 -21.5q0 -37 10.5 -61.5t32.5 -36t55 -11.5q36 0 61 13.5t40.5 38.5t21.5 57h117q-10 -66 -40.5 -113t-79.5 -71.5t-117 -24.5zM197 -182q-25 0 -51.5 2t-48.5 6l9 49h91q23 0 35.5 6t12.5 24q0 9 -8 13.5t-29 4.5h-44l30 88h78
l-14 -45q35 -2 60 -14.5t25 -41.5t-15.5 -47t-38.5 -28t-48 -13.5t-44 -3.5z" />
    <glyph glyph-name="egrave" unicode="&#xe8;" horiz-adv-x="561" 
d="M268 -12q-78 0 -130.5 21.5t-78.5 66.5t-26 113q0 28 3 56t8 54q14 67 46.5 121t87.5 86t139 32q71 0 118.5 -21t71.5 -63.5t24 -107.5q0 -23 -3.5 -53.5t-11.5 -59.5h-356q-2 -12 -3 -22.5t-1 -20.5q0 -35 11.5 -58.5t35.5 -34.5t62 -11q24 0 44.5 5.5t36.5 17.5
t27 30.5t15 44.5h120q-8 -50 -29 -87t-53 -61t-72 -36t-86 -12zM176 319h229q2 10 2.5 19t0.5 16q0 31 -10.5 50t-30.5 28t-47 9q-38 0 -66 -14t-47 -41t-31 -67zM283 591l-80 129l1 3h121l56 -132h-98z" />
    <glyph glyph-name="eacute" unicode="&#xe9;" horiz-adv-x="561" 
d="M268 -12q-78 0 -130.5 21.5t-78.5 66.5t-26 113q0 28 3 56t8 54q14 67 46.5 121t87.5 86t139 32q71 0 118.5 -21t71.5 -63.5t24 -107.5q0 -23 -3.5 -53.5t-11.5 -59.5h-356q-2 -12 -3 -22.5t-1 -20.5q0 -35 11.5 -58.5t35.5 -34.5t62 -11q24 0 44.5 5.5t36.5 17.5
t27 30.5t15 44.5h120q-8 -50 -29 -87t-53 -61t-72 -36t-86 -12zM176 319h229q2 10 2.5 19t0.5 16q0 31 -10.5 50t-30.5 28t-47 9q-38 0 -66 -14t-47 -41t-31 -67zM269 591l103 132h129v-3l-129 -129h-103z" />
    <glyph glyph-name="ecircumflex" unicode="&#xea;" horiz-adv-x="561" 
d="M268 -12q-78 0 -130.5 21.5t-78.5 66.5t-26 113q0 28 3 56t8 54q14 67 46.5 121t87.5 86t139 32q71 0 118.5 -21t71.5 -63.5t24 -107.5q0 -23 -3.5 -53.5t-11.5 -59.5h-356q-2 -12 -3 -22.5t-1 -20.5q0 -35 11.5 -58.5t35.5 -34.5t62 -11q24 0 44.5 5.5t36.5 17.5
t27 30.5t15 44.5h120q-8 -50 -29 -87t-53 -61t-72 -36t-86 -12zM176 319h229q2 10 2.5 19t0.5 16q0 31 -10.5 50t-30.5 28t-47 9q-38 0 -66 -14t-47 -41t-31 -67zM163 591l130 132h114l81 -132h-103l-65 104h56l-104 -104h-109z" />
    <glyph glyph-name="edieresis" unicode="&#xeb;" horiz-adv-x="561" 
d="M268 -12q-78 0 -130.5 21.5t-78.5 66.5t-26 113q0 28 3 56t8 54q14 67 46.5 121t87.5 86t139 32q71 0 118.5 -21t71.5 -63.5t24 -107.5q0 -23 -3.5 -53.5t-11.5 -59.5h-356q-2 -12 -3 -22.5t-1 -20.5q0 -35 11.5 -58.5t35.5 -34.5t62 -11q24 0 44.5 5.5t36.5 17.5
t27 30.5t15 44.5h120q-8 -50 -29 -87t-53 -61t-72 -36t-86 -12zM176 319h229q2 10 2.5 19t0.5 16q0 31 -10.5 50t-30.5 28t-47 9q-38 0 -66 -14t-47 -41t-31 -67zM178 612l19 111h108l-19 -111h-108zM381 612l19 111h109l-19 -111h-109z" />
    <glyph glyph-name="igrave" unicode="&#xec;" horiz-adv-x="252" 
d="M19 0l93 526h122l-93 -526h-122zM137 591l-80 129l1 3h121l56 -132h-98z" />
    <glyph glyph-name="iacute" unicode="&#xed;" horiz-adv-x="252" 
d="M19 0l93 526h122l-93 -526h-122zM123 591l103 132h129v-3l-129 -129h-103z" />
    <glyph glyph-name="icircumflex" unicode="&#xee;" horiz-adv-x="252" 
d="M19 0l93 526h122l-93 -526h-122zM17 591l130 132h114l81 -132h-103l-65 104h56l-104 -104h-109z" />
    <glyph glyph-name="idieresis" unicode="&#xef;" horiz-adv-x="252" 
d="M19 0l93 526h122l-93 -526h-122zM32 612l19 111h108l-19 -111h-108zM235 612l19 111h109l-19 -111h-109z" />
    <glyph glyph-name="eth" unicode="&#xf0;" horiz-adv-x="614" 
d="M277 -12q-81 0 -135 21.5t-81 66t-27 114.5q0 84 23 155t67 117q16 17 35.5 30t41.5 21.5t46.5 13t50.5 4.5q27 0 51.5 -4.5t46.5 -12.5l4 3q-9 21 -21 41.5t-28 41.5l-164 -12l12 69l102 7q-13 14 -27 27.5t-29 26.5l4 5h139q13 -12 25.5 -24t22.5 -25l165 11l-12 -68
l-100 -7q39 -57 65 -124t26 -141q0 -58 -9.5 -113t-31.5 -99q-21 -44 -56.5 -77t-86.5 -50.5t-119 -17.5zM277 88q50 0 83.5 19.5t53.5 55t29 83.5q2 12 3.5 22.5t2.5 19.5t1.5 17.5t0.5 15.5q0 37 -12.5 61t-38.5 36t-68 12q-49 0 -82.5 -19.5t-52.5 -54.5t-28 -84
q-3 -16 -5 -29.5t-2.5 -24.5t-0.5 -21q0 -36 12 -60.5t37.5 -36.5t66.5 -12z" />
    <glyph glyph-name="ntilde" unicode="&#xf1;" horiz-adv-x="584" 
d="M19 0l92 526h100v-71h7q19 23 46.5 42t60 30t66.5 11q43 0 77 -13.5t54.5 -43t20.5 -78.5q0 -18 -2.5 -37.5t-6.5 -41.5l-58 -324h-122l56 315q2 14 4 26.5t2 23.5q0 25 -8.5 39t-24.5 20.5t-37 6.5q-27 0 -52.5 -9.5t-46 -28.5t-35.5 -47t-21 -64l-50 -282h-122z
M189 606q6 31 20 57.5t37.5 43t56.5 16.5q26 0 47.5 -8.5t41.5 -17.5t43 -9q14 0 23.5 7.5t15.5 27.5h69q-6 -31 -20.5 -58t-38 -43t-57.5 -16q-25 0 -46 9t-41 18t-43 9q-13 0 -23.5 -8t-16.5 -28h-68z" />
    <glyph glyph-name="ograve" unicode="&#xf2;" horiz-adv-x="598" 
d="M260 -12q-76 0 -127 21.5t-76.5 66t-25.5 112.5q0 19 2 40t6 43q16 92 54.5 151t99.5 87.5t144 28.5q77 0 128 -21.5t76.5 -66t25.5 -113.5q0 -19 -2 -39t-6 -43q-16 -92 -53.5 -151t-98 -87.5t-147.5 -28.5zM268 88q48 0 80.5 18.5t52.5 56t30 93.5q4 18 5.5 31t2 23
t0.5 19q0 36 -11.5 60.5t-35.5 36.5t-63 12q-48 0 -80 -19t-52 -56t-31 -93q-3 -18 -5 -31.5t-3 -23.5t-1 -19q0 -36 11.5 -60t36.5 -36t63 -12zM310 591l-80 129l1 3h121l56 -132h-98z" />
    <glyph glyph-name="oacute" unicode="&#xf3;" horiz-adv-x="598" 
d="M260 -12q-76 0 -127 21.5t-76.5 66t-25.5 112.5q0 19 2 40t6 43q16 92 54.5 151t99.5 87.5t144 28.5q77 0 128 -21.5t76.5 -66t25.5 -113.5q0 -19 -2 -39t-6 -43q-16 -92 -53.5 -151t-98 -87.5t-147.5 -28.5zM268 88q48 0 80.5 18.5t52.5 56t30 93.5q4 18 5.5 31t2 23
t0.5 19q0 36 -11.5 60.5t-35.5 36.5t-63 12q-48 0 -80 -19t-52 -56t-31 -93q-3 -18 -5 -31.5t-3 -23.5t-1 -19q0 -36 11.5 -60t36.5 -36t63 -12zM296 591l103 132h129v-3l-129 -129h-103z" />
    <glyph glyph-name="ocircumflex" unicode="&#xf4;" horiz-adv-x="598" 
d="M260 -12q-76 0 -127 21.5t-76.5 66t-25.5 112.5q0 19 2 40t6 43q16 92 54.5 151t99.5 87.5t144 28.5q77 0 128 -21.5t76.5 -66t25.5 -113.5q0 -19 -2 -39t-6 -43q-16 -92 -53.5 -151t-98 -87.5t-147.5 -28.5zM268 88q48 0 80.5 18.5t52.5 56t30 93.5q4 18 5.5 31t2 23
t0.5 19q0 36 -11.5 60.5t-35.5 36.5t-63 12q-48 0 -80 -19t-52 -56t-31 -93q-3 -18 -5 -31.5t-3 -23.5t-1 -19q0 -36 11.5 -60t36.5 -36t63 -12zM190 591l130 132h114l81 -132h-103l-65 104h56l-104 -104h-109z" />
    <glyph glyph-name="otilde" unicode="&#xf5;" horiz-adv-x="598" 
d="M260 -12q-76 0 -127 21.5t-76.5 66t-25.5 112.5q0 19 2 40t6 43q16 92 54.5 151t99.5 87.5t144 28.5q77 0 128 -21.5t76.5 -66t25.5 -113.5q0 -19 -2 -39t-6 -43q-16 -92 -53.5 -151t-98 -87.5t-147.5 -28.5zM268 88q48 0 80.5 18.5t52.5 56t30 93.5q4 18 5.5 31t2 23
t0.5 19q0 36 -11.5 60.5t-35.5 36.5t-63 12q-48 0 -80 -19t-52 -56t-31 -93q-3 -18 -5 -31.5t-3 -23.5t-1 -19q0 -36 11.5 -60t36.5 -36t63 -12zM188 606q6 31 20 57.5t37.5 43t56.5 16.5q26 0 47.5 -8.5t41.5 -17.5t43 -9q14 0 23.5 7.5t15.5 27.5h69q-6 -31 -20.5 -58
t-38 -43t-57.5 -16q-25 0 -46 9t-41 18t-43 9q-13 0 -23.5 -8t-16.5 -28h-68z" />
    <glyph glyph-name="odieresis" unicode="&#xf6;" horiz-adv-x="598" 
d="M260 -12q-76 0 -127 21.5t-76.5 66t-25.5 112.5q0 19 2 40t6 43q16 92 54.5 151t99.5 87.5t144 28.5q77 0 128 -21.5t76.5 -66t25.5 -113.5q0 -19 -2 -39t-6 -43q-16 -92 -53.5 -151t-98 -87.5t-147.5 -28.5zM268 88q48 0 80.5 18.5t52.5 56t30 93.5q4 18 5.5 31t2 23
t0.5 19q0 36 -11.5 60.5t-35.5 36.5t-63 12q-48 0 -80 -19t-52 -56t-31 -93q-3 -18 -5 -31.5t-3 -23.5t-1 -19q0 -36 11.5 -60t36.5 -36t63 -12zM205 612l19 111h108l-19 -111h-108zM408 612l19 111h109l-19 -111h-109z" />
    <glyph glyph-name="divide" unicode="&#xf7;" horiz-adv-x="636" 
d="M72 206l17 98h473l-18 -98h-472zM214 0l19 107h114l-19 -107h-114zM285 404l20 107h114l-20 -107h-114z" />
    <glyph glyph-name="oslash" unicode="&#xf8;" horiz-adv-x="598" 
d="M260 -12q-76 0 -127 21.5t-76.5 66t-25.5 112.5q0 19 2 40t6 43q16 92 54.5 151t99.5 87.5t144 28.5q77 0 128 -21.5t76.5 -66t25.5 -113.5q0 -19 -2 -39t-6 -43q-16 -92 -53.5 -151t-98 -87.5t-147.5 -28.5zM268 88q48 0 80.5 18.5t52.5 56t30 93.5q4 18 5.5 31t2 23
t0.5 19q0 36 -11.5 60.5t-35.5 36.5t-63 12q-48 0 -80 -19t-52 -56t-31 -93q-3 -18 -5 -31.5t-3 -23.5t-1 -19q0 -36 11.5 -60t36.5 -36t63 -12zM-16 -49l550 624h81l-549 -624h-82z" />
    <glyph glyph-name="ugrave" unicode="&#xf9;" horiz-adv-x="583" 
d="M191 -12q-42 0 -77 13.5t-55.5 43t-20.5 78.5q0 18 3 37.5t7 41.5l57 324h123l-56 -316q-2 -14 -4 -26t-2 -23q0 -25 9 -39.5t25 -20.5t37 -6q27 0 52 9.5t45.5 28.5t35.5 47t21 64l50 282h123l-93 -526h-100v71h-7q-19 -23 -46.5 -42t-59.5 -30t-67 -11zM299 591
l-80 129l1 3h121l56 -132h-98z" />
    <glyph glyph-name="uacute" unicode="&#xfa;" horiz-adv-x="583" 
d="M191 -12q-42 0 -77 13.5t-55.5 43t-20.5 78.5q0 18 3 37.5t7 41.5l57 324h123l-56 -316q-2 -14 -4 -26t-2 -23q0 -25 9 -39.5t25 -20.5t37 -6q27 0 52 9.5t45.5 28.5t35.5 47t21 64l50 282h123l-93 -526h-100v71h-7q-19 -23 -46.5 -42t-59.5 -30t-67 -11zM285 591
l103 132h129v-3l-129 -129h-103z" />
    <glyph glyph-name="ucircumflex" unicode="&#xfb;" horiz-adv-x="583" 
d="M191 -12q-42 0 -77 13.5t-55.5 43t-20.5 78.5q0 18 3 37.5t7 41.5l57 324h123l-56 -316q-2 -14 -4 -26t-2 -23q0 -25 9 -39.5t25 -20.5t37 -6q27 0 52 9.5t45.5 28.5t35.5 47t21 64l50 282h123l-93 -526h-100v71h-7q-19 -23 -46.5 -42t-59.5 -30t-67 -11zM179 591
l130 132h114l81 -132h-103l-65 104h56l-104 -104h-109z" />
    <glyph glyph-name="udieresis" unicode="&#xfc;" horiz-adv-x="583" 
d="M191 -12q-42 0 -77 13.5t-55.5 43t-20.5 78.5q0 18 3 37.5t7 41.5l57 324h123l-56 -316q-2 -14 -4 -26t-2 -23q0 -25 9 -39.5t25 -20.5t37 -6q27 0 52 9.5t45.5 28.5t35.5 47t21 64l50 282h123l-93 -526h-100v71h-7q-19 -23 -46.5 -42t-59.5 -30t-67 -11zM194 612l19 111
h108l-19 -111h-108zM397 612l19 111h109l-19 -111h-109z" />
    <glyph glyph-name="yacute" unicode="&#xfd;" horiz-adv-x="529" 
d="M61 -182q-40 0 -61 5.5t-25 6.5l15 88h55q23 0 45 8.5t41 26.5t33 47l-112 526h122l51 -240q5 -22 10 -51.5t9 -57.5t6 -49h5q6 15 14 34t16.5 39t17 39t15.5 33l125 253h128l-260 -499q-22 -43 -47.5 -80.5t-55.5 -66.5t-66.5 -45.5t-80.5 -16.5zM258 591l103 132h129
v-3l-129 -129h-103z" />
    <glyph glyph-name="thorn" unicode="&#xfe;" horiz-adv-x="592" 
d="M-12 -173l158 896h122l-45 -258h6q20 25 44 41t53.5 24t63.5 8q52 0 90.5 -22t60 -65t21.5 -107q0 -19 -2 -41t-7 -47q-16 -93 -50.5 -152t-84.5 -87.5t-112 -28.5q-35 0 -62.5 8.5t-49 24.5t-37.5 39h-6l-41 -233h-122zM276 93q45 0 74 17.5t47 54t29 92.5
q4 19 5.5 32.5t2.5 24.5t1 20q0 34 -10 55.5t-32 32.5t-57 11q-38 0 -68 -19t-50 -55.5t-30 -89.5q-3 -16 -4.5 -29t-2 -22.5t-0.5 -18.5q0 -34 10 -58t31 -36t54 -12z" />
    <glyph glyph-name="ydieresis" unicode="&#xff;" horiz-adv-x="529" 
d="M61 -182q-40 0 -61 5.5t-25 6.5l15 88h55q23 0 45 8.5t41 26.5t33 47l-112 526h122l51 -240q5 -22 10 -51.5t9 -57.5t6 -49h5q6 15 14 34t16.5 39t17 39t15.5 33l125 253h128l-260 -499q-22 -43 -47.5 -80.5t-55.5 -66.5t-66.5 -45.5t-80.5 -16.5zM167 612l19 111h108
l-19 -111h-108zM370 612l19 111h109l-19 -111h-109z" />
    <glyph glyph-name="Amacron" unicode="&#x100;" horiz-adv-x="709" 
d="M-40 0l386 686h164l147 -686h-133l-30 146h-317l-80 -146h-137zM239 256h231l-36 182q-3 18 -6.5 36.5l-7 37t-5.5 34t-4 27.5h-5q-10 -20 -23 -46.5t-25.5 -51t-21.5 -40.5zM297 757l14 83h305l-14 -83h-305z" />
    <glyph glyph-name="amacron" unicode="&#x101;" horiz-adv-x="587" 
d="M192 -12q-51 0 -90 22t-60.5 65t-21.5 107q0 20 2.5 41.5t6.5 46.5q16 93 50.5 152.5t84.5 87.5t112 28q34 0 62.5 -8t50.5 -24t35 -41h7l31 61h102l-24 -130q-7 -41 -14.5 -80.5t-13.5 -74t-11 -61.5t-7.5 -44t-2.5 -21q0 -14 8 -20.5t21 -6.5h33l-14 -84
q-10 -5 -29 -10.5t-45 -5.5t-45.5 10t-30.5 30q-4 9 -7 20.5t-3 24.5h-7q-33 -43 -78.5 -64t-101.5 -21zM246 93q27 0 51 11t43 32t33 51.5t21 69.5q3 17 4.5 29.5t2 22.5t0.5 18q0 35 -10 58.5t-31 35.5t-54 12q-44 0 -73.5 -17.5t-47.5 -54t-29 -92.5q-3 -18 -5 -32
t-3 -25t-1 -20q0 -50 23.5 -74.5t75.5 -24.5zM185 617l14 83h304l-14 -83h-304z" />
    <glyph glyph-name="Abreve" unicode="&#x102;" horiz-adv-x="709" 
d="M-40 0l386 686h164l147 -686h-133l-30 146h-317l-80 -146h-137zM239 256h231l-36 182q-3 18 -6.5 36.5l-7 37t-5.5 34t-4 27.5h-5q-10 -20 -23 -46.5t-25.5 -51t-21.5 -40.5zM447 737q-50 0 -80 15.5t-43 40.5t-13 53q0 5 0.5 11t1.5 11h81q0 -3 0.5 -6.5t1.5 -6.5
q3 -9 10.5 -17.5t20.5 -14t34 -5.5q26 0 44 8t28 20t12 22h82q-5 -31 -26 -61t-58.5 -50t-95.5 -20z" />
    <glyph glyph-name="abreve" unicode="&#x103;" horiz-adv-x="587" 
d="M192 -12q-51 0 -90 22t-60.5 65t-21.5 107q0 20 2.5 41.5t6.5 46.5q16 93 50.5 152.5t84.5 87.5t112 28q34 0 62.5 -8t50.5 -24t35 -41h7l31 61h102l-24 -130q-7 -41 -14.5 -80.5t-13.5 -74t-11 -61.5t-7.5 -44t-2.5 -21q0 -14 8 -20.5t21 -6.5h33l-14 -84
q-10 -5 -29 -10.5t-45 -5.5t-45.5 10t-30.5 30q-4 9 -7 20.5t-3 24.5h-7q-33 -43 -78.5 -64t-101.5 -21zM246 93q27 0 51 11t43 32t33 51.5t21 69.5q3 17 4.5 29.5t2 22.5t0.5 18q0 35 -10 58.5t-31 35.5t-54 12q-44 0 -73.5 -17.5t-47.5 -54t-29 -92.5q-3 -18 -5 -32
t-3 -25t-1 -20q0 -50 23.5 -74.5t75.5 -24.5zM336 592q-52 0 -83 15.5t-44.5 40.5t-13.5 52q0 6 0.5 11.5t1.5 11.5h81q0 -16 9 -27.5t24.5 -17t33.5 -5.5q26 0 43.5 8t27.5 20t13 22h82q-5 -31 -25.5 -61t-57 -50t-92.5 -20z" />
    <glyph glyph-name="Aogonek" unicode="&#x104;" horiz-adv-x="709" 
d="M-40 0l386 686h164l147 -686h-133l-30 146h-317l-80 -146h-137zM239 256h231l-36 182q-3 18 -6.5 36.5l-7 37t-5.5 34t-4 27.5h-5q-10 -20 -23 -46.5t-25.5 -51t-21.5 -40.5zM554 -182q-22 0 -43.5 6.5t-35 22t-13.5 42.5q0 29 11.5 51.5t29 40t33.5 31.5h78l-1 -4
q-15 -13 -31 -35.5t-16 -47.5q0 -16 9.5 -27.5t31.5 -11.5h39l-9 -54q-19 -7 -42.5 -10.5t-40.5 -3.5z" />
    <glyph glyph-name="aogonek" unicode="&#x105;" horiz-adv-x="587" 
d="M192 -12q-51 0 -90 22t-60.5 65t-21.5 107q0 20 2.5 41.5t6.5 46.5q16 93 50.5 152.5t84.5 87.5t112 28q34 0 62.5 -8t50.5 -24t35 -41h7l31 61h102l-24 -130q-7 -41 -14.5 -80.5t-13.5 -74t-11 -61.5t-7.5 -44t-2.5 -21q0 -14 8 -20.5t21 -6.5h33l-14 -84
q-10 -5 -29 -10.5t-45 -5.5t-45.5 10t-30.5 30q-4 9 -7 20.5t-3 24.5h-7q-33 -43 -78.5 -64t-101.5 -21zM246 93q27 0 51 11t43 32t33 51.5t21 69.5q3 17 4.5 29.5t2 22.5t0.5 18q0 35 -10 58.5t-31 35.5t-54 12q-44 0 -73.5 -17.5t-47.5 -54t-29 -92.5q-3 -18 -5 -32
t-3 -25t-1 -20q0 -50 23.5 -74.5t75.5 -24.5zM431 -182q-22 0 -43.5 6.5t-35 22t-13.5 42.5q0 29 11.5 51.5t29 40t33.5 31.5h78l-1 -4q-15 -13 -31 -35.5t-16 -47.5q0 -16 9.5 -27.5t31.5 -11.5h39l-9 -54q-19 -7 -42.5 -10.5t-40.5 -3.5z" />
    <glyph glyph-name="Cacute" unicode="&#x106;" horiz-adv-x="721" 
d="M341 -12q-139 0 -214.5 63.5t-75.5 202.5q0 28 2.5 55t6.5 53q19 104 69 179.5t129.5 116t184.5 40.5q80 0 142 -23t97.5 -69.5t35.5 -117.5q0 -13 -1.5 -27t-3.5 -28h-134q2 9 2.5 17.5t0.5 15.5q0 41 -17.5 68t-49 40t-74.5 13q-51 0 -91.5 -15.5t-71 -44.5t-50.5 -70
t-30 -92q-4 -19 -6.5 -34t-4 -27.5t-2 -23t-0.5 -21.5q0 -54 17 -89.5t52.5 -53t88.5 -17.5q55 0 98.5 17.5t72.5 51.5t38 84h129q-15 -90 -64 -148.5t-120.5 -87t-155.5 -28.5zM404 736l105 132h132v-3l-131 -129h-106z" />
    <glyph glyph-name="cacute" unicode="&#x107;" horiz-adv-x="547" 
d="M260 -12q-76 0 -126.5 21.5t-75 66.5t-24.5 113q0 30 3 60t10 58q11 48 32 89.5t53 73.5t76.5 50t102.5 18q68 0 115.5 -19t72.5 -55.5t25 -89.5q0 -11 -1 -22.5t-3 -22.5h-123q1 7 1.5 13.5t0.5 13.5q0 25 -8.5 43.5t-27.5 29t-49 10.5q-43 0 -72 -20.5t-46.5 -57.5
t-27.5 -86q-3 -17 -5 -31t-3 -25.5t-1 -21.5q0 -37 10.5 -61.5t32.5 -36t55 -11.5q36 0 61 13.5t40.5 38.5t21.5 57h117q-10 -66 -40.5 -113t-79.5 -71.5t-117 -24.5zM280 591l103 132h129v-3l-129 -129h-103z" />
    <glyph glyph-name="Ccircumflex" unicode="&#x108;" horiz-adv-x="721" 
d="M341 -12q-139 0 -214.5 63.5t-75.5 202.5q0 28 2.5 55t6.5 53q19 104 69 179.5t129.5 116t184.5 40.5q80 0 142 -23t97.5 -69.5t35.5 -117.5q0 -13 -1.5 -27t-3.5 -28h-134q2 9 2.5 17.5t0.5 15.5q0 41 -17.5 68t-49 40t-74.5 13q-51 0 -91.5 -15.5t-71 -44.5t-50.5 -70
t-30 -92q-4 -19 -6.5 -34t-4 -27.5t-2 -23t-0.5 -21.5q0 -54 17 -89.5t52.5 -53t88.5 -17.5q55 0 98.5 17.5t72.5 51.5t38 84h129q-15 -90 -64 -148.5t-120.5 -87t-155.5 -28.5zM292 736l130 132h122l81 -132h-106l-65 105l56 -1l-105 -104h-113z" />
    <glyph glyph-name="ccircumflex" unicode="&#x109;" horiz-adv-x="547" 
d="M260 -12q-76 0 -126.5 21.5t-75 66.5t-24.5 113q0 30 3 60t10 58q11 48 32 89.5t53 73.5t76.5 50t102.5 18q68 0 115.5 -19t72.5 -55.5t25 -89.5q0 -11 -1 -22.5t-3 -22.5h-123q1 7 1.5 13.5t0.5 13.5q0 25 -8.5 43.5t-27.5 29t-49 10.5q-43 0 -72 -20.5t-46.5 -57.5
t-27.5 -86q-3 -17 -5 -31t-3 -25.5t-1 -21.5q0 -37 10.5 -61.5t32.5 -36t55 -11.5q36 0 61 13.5t40.5 38.5t21.5 57h117q-10 -66 -40.5 -113t-79.5 -71.5t-117 -24.5zM174 591l130 132h114l81 -132h-103l-65 104h56l-104 -104h-109z" />
    <glyph glyph-name="Cdotaccent" unicode="&#x10a;" horiz-adv-x="721" 
d="M341 -12q-139 0 -214.5 63.5t-75.5 202.5q0 28 2.5 55t6.5 53q19 104 69 179.5t129.5 116t184.5 40.5q80 0 142 -23t97.5 -69.5t35.5 -117.5q0 -13 -1.5 -27t-3.5 -28h-134q2 9 2.5 17.5t0.5 15.5q0 41 -17.5 68t-49 40t-74.5 13q-51 0 -91.5 -15.5t-71 -44.5t-50.5 -70
t-30 -92q-4 -19 -6.5 -34t-4 -27.5t-2 -23t-0.5 -21.5q0 -54 17 -89.5t52.5 -53t88.5 -17.5q55 0 98.5 17.5t72.5 51.5t38 84h129q-15 -90 -64 -148.5t-120.5 -87t-155.5 -28.5zM404 757l22 120h120l-22 -120h-120z" />
    <glyph glyph-name="cdotaccent" unicode="&#x10b;" horiz-adv-x="547" 
d="M260 -12q-76 0 -126.5 21.5t-75 66.5t-24.5 113q0 30 3 60t10 58q11 48 32 89.5t53 73.5t76.5 50t102.5 18q68 0 115.5 -19t72.5 -55.5t25 -89.5q0 -11 -1 -22.5t-3 -22.5h-123q1 7 1.5 13.5t0.5 13.5q0 25 -8.5 43.5t-27.5 29t-49 10.5q-43 0 -72 -20.5t-46.5 -57.5
t-27.5 -86q-3 -17 -5 -31t-3 -25.5t-1 -21.5q0 -37 10.5 -61.5t32.5 -36t55 -11.5q36 0 61 13.5t40.5 38.5t21.5 57h117q-10 -66 -40.5 -113t-79.5 -71.5t-117 -24.5zM283 604l19 116h121l-20 -116h-120z" />
    <glyph glyph-name="Ccaron" unicode="&#x10c;" horiz-adv-x="721" 
d="M341 -12q-139 0 -214.5 63.5t-75.5 202.5q0 28 2.5 55t6.5 53q19 104 69 179.5t129.5 116t184.5 40.5q80 0 142 -23t97.5 -69.5t35.5 -117.5q0 -13 -1.5 -27t-3.5 -28h-134q2 9 2.5 17.5t0.5 15.5q0 41 -17.5 68t-49 40t-74.5 13q-51 0 -91.5 -15.5t-71 -44.5t-50.5 -70
t-30 -92q-4 -19 -6.5 -34t-4 -27.5t-2 -23t-0.5 -21.5q0 -54 17 -89.5t52.5 -53t88.5 -17.5q55 0 98.5 17.5t72.5 51.5t38 84h129q-15 -90 -64 -148.5t-120.5 -87t-155.5 -28.5zM663 868l-130 -132h-122l-81 132h106l65 -105l-56 1l105 104h113z" />
    <glyph glyph-name="ccaron" unicode="&#x10d;" horiz-adv-x="547" 
d="M260 -12q-76 0 -126.5 21.5t-75 66.5t-24.5 113q0 30 3 60t10 58q11 48 32 89.5t53 73.5t76.5 50t102.5 18q68 0 115.5 -19t72.5 -55.5t25 -89.5q0 -11 -1 -22.5t-3 -22.5h-123q1 7 1.5 13.5t0.5 13.5q0 25 -8.5 43.5t-27.5 29t-49 10.5q-43 0 -72 -20.5t-46.5 -57.5
t-27.5 -86q-3 -17 -5 -31t-3 -25.5t-1 -21.5q0 -37 10.5 -61.5t32.5 -36t55 -11.5q36 0 61 13.5t40.5 38.5t21.5 57h117q-10 -66 -40.5 -113t-79.5 -71.5t-117 -24.5zM528 723l-130 -132h-114l-81 132h103l65 -104h-56l104 104h109z" />
    <glyph glyph-name="Dcaron" unicode="&#x10e;" horiz-adv-x="728" 
d="M30 0l121 686h259q140 0 217.5 -65.5t77.5 -205.5q0 -25 -2 -49t-6 -47q-17 -99 -67.5 -170.5t-128.5 -110t-179 -38.5h-292zM180 111h136q49 0 90 14.5t72.5 41.5t52 67t29.5 91q4 20 6 35.5t3 28t1 23.5q0 55 -19 91t-56 54t-91 18h-143zM667 868l-130 -132h-122
l-81 132h106l65 -105l-56 1l105 104h113z" />
    <glyph glyph-name="dcaron" unicode="&#x10f;" horiz-adv-x="592" 
d="M210 -12q-55 0 -95 24t-61.5 67.5t-21.5 102.5q0 20 2 42.5t6 47.5q12 69 35.5 119t55 82.5t69.5 48.5t80 16q39 0 69 -8t52 -24t34 -41h6l45 258h122l-127 -723h-99v70h-7q-31 -41 -74 -61.5t-91 -20.5zM256 93q42 0 71.5 19t48.5 55.5t28 89.5q3 17 4.5 29.5t2.5 22.5
t1 19q0 34 -10 57.5t-31.5 35.5t-54.5 12q-44 0 -73 -17t-47 -52t-28 -89q-3 -20 -5.5 -35t-3.5 -26.5t-1 -21.5q0 -50 23.5 -74.5t74.5 -24.5zM618 555l29 168h110l-60 -168h-79z" />
    <glyph glyph-name="Dcroat" unicode="&#x110;" horiz-adv-x="728" 
d="M6 298l18 100h372l-18 -100h-372zM30 0l121 686h259q140 0 217.5 -65.5t77.5 -205.5q0 -25 -2 -49t-6 -47q-17 -99 -67.5 -170.5t-128.5 -110t-179 -38.5h-292zM180 111h136q49 0 90 14.5t72.5 41.5t52 67t29.5 91q4 20 6 35.5t3 28t1 23.5q0 55 -19 91t-56 54t-91 18
h-143z" />
    <glyph glyph-name="dcroat" unicode="&#x111;" horiz-adv-x="592" 
d="M210 -12q-55 0 -95 24t-61.5 67.5t-21.5 102.5q0 20 2 42.5t6 47.5q12 69 35.5 119t55 82.5t69.5 48.5t80 16q39 0 69 -8t52 -24t34 -41h6l45 258h122l-127 -723h-99v70h-7q-31 -41 -74 -61.5t-91 -20.5zM256 93q42 0 71.5 19t48.5 55.5t28 89.5q3 17 4.5 29.5t2.5 22.5
t1 19q0 34 -10 57.5t-31.5 35.5t-54.5 12q-44 0 -73 -17t-47 -52t-28 -89q-3 -20 -5.5 -35t-3.5 -26.5t-1 -21.5q0 -50 23.5 -74.5t74.5 -24.5zM313 579l16 81h334l-16 -81h-334z" />
    <glyph glyph-name="Emacron" unicode="&#x112;" horiz-adv-x="672" 
d="M30 0l121 686h536l-20 -111h-405l-30 -169h362l-19 -111h-363l-32 -184h412l-20 -111h-542zM281 757l14 83h305l-14 -83h-305z" />
    <glyph glyph-name="emacron" unicode="&#x113;" horiz-adv-x="561" 
d="M268 -12q-78 0 -130.5 21.5t-78.5 66.5t-26 113q0 28 3 56t8 54q14 67 46.5 121t87.5 86t139 32q71 0 118.5 -21t71.5 -63.5t24 -107.5q0 -23 -3.5 -53.5t-11.5 -59.5h-356q-2 -12 -3 -22.5t-1 -20.5q0 -35 11.5 -58.5t35.5 -34.5t62 -11q24 0 44.5 5.5t36.5 17.5
t27 30.5t15 44.5h120q-8 -50 -29 -87t-53 -61t-72 -36t-86 -12zM176 319h229q2 10 2.5 19t0.5 16q0 31 -10.5 50t-30.5 28t-47 9q-38 0 -66 -14t-47 -41t-31 -67zM182 617l14 83h304l-14 -83h-304z" />
    <glyph glyph-name="Ebreve" unicode="&#x114;" horiz-adv-x="672" 
d="M30 0l121 686h536l-20 -111h-405l-30 -169h362l-19 -111h-363l-32 -184h412l-20 -111h-542zM431 737q-50 0 -80 15.5t-43 40.5t-13 53q0 5 0.5 11t1.5 11h81q0 -3 0.5 -6.5t1.5 -6.5q3 -9 10.5 -17.5t20.5 -14t34 -5.5q26 0 44 8t28 20t12 22h82q-5 -31 -26 -61
t-58.5 -50t-95.5 -20z" />
    <glyph glyph-name="ebreve" unicode="&#x115;" horiz-adv-x="561" 
d="M268 -12q-78 0 -130.5 21.5t-78.5 66.5t-26 113q0 28 3 56t8 54q14 67 46.5 121t87.5 86t139 32q71 0 118.5 -21t71.5 -63.5t24 -107.5q0 -23 -3.5 -53.5t-11.5 -59.5h-356q-2 -12 -3 -22.5t-1 -20.5q0 -35 11.5 -58.5t35.5 -34.5t62 -11q24 0 44.5 5.5t36.5 17.5
t27 30.5t15 44.5h120q-8 -50 -29 -87t-53 -61t-72 -36t-86 -12zM176 319h229q2 10 2.5 19t0.5 16q0 31 -10.5 50t-30.5 28t-47 9q-38 0 -66 -14t-47 -41t-31 -67zM333 592q-52 0 -83 15.5t-44.5 40.5t-13.5 52q0 6 0.5 11.5t1.5 11.5h81q0 -16 9 -27.5t24.5 -17t33.5 -5.5
q26 0 43.5 8t27.5 20t13 22h82q-5 -31 -25.5 -61t-57 -50t-92.5 -20z" />
    <glyph glyph-name="Edotaccent" unicode="&#x116;" horiz-adv-x="672" 
d="M30 0l121 686h536l-20 -111h-405l-30 -169h362l-19 -111h-363l-32 -184h412l-20 -111h-542zM372 757l22 120h120l-22 -120h-120z" />
    <glyph glyph-name="edotaccent" unicode="&#x117;" horiz-adv-x="561" 
d="M268 -12q-78 0 -130.5 21.5t-78.5 66.5t-26 113q0 28 3 56t8 54q14 67 46.5 121t87.5 86t139 32q71 0 118.5 -21t71.5 -63.5t24 -107.5q0 -23 -3.5 -53.5t-11.5 -59.5h-356q-2 -12 -3 -22.5t-1 -20.5q0 -35 11.5 -58.5t35.5 -34.5t62 -11q24 0 44.5 5.5t36.5 17.5
t27 30.5t15 44.5h120q-8 -50 -29 -87t-53 -61t-72 -36t-86 -12zM176 319h229q2 10 2.5 19t0.5 16q0 31 -10.5 50t-30.5 28t-47 9q-38 0 -66 -14t-47 -41t-31 -67zM272 604l19 116h121l-20 -116h-120z" />
    <glyph glyph-name="Eogonek" unicode="&#x118;" horiz-adv-x="672" 
d="M30 0l121 686h536l-20 -111h-405l-30 -169h362l-19 -111h-363l-32 -184h412l-20 -111h-542zM459 -182q-22 0 -43.5 6.5t-35 22t-13.5 42.5q0 29 11.5 51.5t29 40t33.5 31.5h78l-1 -4q-15 -13 -31 -35.5t-16 -47.5q0 -16 9.5 -27.5t31.5 -11.5h39l-9 -54
q-19 -7 -42.5 -10.5t-40.5 -3.5z" />
    <glyph glyph-name="eogonek" unicode="&#x119;" horiz-adv-x="561" 
d="M268 -12q-78 0 -130.5 21.5t-78.5 66.5t-26 113q0 28 3 56t8 54q14 67 46.5 121t87.5 86t139 32q71 0 118.5 -21t71.5 -63.5t24 -107.5q0 -23 -3.5 -53.5t-11.5 -59.5h-356q-2 -12 -3 -22.5t-1 -20.5q0 -35 11.5 -58.5t35.5 -34.5t62 -11q24 0 44.5 5.5t36.5 17.5
t27 30.5t15 44.5h120q-8 -50 -29 -87t-53 -61t-72 -36t-86 -12zM176 319h229q2 10 2.5 19t0.5 16q0 31 -10.5 50t-30.5 28t-47 9q-38 0 -66 -14t-47 -41t-31 -67zM316 -182q-22 0 -43.5 6.5t-35 22t-13.5 42.5q0 29 11.5 51.5t29 40t33.5 31.5h78l-1 -4q-15 -13 -31 -35.5
t-16 -47.5q0 -16 9.5 -27.5t31.5 -11.5h39l-9 -54q-19 -7 -42.5 -10.5t-40.5 -3.5z" />
    <glyph glyph-name="Ecaron" unicode="&#x11a;" horiz-adv-x="672" 
d="M30 0l121 686h536l-20 -111h-405l-30 -169h362l-19 -111h-363l-32 -184h412l-20 -111h-542zM631 868l-130 -132h-122l-81 132h106l65 -105l-56 1l105 104h113z" />
    <glyph glyph-name="ecaron" unicode="&#x11b;" horiz-adv-x="561" 
d="M268 -12q-78 0 -130.5 21.5t-78.5 66.5t-26 113q0 28 3 56t8 54q14 67 46.5 121t87.5 86t139 32q71 0 118.5 -21t71.5 -63.5t24 -107.5q0 -23 -3.5 -53.5t-11.5 -59.5h-356q-2 -12 -3 -22.5t-1 -20.5q0 -35 11.5 -58.5t35.5 -34.5t62 -11q24 0 44.5 5.5t36.5 17.5
t27 30.5t15 44.5h120q-8 -50 -29 -87t-53 -61t-72 -36t-86 -12zM176 319h229q2 10 2.5 19t0.5 16q0 31 -10.5 50t-30.5 28t-47 9q-38 0 -66 -14t-47 -41t-31 -67zM517 723l-130 -132h-114l-81 132h103l65 -104h-56l104 104h109z" />
    <glyph glyph-name="Gcircumflex" unicode="&#x11c;" horiz-adv-x="794" 
d="M339 -12q-137 0 -212.5 65.5t-75.5 202.5q0 27 2.5 53.5t6.5 51.5q19 106 72.5 181.5t137 115.5t190.5 40q62 0 115.5 -12.5t94 -37.5t63 -63t22.5 -89q0 -10 -1 -21t-3 -23h-134q1 6 1 11.5v10.5q0 28 -11.5 49t-32.5 35.5t-49 22t-61 7.5q-55 0 -100 -15t-78.5 -43.5
t-55.5 -69.5t-32 -94q-3 -19 -5.5 -34t-4 -27.5t-2.5 -23t-1 -21.5q0 -55 18.5 -91t55 -53.5t90.5 -17.5q62 0 113 19.5t84 54.5t39 81l1 7h-218l20 108h348l-65 -368h-92v78q-33 -29 -69.5 -49.5t-78 -30.5t-92.5 -10zM302 736l130 132h122l81 -132h-106l-65 105l56 -1
l-105 -104h-113z" />
    <glyph glyph-name="gcircumflex" unicode="&#x11d;" horiz-adv-x="591" 
d="M206 -182q-57 0 -101.5 14t-69.5 40.5t-25 65.5q0 7 0.5 15.5t3.5 21.5h118q-1 -4 -1 -6v-4q0 -17 11.5 -27.5t31 -15t42.5 -4.5q44 0 75 16t50 47.5t27 77.5q2 9 3 17t2 12h-6q-19 -24 -43.5 -40.5t-54 -24.5t-63.5 -8q-52 0 -91 20.5t-60.5 63t-21.5 107.5
q0 17 1.5 36.5t5.5 41.5q23 132 87.5 193t157.5 61q55 0 96 -20.5t61 -61.5h7l22 70h101l-81 -460q-16 -90 -51 -144.5t-92.5 -79t-141.5 -24.5zM259 120q29 0 53.5 10t43 29.5t31 47.5t18.5 64q3 16 4.5 27t2 20t0.5 17q0 32 -10.5 54t-31.5 33t-55 11q-40 0 -70.5 -16
t-50 -49t-27.5 -85q-3 -17 -5 -30t-2.5 -22t-0.5 -18q0 -31 10 -51.5t32.5 -31t57.5 -10.5zM179 591l130 132h114l81 -132h-103l-65 104h56l-104 -104h-109z" />
    <glyph glyph-name="Gbreve" unicode="&#x11e;" horiz-adv-x="794" 
d="M339 -12q-137 0 -212.5 65.5t-75.5 202.5q0 27 2.5 53.5t6.5 51.5q19 106 72.5 181.5t137 115.5t190.5 40q62 0 115.5 -12.5t94 -37.5t63 -63t22.5 -89q0 -10 -1 -21t-3 -23h-134q1 6 1 11.5v10.5q0 28 -11.5 49t-32.5 35.5t-49 22t-61 7.5q-55 0 -100 -15t-78.5 -43.5
t-55.5 -69.5t-32 -94q-3 -19 -5.5 -34t-4 -27.5t-2.5 -23t-1 -21.5q0 -55 18.5 -91t55 -53.5t90.5 -17.5q62 0 113 19.5t84 54.5t39 81l1 7h-218l20 108h348l-65 -368h-92v78q-33 -29 -69.5 -49.5t-78 -30.5t-92.5 -10zM473 737q-50 0 -80 15.5t-43 40.5t-13 53q0 5 0.5 11
t1.5 11h81q0 -3 0.5 -6.5t1.5 -6.5q3 -9 10.5 -17.5t20.5 -14t34 -5.5q26 0 44 8t28 20t12 22h82q-5 -31 -26 -61t-58.5 -50t-95.5 -20z" />
    <glyph glyph-name="gbreve" unicode="&#x11f;" horiz-adv-x="591" 
d="M206 -182q-57 0 -101.5 14t-69.5 40.5t-25 65.5q0 7 0.5 15.5t3.5 21.5h118q-1 -4 -1 -6v-4q0 -17 11.5 -27.5t31 -15t42.5 -4.5q44 0 75 16t50 47.5t27 77.5q2 9 3 17t2 12h-6q-19 -24 -43.5 -40.5t-54 -24.5t-63.5 -8q-52 0 -91 20.5t-60.5 63t-21.5 107.5
q0 17 1.5 36.5t5.5 41.5q23 132 87.5 193t157.5 61q55 0 96 -20.5t61 -61.5h7l22 70h101l-81 -460q-16 -90 -51 -144.5t-92.5 -79t-141.5 -24.5zM259 120q29 0 53.5 10t43 29.5t31 47.5t18.5 64q3 16 4.5 27t2 20t0.5 17q0 32 -10.5 54t-31.5 33t-55 11q-40 0 -70.5 -16
t-50 -49t-27.5 -85q-3 -17 -5 -30t-2.5 -22t-0.5 -18q0 -31 10 -51.5t32.5 -31t57.5 -10.5zM349 592q-52 0 -83 15.5t-44.5 40.5t-13.5 52q0 6 0.5 11.5t1.5 11.5h81q0 -16 9 -27.5t24.5 -17t33.5 -5.5q26 0 43.5 8t27.5 20t13 22h82q-5 -31 -25.5 -61t-57 -50t-92.5 -20z
" />
    <glyph glyph-name="Gdotaccent" unicode="&#x120;" horiz-adv-x="794" 
d="M339 -12q-137 0 -212.5 65.5t-75.5 202.5q0 27 2.5 53.5t6.5 51.5q19 106 72.5 181.5t137 115.5t190.5 40q62 0 115.5 -12.5t94 -37.5t63 -63t22.5 -89q0 -10 -1 -21t-3 -23h-134q1 6 1 11.5v10.5q0 28 -11.5 49t-32.5 35.5t-49 22t-61 7.5q-55 0 -100 -15t-78.5 -43.5
t-55.5 -69.5t-32 -94q-3 -19 -5.5 -34t-4 -27.5t-2.5 -23t-1 -21.5q0 -55 18.5 -91t55 -53.5t90.5 -17.5q62 0 113 19.5t84 54.5t39 81l1 7h-218l20 108h348l-65 -368h-92v78q-33 -29 -69.5 -49.5t-78 -30.5t-92.5 -10zM414 757l22 120h120l-22 -120h-120z" />
    <glyph glyph-name="gdotaccent" unicode="&#x121;" horiz-adv-x="591" 
d="M206 -182q-57 0 -101.5 14t-69.5 40.5t-25 65.5q0 7 0.5 15.5t3.5 21.5h118q-1 -4 -1 -6v-4q0 -17 11.5 -27.5t31 -15t42.5 -4.5q44 0 75 16t50 47.5t27 77.5q2 9 3 17t2 12h-6q-19 -24 -43.5 -40.5t-54 -24.5t-63.5 -8q-52 0 -91 20.5t-60.5 63t-21.5 107.5
q0 17 1.5 36.5t5.5 41.5q23 132 87.5 193t157.5 61q55 0 96 -20.5t61 -61.5h7l22 70h101l-81 -460q-16 -90 -51 -144.5t-92.5 -79t-141.5 -24.5zM259 120q29 0 53.5 10t43 29.5t31 47.5t18.5 64q3 16 4.5 27t2 20t0.5 17q0 32 -10.5 54t-31.5 33t-55 11q-40 0 -70.5 -16
t-50 -49t-27.5 -85q-3 -17 -5 -30t-2.5 -22t-0.5 -18q0 -31 10 -51.5t32.5 -31t57.5 -10.5zM288 604l19 116h121l-20 -116h-120z" />
    <glyph glyph-name="uni0122" unicode="&#x122;" horiz-adv-x="794" 
d="M339 -12q-137 0 -212.5 65.5t-75.5 202.5q0 27 2.5 53.5t6.5 51.5q19 106 72.5 181.5t137 115.5t190.5 40q62 0 115.5 -12.5t94 -37.5t63 -63t22.5 -89q0 -10 -1 -21t-3 -23h-134q1 6 1 11.5v10.5q0 28 -11.5 49t-32.5 35.5t-49 22t-61 7.5q-55 0 -100 -15t-78.5 -43.5
t-55.5 -69.5t-32 -94q-3 -19 -5.5 -34t-4 -27.5t-2.5 -23t-1 -21.5q0 -55 18.5 -91t55 -53.5t90.5 -17.5q62 0 113 19.5t84 54.5t39 81l1 7h-218l20 108h348l-65 -368h-92v78q-33 -29 -69.5 -49.5t-78 -30.5t-92.5 -10zM220 -310l9 51q32 0 51 19.5t23 43.5h-55l22 120h120
l-17 -94q-9 -50 -32.5 -81t-55 -45t-65.5 -14z" />
    <glyph glyph-name="uni0123" unicode="&#x123;" horiz-adv-x="591" 
d="M206 -182q-57 0 -101.5 14t-69.5 40.5t-25 65.5q0 7 0.5 15.5t3.5 21.5h118q-1 -4 -1 -6v-4q0 -17 11.5 -27.5t31 -15t42.5 -4.5q44 0 75 16t50 47.5t27 77.5q2 9 3 17t2 12h-6q-19 -24 -43.5 -40.5t-54 -24.5t-63.5 -8q-52 0 -91 20.5t-60.5 63t-21.5 107.5
q0 17 1.5 36.5t5.5 41.5q23 132 87.5 193t157.5 61q55 0 96 -20.5t61 -61.5h7l22 70h101l-81 -460q-16 -90 -51 -144.5t-92.5 -79t-141.5 -24.5zM259 120q29 0 53.5 10t43 29.5t31 47.5t18.5 64q3 16 4.5 27t2 20t0.5 17q0 32 -10.5 54t-31.5 33t-55 11q-40 0 -70.5 -16
t-50 -49t-27.5 -85q-3 -17 -5 -30t-2.5 -22t-0.5 -18q0 -31 10 -51.5t32.5 -31t57.5 -10.5zM459 850l-9 -51q-32 0 -51 -19.5t-23 -43.5h55l-22 -120h-120l17 94q9 50 32.5 81t55 45t65.5 14z" />
    <glyph glyph-name="Hcircumflex" unicode="&#x124;" horiz-adv-x="732" 
d="M30 0l121 686h130l-49 -279h321l49 279h130l-121 -686h-130l52 295h-321l-52 -295h-130zM281 736l130 132h122l81 -132h-106l-65 105l56 -1l-105 -104h-113z" />
    <glyph glyph-name="hcircumflex" unicode="&#x125;" horiz-adv-x="584" 
d="M19 0l127 723h122l-45 -257h6q19 20 44.5 36.5t55.5 26t62 9.5q43 0 77 -13.5t54.5 -43t20.5 -78.5q0 -18 -2.5 -37.5t-6.5 -41.5l-58 -324h-122l56 315q2 14 4 26.5t2 23.5q0 25 -8.5 39t-24.5 20.5t-37 6.5q-27 0 -52.5 -9.5t-46 -28.5t-35.5 -47t-21 -64l-50 -282
h-122zM41 736l130 132h122l81 -132h-106l-65 105l56 -1l-105 -104h-113z" />
    <glyph glyph-name="Hbar" unicode="&#x126;" horiz-adv-x="732" 
d="M30 0l121 686h130l-49 -279h321l49 279h130l-121 -686h-130l52 295h-321l-52 -295h-130zM57 518l18 99h709l-19 -99h-708z" />
    <glyph glyph-name="hbar" unicode="&#x127;" horiz-adv-x="584" 
d="M19 0l127 723h122l-45 -257h6q19 20 44.5 36.5t55.5 26t62 9.5q43 0 77 -13.5t54.5 -43t20.5 -78.5q0 -18 -2.5 -37.5t-6.5 -41.5l-58 -324h-122l56 315q2 14 4 26.5t2 23.5q0 25 -8.5 39t-24.5 20.5t-37 6.5q-27 0 -52.5 -9.5t-46 -28.5t-35.5 -47t-21 -64l-50 -282
h-122zM55 579l16 81h334l-16 -81h-334z" />
    <glyph glyph-name="Itilde" unicode="&#x128;" horiz-adv-x="282" 
d="M30 0l121 686h130l-121 -686h-130zM62 751q6 31 20 57.5t37.5 43t56.5 16.5q26 0 47 -8.5t41.5 -17.5t43.5 -9q13 0 23 7.5t16 27.5h68q-5 -31 -19.5 -58t-38 -43t-57.5 -16q-25 0 -46 9t-41 18t-44 9q-13 0 -23 -8t-16 -28h-68z" />
    <glyph glyph-name="itilde" unicode="&#x129;" horiz-adv-x="252" 
d="M19 0l93 526h122l-93 -526h-122zM15 606q6 31 20 57.5t37.5 43t56.5 16.5q26 0 47.5 -8.5t41.5 -17.5t43 -9q14 0 23.5 7.5t15.5 27.5h69q-6 -31 -20.5 -58t-38 -43t-57.5 -16q-25 0 -46 9t-41 18t-43 9q-13 0 -23.5 -8t-16.5 -28h-68z" />
    <glyph glyph-name="Imacron" unicode="&#x12a;" horiz-adv-x="282" 
d="M30 0l121 686h130l-121 -686h-130zM77 757l14 83h305l-14 -83h-305z" />
    <glyph glyph-name="imacron" unicode="&#x12b;" horiz-adv-x="252" 
d="M19 0l93 526h122l-93 -526h-122zM36 617l14 83h304l-14 -83h-304z" />
    <glyph glyph-name="Ibreve" unicode="&#x12c;" horiz-adv-x="282" 
d="M30 0l121 686h130l-121 -686h-130zM227 737q-50 0 -80 15.5t-43 40.5t-13 53q0 5 0.5 11t1.5 11h81q0 -3 0.5 -6.5t1.5 -6.5q3 -9 10.5 -17.5t20.5 -14t34 -5.5q26 0 44 8t28 20t12 22h82q-5 -31 -26 -61t-58.5 -50t-95.5 -20z" />
    <glyph glyph-name="ibreve" unicode="&#x12d;" horiz-adv-x="252" 
d="M19 0l93 526h122l-93 -526h-122zM187 592q-52 0 -83 15.5t-44.5 40.5t-13.5 52q0 6 0.5 11.5t1.5 11.5h81q0 -16 9 -27.5t24.5 -17t33.5 -5.5q26 0 43.5 8t27.5 20t13 22h82q-5 -31 -25.5 -61t-57 -50t-92.5 -20z" />
    <glyph glyph-name="Iogonek" unicode="&#x12e;" horiz-adv-x="282" 
d="M30 0l121 686h130l-121 -686h-130zM51 -182q-22 0 -43.5 6.5t-35 22t-13.5 42.5q0 29 11.5 51.5t29 40t33.5 31.5h78l-1 -4q-15 -13 -31 -35.5t-16 -47.5q0 -16 9.5 -27.5t31.5 -11.5h39l-9 -54q-19 -7 -42.5 -10.5t-40.5 -3.5z" />
    <glyph glyph-name="iogonek" unicode="&#x12f;" horiz-adv-x="252" 
d="M19 0l93 526h122l-93 -526h-122zM126 604l19 116h121l-20 -116h-120zM40 -182q-22 0 -43.5 6.5t-35 22t-13.5 42.5q0 29 11.5 51.5t29 40t33.5 31.5h78l-1 -4q-15 -13 -31 -35.5t-16 -47.5q0 -16 9.5 -27.5t31.5 -11.5h39l-9 -54q-19 -7 -42.5 -10.5t-40.5 -3.5z" />
    <glyph glyph-name="Idotaccent" unicode="&#x130;" horiz-adv-x="282" 
d="M30 0l121 686h130l-121 -686h-130zM168 757l22 120h120l-22 -120h-120z" />
    <glyph glyph-name="dotlessi" unicode="&#x131;" horiz-adv-x="252" 
d="M19 0l93 526h122l-93 -526h-122z" />
    <glyph glyph-name="IJ" unicode="&#x132;" horiz-adv-x="867" 
d="M30 0l121 686h130l-121 -686h-130zM524 -12q-107 0 -164.5 41.5t-57.5 123.5q0 10 1.5 26.5t8.5 48.5h129q-6 -28 -7 -41.5t-1 -18.5q0 -34 23.5 -52t71.5 -18q53 0 87 36t45 101l79 451h131l-79 -451q-15 -84 -50.5 -139t-90 -81.5t-126.5 -26.5z" />
    <glyph glyph-name="ij" unicode="&#x133;" horiz-adv-x="502" 
d="M124 607l21 116h122l-20 -116h-123zM19 0l93 526h122l-93 -526h-122zM375 607l21 116h122l-20 -116h-123zM239 -182q-15 0 -32.5 2t-32.5 5.5t-25 7.5l14 85h49q23 0 35.5 11t16.5 33l100 564h122l-101 -573q-6 -33 -21.5 -64t-45.5 -51t-79 -20z" />
    <glyph glyph-name="Jcircumflex" unicode="&#x134;" horiz-adv-x="585" 
d="M242 -12q-107 0 -164.5 41.5t-57.5 123.5q0 10 1.5 26.5t8.5 48.5h129q-6 -28 -7 -41.5t-1 -18.5q0 -34 23.5 -52t71.5 -18q53 0 87 36t45 101l79 451h131l-79 -451q-15 -84 -50.5 -139t-90 -81.5t-126.5 -26.5zM361 736l130 132h122l81 -132h-106l-65 105l56 -1
l-105 -104h-113z" />
    <glyph glyph-name="jcircumflex" unicode="&#x135;" horiz-adv-x="250" 
d="M-13 -182q-15 0 -32.5 2t-32.5 5.5t-25 7.5l14 85h49q23 0 35.5 11t16.5 33l100 564h122l-101 -573q-6 -33 -21.5 -64t-45.5 -51t-79 -20zM18 591l130 132h114l81 -132h-103l-65 104h56l-104 -104h-109z" />
    <glyph glyph-name="uni0136" unicode="&#x136;" horiz-adv-x="695" 
d="M30 0l121 686h130l-55 -310l346 310h171l-314 -279l199 -407h-147l-151 318l-133 -105l-37 -213h-130zM196 -310l9 51q32 0 51 19.5t23 43.5h-55l22 120h120l-17 -94q-9 -50 -32.5 -81t-55 -45t-65.5 -14z" />
    <glyph glyph-name="uni0137" unicode="&#x137;" horiz-adv-x="543" 
d="M19 0l127 723h122l-74 -421l229 224h143l-212 -207l129 -319h-132l-87 241l-96 -84l-27 -157h-122zM106 -310l9 51q32 0 51 19.5t23 43.5h-55l22 120h120l-17 -94q-9 -50 -32.5 -81t-55 -45t-65.5 -14z" />
    <glyph glyph-name="kgreenlandic" unicode="&#x138;" horiz-adv-x="543" 
d="M19 0l92 526h122l-39 -224l229 224h143l-212 -207l129 -319h-132l-87 241l-96 -84l-27 -157h-122z" />
    <glyph glyph-name="Lacute" unicode="&#x139;" horiz-adv-x="570" 
d="M31 0l120 686h130l-100 -573h344l-20 -113h-474zM166 736l105 132h132v-3l-131 -129h-106z" />
    <glyph glyph-name="lacute" unicode="&#x13a;" horiz-adv-x="252" 
d="M19 0l127 723h122l-127 -723h-122zM159 778l105 132h132v-3l-131 -129h-106z" />
    <glyph glyph-name="uni013B" unicode="&#x13b;" horiz-adv-x="570" 
d="M31 0l120 686h130l-100 -573h344l-20 -113h-474zM139 -310l9 51q32 0 51 19.5t23 43.5h-55l22 120h120l-17 -94q-9 -50 -32.5 -81t-55 -45t-65.5 -14z" />
    <glyph glyph-name="uni013C" unicode="&#x13c;" horiz-adv-x="252" 
d="M19 0l127 723h122l-127 -723h-122zM-42 -310l9 51q32 0 51 19.5t23 43.5h-55l22 120h120l-17 -94q-9 -50 -32.5 -81t-55 -45t-65.5 -14z" />
    <glyph glyph-name="Lcaron" unicode="&#x13d;" horiz-adv-x="570" 
d="M31 0l120 686h130l-100 -573h344l-20 -113h-474zM418 555l29 168h110l-60 -168h-79z" />
    <glyph glyph-name="lcaron" unicode="&#x13e;" horiz-adv-x="252" 
d="M19 0l127 723h122l-127 -723h-122zM278 555l29 168h110l-60 -168h-79z" />
    <glyph glyph-name="Ldot" unicode="&#x13f;" horiz-adv-x="575" 
d="M31 0l120 686h130l-100 -573h344l-20 -113h-474zM374 322l20 111h124l-20 -111h-124z" />
    <glyph glyph-name="ldot" unicode="&#x140;" horiz-adv-x="252" 
d="M19 0l127 723h122l-127 -723h-122zM230 322l20 111h117l-20 -111h-117z" />
    <glyph glyph-name="Lslash" unicode="&#x141;" horiz-adv-x="570" 
d="M31 0l120 686h130l-100 -573h344l-20 -113h-474zM-6 187l17 96l388 230l-17 -96z" />
    <glyph glyph-name="lslash" unicode="&#x142;" horiz-adv-x="252" 
d="M19 0l127 723h122l-127 -723h-122zM-12 222l17 95l294 188l-17 -95z" />
    <glyph glyph-name="Nacute" unicode="&#x143;" horiz-adv-x="732" 
d="M30 0l121 686h124l209 -399q5 -9 11.5 -22.5t13.5 -27.5t12 -25l6 1q2 16 5 37t5 33l70 403h125l-121 -686h-123l-199 383q-9 17 -23 45.5t-24 48.5h-6q-2 -17 -6 -42.5t-7 -42.5l-68 -392h-125zM396 736l105 132h132v-3l-131 -129h-106z" />
    <glyph glyph-name="nacute" unicode="&#x144;" horiz-adv-x="584" 
d="M19 0l92 526h100v-71h7q19 23 46.5 42t60 30t66.5 11q43 0 77 -13.5t54.5 -43t20.5 -78.5q0 -18 -2.5 -37.5t-6.5 -41.5l-58 -324h-122l56 315q2 14 4 26.5t2 23.5q0 25 -8.5 39t-24.5 20.5t-37 6.5q-27 0 -52.5 -9.5t-46 -28.5t-35.5 -47t-21 -64l-50 -282h-122z
M297 591l103 132h129v-3l-129 -129h-103z" />
    <glyph glyph-name="uni0145" unicode="&#x145;" horiz-adv-x="732" 
d="M30 0l121 686h124l209 -399q5 -9 11.5 -22.5t13.5 -27.5t12 -25l6 1q2 16 5 37t5 33l70 403h125l-121 -686h-123l-199 383q-9 17 -23 45.5t-24 48.5h-6q-2 -17 -6 -42.5t-7 -42.5l-68 -392h-125zM212 -310l9 51q32 0 51 19.5t23 43.5h-55l22 120h120l-17 -94
q-9 -50 -32.5 -81t-55 -45t-65.5 -14z" />
    <glyph glyph-name="uni0146" unicode="&#x146;" horiz-adv-x="584" 
d="M19 0l92 526h100v-71h7q19 23 46.5 42t60 30t66.5 11q43 0 77 -13.5t54.5 -43t20.5 -78.5q0 -18 -2.5 -37.5t-6.5 -41.5l-58 -324h-122l56 315q2 14 4 26.5t2 23.5q0 25 -8.5 39t-24.5 20.5t-37 6.5q-27 0 -52.5 -9.5t-46 -28.5t-35.5 -47t-21 -64l-50 -282h-122z
M132 -310l9 51q32 0 51 19.5t23 43.5h-55l22 120h120l-17 -94q-9 -50 -32.5 -81t-55 -45t-65.5 -14z" />
    <glyph glyph-name="Ncaron" unicode="&#x147;" horiz-adv-x="732" 
d="M30 0l121 686h124l209 -399q5 -9 11.5 -22.5t13.5 -27.5t12 -25l6 1q2 16 5 37t5 33l70 403h125l-121 -686h-123l-199 383q-9 17 -23 45.5t-24 48.5h-6q-2 -17 -6 -42.5t-7 -42.5l-68 -392h-125zM655 868l-130 -132h-122l-81 132h106l65 -105l-56 1l105 104h113z" />
    <glyph glyph-name="ncaron" unicode="&#x148;" horiz-adv-x="584" 
d="M19 0l92 526h100v-71h7q19 23 46.5 42t60 30t66.5 11q43 0 77 -13.5t54.5 -43t20.5 -78.5q0 -18 -2.5 -37.5t-6.5 -41.5l-58 -324h-122l56 315q2 14 4 26.5t2 23.5q0 25 -8.5 39t-24.5 20.5t-37 6.5q-27 0 -52.5 -9.5t-46 -28.5t-35.5 -47t-21 -64l-50 -282h-122z
M545 723l-130 -132h-114l-81 132h103l65 -104h-56l104 104h109z" />
    <glyph glyph-name="napostrophe" unicode="&#x149;" horiz-adv-x="584" 
d="M19 0l92 526h100v-71h7q19 23 46.5 42t60 30t66.5 11q43 0 77 -13.5t54.5 -43t20.5 -78.5q0 -18 -2.5 -37.5t-6.5 -41.5l-58 -324h-122l56 315q2 14 4 26.5t2 23.5q0 25 -8.5 39t-24.5 20.5t-37 6.5q-27 0 -52.5 -9.5t-46 -28.5t-35.5 -47t-21 -64l-50 -282h-122zM41 546
l9 51q32 0 51 19.5t23 43.5h-56l21 120h121l-16 -94q-9 -50 -32.5 -81t-55 -45t-65.5 -14z" />
    <glyph glyph-name="Eng" unicode="&#x14a;" horiz-adv-x="732" 
d="M457 -182q-15 0 -32.5 2.5t-33 6t-25.5 6.5l14 85h47q22 0 34.5 11t16.5 33l7 42l-196 379q-9 17 -23 45.5t-24 48.5h-6q-2 -17 -6 -42.5t-7 -42.5l-68 -392h-125l121 686h124l208 -399q5 -9 11.5 -22.5t13.5 -27.5t12 -25l6 1q2 16 5 37t5 33l70 403h125l-129 -733
q-4 -25 -14 -49t-26.5 -43.5t-42.5 -31t-62 -11.5z" />
    <glyph glyph-name="eng" unicode="&#x14b;" horiz-adv-x="583" 
d="M322 -182q-15 0 -32.5 2t-33 5.5t-25.5 7.5l14 85h50q22 0 35 11t17 33l62 353q2 14 4 26.5t2 23.5q0 25 -8.5 39t-24.5 20.5t-37 6.5q-27 0 -52 -9.5t-46 -28.5t-35.5 -47t-20.5 -64l-50 -282h-122l93 526h99v-71h7q19 23 46 42t59.5 30t66.5 11q43 0 77 -13.5t54.5 -43
t20.5 -78.5q0 -18 -2.5 -37.5t-6.5 -41.5l-66 -371q-4 -25 -14 -49t-26.5 -43.5t-42 -31t-62.5 -11.5z" />
    <glyph glyph-name="Omacron" unicode="&#x14c;" horiz-adv-x="782" 
d="M359 -12q-97 0 -166 30t-105.5 89.5t-36.5 148.5q0 24 1.5 47t5.5 45q18 109 69 187.5t133 120.5t192 42q97 0 166 -30t106 -89.5t37 -148.5q0 -22 -1.5 -44t-5.5 -44q-17 -110 -68.5 -189.5t-134 -122t-192.5 -42.5zM357 99q55 0 98.5 15.5t76 45.5t53.5 74t31 101
q3 16 5 29t3 23t1.5 19t0.5 17q0 52 -19.5 89t-58.5 56.5t-96 19.5q-54 0 -97.5 -15.5t-76 -45.5t-53.5 -74t-31 -101q-3 -16 -4.5 -29t-2.5 -23.5t-1.5 -19t-0.5 -16.5q0 -52 19.5 -89t58 -56.5t94.5 -19.5zM327 757l14 83h305l-14 -83h-305z" />
    <glyph glyph-name="omacron" unicode="&#x14d;" horiz-adv-x="598" 
d="M260 -12q-76 0 -127 21.5t-76.5 66t-25.5 112.5q0 19 2 40t6 43q16 92 54.5 151t99.5 87.5t144 28.5q77 0 128 -21.5t76.5 -66t25.5 -113.5q0 -19 -2 -39t-6 -43q-16 -92 -53.5 -151t-98 -87.5t-147.5 -28.5zM268 88q48 0 80.5 18.5t52.5 56t30 93.5q4 18 5.5 31t2 23
t0.5 19q0 36 -11.5 60.5t-35.5 36.5t-63 12q-48 0 -80 -19t-52 -56t-31 -93q-3 -18 -5 -31.5t-3 -23.5t-1 -19q0 -36 11.5 -60t36.5 -36t63 -12zM209 617l14 83h304l-14 -83h-304z" />
    <glyph glyph-name="Obreve" unicode="&#x14e;" horiz-adv-x="782" 
d="M359 -12q-97 0 -166 30t-105.5 89.5t-36.5 148.5q0 24 1.5 47t5.5 45q18 109 69 187.5t133 120.5t192 42q97 0 166 -30t106 -89.5t37 -148.5q0 -22 -1.5 -44t-5.5 -44q-17 -110 -68.5 -189.5t-134 -122t-192.5 -42.5zM357 99q55 0 98.5 15.5t76 45.5t53.5 74t31 101
q3 16 5 29t3 23t1.5 19t0.5 17q0 52 -19.5 89t-58.5 56.5t-96 19.5q-54 0 -97.5 -15.5t-76 -45.5t-53.5 -74t-31 -101q-3 -16 -4.5 -29t-2.5 -23.5t-1.5 -19t-0.5 -16.5q0 -52 19.5 -89t58 -56.5t94.5 -19.5zM477 737q-50 0 -80 15.5t-43 40.5t-13 53q0 5 0.5 11t1.5 11h81
q0 -3 0.5 -6.5t1.5 -6.5q3 -9 10.5 -17.5t20.5 -14t34 -5.5q26 0 44 8t28 20t12 22h82q-5 -31 -26 -61t-58.5 -50t-95.5 -20z" />
    <glyph glyph-name="obreve" unicode="&#x14f;" horiz-adv-x="598" 
d="M260 -12q-76 0 -127 21.5t-76.5 66t-25.5 112.5q0 19 2 40t6 43q16 92 54.5 151t99.5 87.5t144 28.5q77 0 128 -21.5t76.5 -66t25.5 -113.5q0 -19 -2 -39t-6 -43q-16 -92 -53.5 -151t-98 -87.5t-147.5 -28.5zM268 88q48 0 80.5 18.5t52.5 56t30 93.5q4 18 5.5 31t2 23
t0.5 19q0 36 -11.5 60.5t-35.5 36.5t-63 12q-48 0 -80 -19t-52 -56t-31 -93q-3 -18 -5 -31.5t-3 -23.5t-1 -19q0 -36 11.5 -60t36.5 -36t63 -12zM360 592q-52 0 -83 15.5t-44.5 40.5t-13.5 52q0 6 0.5 11.5t1.5 11.5h81q0 -16 9 -27.5t24.5 -17t33.5 -5.5q26 0 43.5 8
t27.5 20t13 22h82q-5 -31 -25.5 -61t-57 -50t-92.5 -20z" />
    <glyph glyph-name="Ohungarumlaut" unicode="&#x150;" horiz-adv-x="782" 
d="M359 -12q-97 0 -166 30t-105.5 89.5t-36.5 148.5q0 24 1.5 47t5.5 45q18 109 69 187.5t133 120.5t192 42q97 0 166 -30t106 -89.5t37 -148.5q0 -22 -1.5 -44t-5.5 -44q-17 -110 -68.5 -189.5t-134 -122t-192.5 -42.5zM357 99q55 0 98.5 15.5t76 45.5t53.5 74t31 101
q3 16 5 29t3 23t1.5 19t0.5 17q0 52 -19.5 89t-58.5 56.5t-96 19.5q-54 0 -97.5 -15.5t-76 -45.5t-53.5 -74t-31 -101q-3 -16 -4.5 -29t-2.5 -23.5t-1.5 -19t-0.5 -16.5q0 -52 19.5 -89t58 -56.5t94.5 -19.5zM489 736l98 132h132v-3l-126 -129h-104zM305 736l98 132h132v-3
l-126 -129h-104z" />
    <glyph glyph-name="ohungarumlaut" unicode="&#x151;" horiz-adv-x="598" 
d="M260 -12q-76 0 -127 21.5t-76.5 66t-25.5 112.5q0 19 2 40t6 43q16 92 54.5 151t99.5 87.5t144 28.5q77 0 128 -21.5t76.5 -66t25.5 -113.5q0 -19 -2 -39t-6 -43q-16 -92 -53.5 -151t-98 -87.5t-147.5 -28.5zM268 88q48 0 80.5 18.5t52.5 56t30 93.5q4 18 5.5 31t2 23
t0.5 19q0 36 -11.5 60.5t-35.5 36.5t-63 12q-48 0 -80 -19t-52 -56t-31 -93q-3 -18 -5 -31.5t-3 -23.5t-1 -19q0 -36 11.5 -60t36.5 -36t63 -12zM214 591l98 132h134v-3l-126 -129h-106zM402 591l98 132h134v-3l-126 -129h-106z" />
    <glyph glyph-name="OE" unicode="&#x152;" horiz-adv-x="1200" 
d="M359 -12q-97 0 -166 30t-105.5 89.5t-36.5 148.5q0 24 1.5 47t5.5 45q18 109 69 187.5t133 120.5t192 42q71 0 126 -17t92 -50l10 55h535l-20 -111h-405l-29 -169h360l-19 -111h-361l-32 -184h411l-20 -111h-541l7 42q-42 -26 -93.5 -40t-113.5 -14zM357 99
q55 0 98.5 15.5t76 45.5t53.5 74t31 101q3 16 5 29t3 23t1.5 19t0.5 17q0 52 -19.5 89t-58.5 56.5t-96 19.5q-72 0 -125 -27.5t-86.5 -80t-46.5 -128.5q-3 -16 -4.5 -29t-2.5 -23.5t-1.5 -19t-0.5 -16.5q0 -52 19.5 -89t58 -56.5t94.5 -19.5z" />
    <glyph glyph-name="oe" unicode="&#x153;" horiz-adv-x="950" 
d="M257 -12q-75 0 -125 21.5t-75.5 66t-25.5 112.5q0 19 2 40t6 43q16 92 54.5 151t98.5 87.5t142 28.5q65 0 109.5 -17.5t70.5 -52.5q34 32 82 51t113 19q70 0 116.5 -21t70.5 -63.5t24 -107.5q0 -23 -3.5 -53.5t-11.5 -59.5h-350q-2 -12 -3 -22.5t-1 -20.5q0 -35 11 -58.5
t34.5 -34.5t60.5 -11q24 0 44 5.5t35.5 17.5t26 30.5t14.5 44.5h120q-8 -50 -29 -87t-52.5 -61t-71 -36t-84.5 -12q-72 0 -121.5 17.5t-78.5 54.5q-36 -37 -86.5 -54.5t-116.5 -17.5zM265 88q48 0 79.5 18.5t51.5 56t30 93.5q3 13 4.5 23.5t2 19.5t1 16t0.5 14
q0 36 -11 60.5t-35 36.5t-62 12q-47 0 -78.5 -19t-51 -56t-30.5 -93q-3 -13 -4.5 -24t-2.5 -20t-1.5 -16.5t-0.5 -13.5q0 -36 11.5 -60t35.5 -36t61 -12zM571 319h223q2 10 2.5 19t0.5 16q0 31 -10.5 50t-29.5 28t-45 9q-37 0 -64.5 -14t-46 -41t-30.5 -67z" />
    <glyph glyph-name="Racute" unicode="&#x154;" horiz-adv-x="717" 
d="M30 0l121 686h342q72 0 119 -21t70.5 -59t23.5 -91q0 -59 -18 -106t-52.5 -80.5t-86.5 -52.5l93 -276h-138l-81 254h-218l-45 -254h-130zM225 364h218q37 0 66 16.5t46 46.5t17 71q0 37 -22.5 57t-66.5 20h-221zM406 736l105 132h132v-3l-131 -129h-106z" />
    <glyph glyph-name="racute" unicode="&#x155;" horiz-adv-x="362" 
d="M19 0l93 526h98v-83h6q14 25 31.5 46.5t41.5 35t57 13.5q18 0 32 -3t21 -6l-19 -115h-38q-31 0 -57 -9t-45.5 -27t-32.5 -45.5t-19 -64.5l-47 -268h-122zM206 591l103 132h129v-3l-129 -129h-103z" />
    <glyph glyph-name="uni0156" unicode="&#x156;" horiz-adv-x="717" 
d="M30 0l121 686h342q72 0 119 -21t70.5 -59t23.5 -91q0 -59 -18 -106t-52.5 -80.5t-86.5 -52.5l93 -276h-138l-81 254h-218l-45 -254h-130zM225 364h218q37 0 66 16.5t46 46.5t17 71q0 37 -22.5 57t-66.5 20h-221zM199 -310l9 51q32 0 51 19.5t23 43.5h-55l22 120h120
l-17 -94q-9 -50 -32.5 -81t-55 -45t-65.5 -14z" />
    <glyph glyph-name="uni0157" unicode="&#x157;" horiz-adv-x="362" 
d="M19 0l93 526h98v-83h6q14 25 31.5 46.5t41.5 35t57 13.5q18 0 32 -3t21 -6l-19 -115h-38q-31 0 -57 -9t-45.5 -27t-32.5 -45.5t-19 -64.5l-47 -268h-122zM-40 -310l9 51q32 0 51 19.5t23 43.5h-55l22 120h120l-17 -94q-9 -50 -32.5 -81t-55 -45t-65.5 -14z" />
    <glyph glyph-name="Rcaron" unicode="&#x158;" horiz-adv-x="717" 
d="M30 0l121 686h342q72 0 119 -21t70.5 -59t23.5 -91q0 -59 -18 -106t-52.5 -80.5t-86.5 -52.5l93 -276h-138l-81 254h-218l-45 -254h-130zM225 364h218q37 0 66 16.5t46 46.5t17 71q0 37 -22.5 57t-66.5 20h-221zM665 868l-130 -132h-122l-81 132h106l65 -105l-56 1
l105 104h113z" />
    <glyph glyph-name="rcaron" unicode="&#x159;" horiz-adv-x="362" 
d="M19 0l93 526h98v-83h6q14 25 31.5 46.5t41.5 35t57 13.5q18 0 32 -3t21 -6l-19 -115h-38q-31 0 -57 -9t-45.5 -27t-32.5 -45.5t-19 -64.5l-47 -268h-122zM454 723l-130 -132h-114l-81 132h103l65 -104h-56l104 104h109z" />
    <glyph glyph-name="Sacute" unicode="&#x15a;" horiz-adv-x="667" 
d="M312 -12q-60 0 -112 10.5t-91 32t-61 54.5t-22 78q0 14 2.5 30t5.5 27h131q-1 -6 -3.5 -16.5t-2.5 -18.5q0 -27 17 -46.5t49 -29.5t76 -10q45 0 77.5 7t53.5 19.5t31 30.5t10 39q0 23 -13.5 39t-36.5 28t-52 21t-61 18q-37 11 -74.5 24.5t-69 34.5t-50 51.5t-18.5 74.5
q0 54 22.5 93.5t62 66t91 39.5t108.5 13q56 0 103.5 -9.5t83 -29t55.5 -50.5t20 -73q0 -9 -1 -20.5t-4 -29.5h-129q3 11 3.5 16.5t0.5 8.5q0 36 -33.5 56.5t-91.5 20.5q-47 0 -82.5 -10t-55 -28.5t-19.5 -45.5q0 -18 11 -31.5t30.5 -23t45 -18t53.5 -16.5q40 -12 81.5 -26
t77 -35.5t57 -54t21.5 -79.5q0 -64 -25.5 -108t-68 -71.5t-95.5 -40t-108 -12.5zM358 736l105 132h132v-3l-131 -129h-106z" />
    <glyph glyph-name="sacute" unicode="&#x15b;" horiz-adv-x="541" 
d="M238 -12q-55 0 -97 10t-70.5 28t-42.5 43.5t-14 55.5q0 12 2.5 23t4.5 17h119q-1 -4 -2 -10t-1 -8q0 -23 14 -37t37.5 -20t50.5 -6q21 0 41.5 3.5t37.5 10.5t27 19t10 30t-11 29.5t-29.5 19.5t-42 14.5t-49.5 13.5q-28 8 -56 18t-50.5 25t-36 38t-13.5 56q0 43 18 76
t50 55.5t74.5 34t91.5 11.5q47 0 85.5 -8.5t66 -24.5t42.5 -38.5t15 -50.5q0 -16 -3 -29t-4 -15h-119q1 5 1.5 9t0.5 7q0 17 -10 29t-29 18.5t-48 6.5q-27 0 -46.5 -4.5t-32.5 -12.5t-19.5 -18.5t-6.5 -21.5q0 -21 19 -32.5t49 -19t64 -18.5q29 -9 56.5 -18.5t50.5 -24.5
t36.5 -38.5t13.5 -58.5q0 -52 -20 -88t-54.5 -57.5t-78.5 -31.5t-92 -10zM256 591l103 132h129v-3l-129 -129h-103z" />
    <glyph glyph-name="Scircumflex" unicode="&#x15c;" horiz-adv-x="667" 
d="M312 -12q-60 0 -112 10.5t-91 32t-61 54.5t-22 78q0 14 2.5 30t5.5 27h131q-1 -6 -3.5 -16.5t-2.5 -18.5q0 -27 17 -46.5t49 -29.5t76 -10q45 0 77.5 7t53.5 19.5t31 30.5t10 39q0 23 -13.5 39t-36.5 28t-52 21t-61 18q-37 11 -74.5 24.5t-69 34.5t-50 51.5t-18.5 74.5
q0 54 22.5 93.5t62 66t91 39.5t108.5 13q56 0 103.5 -9.5t83 -29t55.5 -50.5t20 -73q0 -9 -1 -20.5t-4 -29.5h-129q3 11 3.5 16.5t0.5 8.5q0 36 -33.5 56.5t-91.5 20.5q-47 0 -82.5 -10t-55 -28.5t-19.5 -45.5q0 -18 11 -31.5t30.5 -23t45 -18t53.5 -16.5q40 -12 81.5 -26
t77 -35.5t57 -54t21.5 -79.5q0 -64 -25.5 -108t-68 -71.5t-95.5 -40t-108 -12.5zM246 736l130 132h122l81 -132h-106l-65 105l56 -1l-105 -104h-113z" />
    <glyph glyph-name="scircumflex" unicode="&#x15d;" horiz-adv-x="541" 
d="M238 -12q-55 0 -97 10t-70.5 28t-42.5 43.5t-14 55.5q0 12 2.5 23t4.5 17h119q-1 -4 -2 -10t-1 -8q0 -23 14 -37t37.5 -20t50.5 -6q21 0 41.5 3.5t37.5 10.5t27 19t10 30t-11 29.5t-29.5 19.5t-42 14.5t-49.5 13.5q-28 8 -56 18t-50.5 25t-36 38t-13.5 56q0 43 18 76
t50 55.5t74.5 34t91.5 11.5q47 0 85.5 -8.5t66 -24.5t42.5 -38.5t15 -50.5q0 -16 -3 -29t-4 -15h-119q1 5 1.5 9t0.5 7q0 17 -10 29t-29 18.5t-48 6.5q-27 0 -46.5 -4.5t-32.5 -12.5t-19.5 -18.5t-6.5 -21.5q0 -21 19 -32.5t49 -19t64 -18.5q29 -9 56.5 -18.5t50.5 -24.5
t36.5 -38.5t13.5 -58.5q0 -52 -20 -88t-54.5 -57.5t-78.5 -31.5t-92 -10zM150 591l130 132h114l81 -132h-103l-65 104h56l-104 -104h-109z" />
    <glyph glyph-name="Scedilla" unicode="&#x15e;" horiz-adv-x="667" 
d="M312 -12q-60 0 -112 10.5t-91 32t-61 54.5t-22 78q0 14 2.5 30t5.5 27h131q-1 -6 -3.5 -16.5t-2.5 -18.5q0 -27 17 -46.5t49 -29.5t76 -10q45 0 77.5 7t53.5 19.5t31 30.5t10 39q0 23 -13.5 39t-36.5 28t-52 21t-61 18q-37 11 -74.5 24.5t-69 34.5t-50 51.5t-18.5 74.5
q0 54 22.5 93.5t62 66t91 39.5t108.5 13q56 0 103.5 -9.5t83 -29t55.5 -50.5t20 -73q0 -9 -1 -20.5t-4 -29.5h-129q3 11 3.5 16.5t0.5 8.5q0 36 -33.5 56.5t-91.5 20.5q-47 0 -82.5 -10t-55 -28.5t-19.5 -45.5q0 -18 11 -31.5t30.5 -23t45 -18t53.5 -16.5q40 -12 81.5 -26
t77 -35.5t57 -54t21.5 -79.5q0 -64 -25.5 -108t-68 -71.5t-95.5 -40t-108 -12.5zM246 -182q-25 0 -51.5 2t-48.5 6l9 49h91q23 0 35.5 6t12.5 24q0 9 -8 13.5t-29 4.5h-44l30 88h78l-14 -45q35 -2 60 -14.5t25 -41.5t-15.5 -47t-38.5 -28t-48 -13.5t-44 -3.5z" />
    <glyph glyph-name="scedilla" unicode="&#x15f;" horiz-adv-x="541" 
d="M238 -12q-55 0 -97 10t-70.5 28t-42.5 43.5t-14 55.5q0 12 2.5 23t4.5 17h119q-1 -4 -2 -10t-1 -8q0 -23 14 -37t37.5 -20t50.5 -6q21 0 41.5 3.5t37.5 10.5t27 19t10 30t-11 29.5t-29.5 19.5t-42 14.5t-49.5 13.5q-28 8 -56 18t-50.5 25t-36 38t-13.5 56q0 43 18 76
t50 55.5t74.5 34t91.5 11.5q47 0 85.5 -8.5t66 -24.5t42.5 -38.5t15 -50.5q0 -16 -3 -29t-4 -15h-119q1 5 1.5 9t0.5 7q0 17 -10 29t-29 18.5t-48 6.5q-27 0 -46.5 -4.5t-32.5 -12.5t-19.5 -18.5t-6.5 -21.5q0 -21 19 -32.5t49 -19t64 -18.5q29 -9 56.5 -18.5t50.5 -24.5
t36.5 -38.5t13.5 -58.5q0 -52 -20 -88t-54.5 -57.5t-78.5 -31.5t-92 -10zM196 -182q-25 0 -51.5 2t-48.5 6l9 49h91q23 0 35.5 6t12.5 24q0 9 -8 13.5t-29 4.5h-44l30 88h78l-14 -45q35 -2 60 -14.5t25 -41.5t-15.5 -47t-38.5 -28t-48 -13.5t-44 -3.5z" />
    <glyph glyph-name="Scaron" unicode="&#x160;" horiz-adv-x="667" 
d="M312 -12q-60 0 -112 10.5t-91 32t-61 54.5t-22 78q0 14 2.5 30t5.5 27h131q-1 -6 -3.5 -16.5t-2.5 -18.5q0 -27 17 -46.5t49 -29.5t76 -10q45 0 77.5 7t53.5 19.5t31 30.5t10 39q0 23 -13.5 39t-36.5 28t-52 21t-61 18q-37 11 -74.5 24.5t-69 34.5t-50 51.5t-18.5 74.5
q0 54 22.5 93.5t62 66t91 39.5t108.5 13q56 0 103.5 -9.5t83 -29t55.5 -50.5t20 -73q0 -9 -1 -20.5t-4 -29.5h-129q3 11 3.5 16.5t0.5 8.5q0 36 -33.5 56.5t-91.5 20.5q-47 0 -82.5 -10t-55 -28.5t-19.5 -45.5q0 -18 11 -31.5t30.5 -23t45 -18t53.5 -16.5q40 -12 81.5 -26
t77 -35.5t57 -54t21.5 -79.5q0 -64 -25.5 -108t-68 -71.5t-95.5 -40t-108 -12.5zM617 868l-130 -132h-122l-81 132h106l65 -105l-56 1l105 104h113z" />
    <glyph glyph-name="scaron" unicode="&#x161;" horiz-adv-x="541" 
d="M238 -12q-55 0 -97 10t-70.5 28t-42.5 43.5t-14 55.5q0 12 2.5 23t4.5 17h119q-1 -4 -2 -10t-1 -8q0 -23 14 -37t37.5 -20t50.5 -6q21 0 41.5 3.5t37.5 10.5t27 19t10 30t-11 29.5t-29.5 19.5t-42 14.5t-49.5 13.5q-28 8 -56 18t-50.5 25t-36 38t-13.5 56q0 43 18 76
t50 55.5t74.5 34t91.5 11.5q47 0 85.5 -8.5t66 -24.5t42.5 -38.5t15 -50.5q0 -16 -3 -29t-4 -15h-119q1 5 1.5 9t0.5 7q0 17 -10 29t-29 18.5t-48 6.5q-27 0 -46.5 -4.5t-32.5 -12.5t-19.5 -18.5t-6.5 -21.5q0 -21 19 -32.5t49 -19t64 -18.5q29 -9 56.5 -18.5t50.5 -24.5
t36.5 -38.5t13.5 -58.5q0 -52 -20 -88t-54.5 -57.5t-78.5 -31.5t-92 -10zM504 723l-130 -132h-114l-81 132h103l65 -104h-56l104 104h109z" />
    <glyph glyph-name="uni0162" unicode="&#x162;" horiz-adv-x="619" 
d="M198 0l101 574h-219l20 112h568l-19 -112h-220l-101 -574h-130zM224 -182q-25 0 -51.5 2t-48.5 6l9 49h91q23 0 35.5 6t12.5 24q0 9 -8 13.5t-29 4.5h-44l30 88h78l-14 -45q35 -2 60 -14.5t25 -41.5t-15.5 -47t-38.5 -28t-48 -13.5t-44 -3.5z" />
    <glyph glyph-name="uni0163" unicode="&#x163;" horiz-adv-x="314" 
d="M166 -12q-43 0 -66.5 14.5t-33.5 38t-10 51.5q0 8 1 16l2 16l52 302h-63l17 100h66l48 147h97l-26 -147h91l-17 -100h-91l-49 -277q-1 -3 -2.5 -14t-1.5 -13q0 -16 9.5 -25t28.5 -9h47l-15 -84q-10 -4 -24.5 -7.5t-30 -6t-29.5 -2.5zM107 -182q-25 0 -51.5 2t-48.5 6
l9 49h91q23 0 35.5 6t12.5 24q0 9 -8 13.5t-29 4.5h-44l30 88h78l-14 -45q35 -2 60 -14.5t25 -41.5t-15.5 -47t-38.5 -28t-48 -13.5t-44 -3.5z" />
    <glyph glyph-name="Tcaron" unicode="&#x164;" horiz-adv-x="619" 
d="M198 0l101 574h-219l20 112h568l-19 -112h-220l-101 -574h-130zM595 868l-130 -132h-122l-81 132h106l65 -105l-56 1l105 104h113z" />
    <glyph glyph-name="tcaron" unicode="&#x165;" horiz-adv-x="314" 
d="M166 -12q-43 0 -66.5 14.5t-33.5 38t-10 51.5q0 8 1 16l2 16l52 302h-63l17 100h66l48 147h97l-26 -147h91l-17 -100h-91l-49 -277q-1 -3 -2.5 -14t-1.5 -13q0 -16 9.5 -25t28.5 -9h47l-15 -84q-10 -4 -24.5 -7.5t-30 -6t-29.5 -2.5zM287 555l29 168h110l-60 -168h-79z
" />
    <glyph glyph-name="Tbar" unicode="&#x166;" horiz-adv-x="619" 
d="M198 0l101 574h-219l20 112h568l-19 -112h-220l-101 -574h-130zM146 278l16 90h334l-16 -90h-334z" />
    <glyph glyph-name="tbar" unicode="&#x167;" horiz-adv-x="304" 
d="M-2 235l13 76h263l-13 -76h-263zM166 -12q-43 0 -66.5 14.5t-33.5 38t-10 51.5q0 8 1 16l2 16l52 302h-63l17 100h66l48 147h97l-26 -147h91l-17 -100h-91l-49 -277q-1 -3 -2.5 -14t-1.5 -13q0 -16 9.5 -25t28.5 -9h47l-15 -84q-10 -4 -24.5 -7.5t-30 -6t-29.5 -2.5z" />
    <glyph glyph-name="Utilde" unicode="&#x168;" horiz-adv-x="724" 
d="M332 -12q-127 0 -196.5 53.5t-69.5 157.5q0 14 1.5 30.5t4.5 32.5l74 424h130l-75 -426q-1 -7 -3 -19.5t-2 -22.5q0 -59 34.5 -89.5t101.5 -30.5q77 0 126 40.5t63 119.5l76 428h130l-76 -432q-16 -89 -57 -148.5t-106.5 -88.5t-155.5 -29zM291 751q6 31 20 57.5t37.5 43
t56.5 16.5q26 0 47 -8.5t41.5 -17.5t43.5 -9q13 0 23 7.5t16 27.5h68q-5 -31 -19.5 -58t-38 -43t-57.5 -16q-25 0 -46 9t-41 18t-44 9q-13 0 -23 -8t-16 -28h-68z" />
    <glyph glyph-name="utilde" unicode="&#x169;" horiz-adv-x="583" 
d="M191 -12q-42 0 -77 13.5t-55.5 43t-20.5 78.5q0 18 3 37.5t7 41.5l57 324h123l-56 -316q-2 -14 -4 -26t-2 -23q0 -25 9 -39.5t25 -20.5t37 -6q27 0 52 9.5t45.5 28.5t35.5 47t21 64l50 282h123l-93 -526h-100v71h-7q-19 -23 -46.5 -42t-59.5 -30t-67 -11zM177 606
q6 31 20 57.5t37.5 43t56.5 16.5q26 0 47.5 -8.5t41.5 -17.5t43 -9q14 0 23.5 7.5t15.5 27.5h69q-6 -31 -20.5 -58t-38 -43t-57.5 -16q-25 0 -46 9t-41 18t-43 9q-13 0 -23.5 -8t-16.5 -28h-68z" />
    <glyph glyph-name="Umacron" unicode="&#x16a;" horiz-adv-x="724" 
d="M332 -12q-127 0 -196.5 53.5t-69.5 157.5q0 14 1.5 30.5t4.5 32.5l74 424h130l-75 -426q-1 -7 -3 -19.5t-2 -22.5q0 -59 34.5 -89.5t101.5 -30.5q77 0 126 40.5t63 119.5l76 428h130l-76 -432q-16 -89 -57 -148.5t-106.5 -88.5t-155.5 -29zM306 757l14 83h305l-14 -83
h-305z" />
    <glyph glyph-name="umacron" unicode="&#x16b;" horiz-adv-x="583" 
d="M191 -12q-42 0 -77 13.5t-55.5 43t-20.5 78.5q0 18 3 37.5t7 41.5l57 324h123l-56 -316q-2 -14 -4 -26t-2 -23q0 -25 9 -39.5t25 -20.5t37 -6q27 0 52 9.5t45.5 28.5t35.5 47t21 64l50 282h123l-93 -526h-100v71h-7q-19 -23 -46.5 -42t-59.5 -30t-67 -11zM198 617l14 83
h304l-14 -83h-304z" />
    <glyph glyph-name="Ubreve" unicode="&#x16c;" horiz-adv-x="724" 
d="M332 -12q-127 0 -196.5 53.5t-69.5 157.5q0 14 1.5 30.5t4.5 32.5l74 424h130l-75 -426q-1 -7 -3 -19.5t-2 -22.5q0 -59 34.5 -89.5t101.5 -30.5q77 0 126 40.5t63 119.5l76 428h130l-76 -432q-16 -89 -57 -148.5t-106.5 -88.5t-155.5 -29zM456 737q-50 0 -80 15.5
t-43 40.5t-13 53q0 5 0.5 11t1.5 11h81q0 -3 0.5 -6.5t1.5 -6.5q3 -9 10.5 -17.5t20.5 -14t34 -5.5q26 0 44 8t28 20t12 22h82q-5 -31 -26 -61t-58.5 -50t-95.5 -20z" />
    <glyph glyph-name="ubreve" unicode="&#x16d;" horiz-adv-x="583" 
d="M191 -12q-42 0 -77 13.5t-55.5 43t-20.5 78.5q0 18 3 37.5t7 41.5l57 324h123l-56 -316q-2 -14 -4 -26t-2 -23q0 -25 9 -39.5t25 -20.5t37 -6q27 0 52 9.5t45.5 28.5t35.5 47t21 64l50 282h123l-93 -526h-100v71h-7q-19 -23 -46.5 -42t-59.5 -30t-67 -11zM349 592
q-52 0 -83 15.5t-44.5 40.5t-13.5 52q0 6 0.5 11.5t1.5 11.5h81q0 -16 9 -27.5t24.5 -17t33.5 -5.5q26 0 43.5 8t27.5 20t13 22h82q-5 -31 -25.5 -61t-57 -50t-92.5 -20z" />
    <glyph glyph-name="Uring" unicode="&#x16e;" horiz-adv-x="724" 
d="M332 -12q-127 0 -196.5 53.5t-69.5 157.5q0 14 1.5 30.5t4.5 32.5l74 424h130l-75 -426q-1 -7 -3 -19.5t-2 -22.5q0 -59 34.5 -89.5t101.5 -30.5q77 0 126 40.5t63 119.5l76 428h130l-76 -432q-16 -89 -57 -148.5t-106.5 -88.5t-155.5 -29zM456 729q-42 0 -69 24t-27 61
q0 33 16.5 59t45 40.5t65.5 14.5q42 0 69 -23.5t27 -60.5q0 -33 -16.5 -59t-45 -41t-65.5 -15zM464 790q16 0 27.5 5.5t18.5 15.5t7 22q0 15 -10.5 24.5t-27.5 9.5q-15 0 -26.5 -5.5t-18.5 -15.5t-7 -23q0 -14 10.5 -23.5t26.5 -9.5z" />
    <glyph glyph-name="uring" unicode="&#x16f;" horiz-adv-x="583" 
d="M191 -12q-42 0 -77 13.5t-55.5 43t-20.5 78.5q0 18 3 37.5t7 41.5l57 324h123l-56 -316q-2 -14 -4 -26t-2 -23q0 -25 9 -39.5t25 -20.5t37 -6q27 0 52 9.5t45.5 28.5t35.5 47t21 64l50 282h123l-93 -526h-100v71h-7q-19 -23 -46.5 -42t-59.5 -30t-67 -11zM351 579
q-39 0 -64.5 25t-25.5 63q0 48 32 79.5t81 31.5q37 0 61.5 -24.5t24.5 -62.5q0 -32 -14 -57.5t-38.5 -40t-56.5 -14.5zM353 632q16 0 27.5 6.5t18.5 18.5t7 27q0 18 -10.5 29.5t-27.5 11.5q-15 0 -27 -7t-19 -18.5t-7 -27.5q0 -17 11 -28.5t27 -11.5z" />
    <glyph glyph-name="Uhungarumlaut" unicode="&#x170;" horiz-adv-x="724" 
d="M332 -12q-127 0 -196.5 53.5t-69.5 157.5q0 14 1.5 30.5t4.5 32.5l74 424h130l-75 -426q-1 -7 -3 -19.5t-2 -22.5q0 -59 34.5 -89.5t101.5 -30.5q77 0 126 40.5t63 119.5l76 428h130l-76 -432q-16 -89 -57 -148.5t-106.5 -88.5t-155.5 -29zM468 736l98 132h132v-3
l-126 -129h-104zM284 736l98 132h132v-3l-126 -129h-104z" />
    <glyph glyph-name="uhungarumlaut" unicode="&#x171;" horiz-adv-x="583" 
d="M191 -12q-42 0 -77 13.5t-55.5 43t-20.5 78.5q0 18 3 37.5t7 41.5l57 324h123l-56 -316q-2 -14 -4 -26t-2 -23q0 -25 9 -39.5t25 -20.5t37 -6q27 0 52 9.5t45.5 28.5t35.5 47t21 64l50 282h123l-93 -526h-100v71h-7q-19 -23 -46.5 -42t-59.5 -30t-67 -11zM203 591l98 132
h134v-3l-126 -129h-106zM391 591l98 132h134v-3l-126 -129h-106z" />
    <glyph glyph-name="Uogonek" unicode="&#x172;" horiz-adv-x="724" 
d="M332 -12q-127 0 -196.5 53.5t-69.5 157.5q0 14 1.5 30.5t4.5 32.5l74 424h130l-75 -426q-1 -7 -3 -19.5t-2 -22.5q0 -59 34.5 -89.5t101.5 -30.5q77 0 126 40.5t63 119.5l76 428h130l-76 -432q-16 -89 -57 -148.5t-106.5 -88.5t-155.5 -29zM401 -182q-22 0 -43.5 6.5
t-35 22t-13.5 42.5q0 29 11.5 51.5t29 40t33.5 31.5h78l-1 -4q-15 -13 -31 -35.5t-16 -47.5q0 -16 9.5 -27.5t31.5 -11.5h39l-9 -54q-19 -7 -42.5 -10.5t-40.5 -3.5z" />
    <glyph glyph-name="uogonek" unicode="&#x173;" horiz-adv-x="583" 
d="M389 -182q-22 0 -43.5 6.5t-35 22t-13.5 42.5q0 29 11.5 51.5t29 40t33.5 31.5h78l-1 -4q-15 -13 -31 -35.5t-16 -47.5q0 -16 9.5 -27.5t31.5 -11.5h39l-9 -54q-19 -7 -42.5 -10.5t-40.5 -3.5zM191 -12q-42 0 -77 13.5t-55.5 43t-20.5 78.5q0 18 3 37.5t7 41.5l57 324
h123l-56 -316q-2 -14 -4 -26t-2 -23q0 -25 9 -39.5t25 -20.5t37 -6q27 0 52 9.5t45.5 28.5t35.5 47t21 64l50 282h123l-93 -526h-100v71h-7q-19 -23 -46.5 -42t-59.5 -30t-67 -11z" />
    <glyph glyph-name="Wcircumflex" unicode="&#x174;" horiz-adv-x="954" 
d="M146 0l-60 686h124l36 -441q1 -10 1.5 -27.5t1.5 -36.5t1 -35h5q5 16 11.5 35.5t12.5 37t9 26.5l179 441h167l26 -441q1 -10 1 -27.5t0.5 -36.5t0.5 -35h5q5 15 11.5 33.5t13 36.5t11.5 29l189 441h127l-307 -686h-154l-27 450q-1 14 -1.5 32.5l-1 37t-0.5 31.5h-5
q-4 -15 -10 -34t-12 -37t-11 -30l-190 -450h-154zM388 736l130 132h122l81 -132h-106l-65 105l56 -1l-105 -104h-113z" />
    <glyph glyph-name="wcircumflex" unicode="&#x175;" horiz-adv-x="758" 
d="M113 0l-64 526h121l22 -241q1 -12 2.5 -37t2.5 -53.5t2 -52.5h4q8 23 18.5 50.5t20 52.5t15.5 39l101 242h131l19 -242q1 -15 2.5 -40.5t3 -52.5t2.5 -49h4q7 20 17 46.5t20 52t17 43.5l105 242h122l-250 -526h-128l-17 270q-1 16 -2 36.5t-1.5 41t-0.5 35.5h-4
q-5 -14 -12 -34.5t-15 -41t-15 -36.5l-114 -271h-129zM278 591l130 132h114l81 -132h-103l-65 104h56l-104 -104h-109z" />
    <glyph glyph-name="Ycircumflex" unicode="&#x176;" horiz-adv-x="677" 
d="M229 0l49 279l-193 407h134l138 -291h7l236 291h143l-335 -407l-49 -279h-130zM250 736l130 132h122l81 -132h-106l-65 105l56 -1l-105 -104h-113z" />
    <glyph glyph-name="ycircumflex" unicode="&#x177;" horiz-adv-x="529" 
d="M61 -182q-40 0 -61 5.5t-25 6.5l15 88h55q23 0 45 8.5t41 26.5t33 47l-112 526h122l51 -240q5 -22 10 -51.5t9 -57.5t6 -49h5q6 15 14 34t16.5 39t17 39t15.5 33l125 253h128l-260 -499q-22 -43 -47.5 -80.5t-55.5 -66.5t-66.5 -45.5t-80.5 -16.5zM152 591l130 132h114
l81 -132h-103l-65 104h56l-104 -104h-109z" />
    <glyph glyph-name="Ydieresis" unicode="&#x178;" horiz-adv-x="677" 
d="M229 0l49 279l-193 407h134l138 -291h7l236 291h143l-335 -407l-49 -279h-130zM268 757l18 111h109l-19 -111h-108zM470 757l19 111h110l-19 -111h-110z" />
    <glyph glyph-name="Zacute" unicode="&#x179;" horiz-adv-x="634" 
d="M-17 0l11 62l447 513h-332l20 111h533l-11 -63l-448 -512h367l-20 -111h-567zM334 736l105 132h132v-3l-131 -129h-106z" />
    <glyph glyph-name="zacute" unicode="&#x17a;" horiz-adv-x="509" 
d="M-19 0l11 57l319 369h-238l17 100h427l-10 -56l-321 -370h268l-18 -100h-455zM246 591l103 132h129v-3l-129 -129h-103z" />
    <glyph glyph-name="Zdotaccent" unicode="&#x17b;" horiz-adv-x="634" 
d="M-17 0l11 62l447 513h-332l20 111h533l-11 -63l-448 -512h367l-20 -111h-567zM334 757l22 120h120l-22 -120h-120z" />
    <glyph glyph-name="zdotaccent" unicode="&#x17c;" horiz-adv-x="509" 
d="M-19 0l11 57l319 369h-238l17 100h427l-10 -56l-321 -370h268l-18 -100h-455zM249 604l19 116h121l-20 -116h-120z" />
    <glyph glyph-name="Zcaron" unicode="&#x17d;" horiz-adv-x="634" 
d="M-17 0l11 62l447 513h-332l20 111h533l-11 -63l-448 -512h367l-20 -111h-567zM593 868l-130 -132h-122l-81 132h106l65 -105l-56 1l105 104h113z" />
    <glyph glyph-name="zcaron" unicode="&#x17e;" horiz-adv-x="509" 
d="M-19 0l11 57l319 369h-238l17 100h427l-10 -56l-321 -370h268l-18 -100h-455zM494 723l-130 -132h-114l-81 132h103l65 -104h-56l104 104h109z" />
    <glyph glyph-name="longs" unicode="&#x17f;" horiz-adv-x="306" 
d="M3 -182q-15 0 -30 2t-28.5 5.5t-22.5 7.5l15 85h50q23 0 36 11.5t17 33.5l81 463h-76l18 100h76l12 67q6 35 21.5 66.5t47.5 51.5t88 20q15 0 30 -2t28.5 -5.5t22.5 -7.5l-15 -85h-50q-22 0 -35.5 -11.5t-17.5 -33.5l-111 -630q-6 -34 -22 -66t-48 -52t-87 -20z" />
    <glyph glyph-name="uni018F" unicode="&#x18f;" horiz-adv-x="756" 
d="M344 -12q-94 0 -159.5 29t-99.5 85t-34 136q0 20 2 42t6 45l9 51h532q2 14 3 27t1 25q0 56 -19.5 92t-60 54t-102.5 18q-40 0 -75.5 -8t-64.5 -25.5t-48 -45t-25 -65.5h-128q10 63 39 109.5t74.5 78t107 47t136.5 15.5q97 0 163.5 -31.5t101 -90.5t34.5 -142
q0 -30 -4 -62.5t-12 -67.5q-23 -108 -69.5 -178t-121.5 -104t-186 -34zM361 94q60 0 102.5 19t71 60t45.5 105h-393q-2 -13 -3.5 -24.5t-1.5 -22.5q0 -49 22 -79t62.5 -44t94.5 -14z" />
    <glyph glyph-name="florin" unicode="&#x192;" horiz-adv-x="580" 
d="M60 -182q-14 0 -29 2t-28 5.5t-21 7.5l30 85h50q22 0 38 11.5t23 33.5l161 463h-76l36 100h76l24 67q13 35 33.5 66.5t56 51.5t91.5 20q15 0 29.5 -2t27.5 -5.5t21 -7.5l-30 -85h-50q-22 0 -37.5 -11.5t-23.5 -33.5l-20 -60h95l-36 -100h-95l-166 -470q-12 -34 -33.5 -66
t-56.5 -52t-90 -20z" />
    <glyph glyph-name="uni019D" unicode="&#x19d;" horiz-adv-x="732" 
d="M3 -182q-15 0 -32.5 2.5t-32.5 6t-26 6.5l15 85h46q22 0 34 11t16 33l128 724h124l209 -399q5 -9 11.5 -22.5t13.5 -27.5t12 -25l6 1q2 16 5 37t5 33l70 403h125l-121 -686h-123l-199 383q-9 17 -23 45.5t-24 48.5h-6q-2 -17 -6 -42.5t-7 -42.5l-76 -439
q-4 -24 -13.5 -47.5t-26 -43.5t-42 -32t-62.5 -12z" />
    <glyph glyph-name="Ohorn" unicode="&#x1a0;" horiz-adv-x="782" 
d="M359 -12q-97 0 -166 30t-105.5 89.5t-36.5 148.5q0 24 1.5 47t5.5 45q18 109 69 187.5t133 120.5t192 42q97 0 166 -30t106 -89.5t37 -148.5q0 -22 -1.5 -44t-5.5 -44q-17 -110 -68.5 -189.5t-134 -122t-192.5 -42.5zM357 99q55 0 98.5 15.5t76 45.5t53.5 74t31 101
q3 16 5 29t3 23t1.5 19t0.5 17q0 52 -19.5 89t-58.5 56.5t-96 19.5q-54 0 -97.5 -15.5t-76 -45.5t-53.5 -74t-31 -101q-3 -16 -4.5 -29t-2.5 -23.5t-1.5 -19t-0.5 -16.5q0 -52 19.5 -89t58 -56.5t94.5 -19.5zM634 558l11 64q52 7 87 25.5t52 52.5h-64l23 129h147l-10 -54
q-11 -67 -41.5 -111.5t-81 -70t-123.5 -35.5z" />
    <glyph glyph-name="ohorn" unicode="&#x1a1;" horiz-adv-x="598" 
d="M260 -12q-76 0 -127 21.5t-76.5 66t-25.5 112.5q0 19 2 40t6 43q16 92 54.5 151t99.5 87.5t144 28.5q77 0 128 -21.5t76.5 -66t25.5 -113.5q0 -19 -2 -39t-6 -43q-16 -92 -53.5 -151t-98 -87.5t-147.5 -28.5zM268 88q48 0 80.5 18.5t52.5 56t30 93.5q4 18 5.5 31t2 23
t0.5 19q0 36 -11.5 60.5t-35.5 36.5t-63 12q-48 0 -80 -19t-52 -56t-31 -93q-3 -18 -5 -31.5t-3 -23.5t-1 -19q0 -36 11.5 -60t36.5 -36t63 -12zM480 415l11 64q54 0 93 22.5t46 56.5h-64l23 128h147l-16 -84q-10 -58 -43 -100t-83 -64.5t-114 -22.5z" />
    <glyph glyph-name="Uhorn" unicode="&#x1af;" horiz-adv-x="724" 
d="M332 -12q-127 0 -196.5 53.5t-69.5 157.5q0 14 1.5 30.5t4.5 32.5l74 424h130l-75 -426q-1 -7 -3 -19.5t-2 -22.5q0 -59 34.5 -89.5t101.5 -30.5q77 0 126 40.5t63 119.5l76 428h130l-76 -432q-16 -89 -57 -148.5t-106.5 -88.5t-155.5 -29zM629 622l11 64q52 7 87 25.5
t52 52.5h-64l23 129h147l-10 -54q-11 -67 -41.5 -111.5t-81 -70t-123.5 -35.5z" />
    <glyph glyph-name="uhorn" unicode="&#x1b0;" horiz-adv-x="583" 
d="M191 -12q-42 0 -77 13.5t-55.5 43t-20.5 78.5q0 18 3 37.5t7 41.5l57 324h123l-56 -316q-2 -14 -4 -26t-2 -23q0 -25 9 -39.5t25 -20.5t37 -6q27 0 52 9.5t45.5 28.5t35.5 47t21 64l50 282h123l-93 -526h-100v71h-7q-19 -23 -46.5 -42t-59.5 -30t-67 -11zM473 462l11 64
q54 0 93 22.5t46 56.5h-64l23 128h147l-16 -84q-10 -58 -43 -100t-83 -64.5t-114 -22.5z" />
    <glyph glyph-name="uni01C4" unicode="&#x1c4;" horiz-adv-x="1352" 
d="M30 0l121 686h259q140 0 217.5 -65.5t77.5 -205.5q0 -25 -2 -49t-6 -47q-17 -99 -67.5 -170.5t-128.5 -110t-179 -38.5h-292zM180 111h136q49 0 90 14.5t72.5 41.5t52 67t29.5 91q4 20 6 35.5t3 28t1 23.5q0 55 -19 91t-56 54t-91 18h-143zM701 0l11 62l447 513h-332
l20 111h533l-11 -63l-448 -512h367l-20 -111h-567zM1311 868l-130 -132h-122l-81 132h106l65 -105l-56 1l105 104h113z" />
    <glyph glyph-name="uni01C5" unicode="&#x1c5;" horiz-adv-x="1237" 
d="M30 0l121 686h259q140 0 217.5 -65.5t77.5 -205.5q0 -25 -2 -49t-6 -47q-17 -99 -67.5 -170.5t-128.5 -110t-179 -38.5h-292zM180 111h136q49 0 90 14.5t72.5 41.5t52 67t29.5 91q4 20 6 35.5t3 28t1 23.5q0 55 -19 91t-56 54t-91 18h-143zM709 0l11 57l319 369h-238
l17 100h427l-10 -56l-321 -370h268l-18 -100h-455zM1222 723l-130 -132h-114l-81 132h103l65 -104h-56l104 104h109z" />
    <glyph glyph-name="uni01C6" unicode="&#x1c6;" horiz-adv-x="1101" 
d="M210 -12q-55 0 -95 24t-61.5 67.5t-21.5 102.5q0 20 2 42.5t6 47.5q12 69 35.5 119t55 82.5t69.5 48.5t80 16q39 0 69 -8t52 -24t34 -41h6l45 258h122l-127 -723h-99v70h-7q-31 -41 -74 -61.5t-91 -20.5zM256 93q42 0 71.5 19t48.5 55.5t28 89.5q3 17 4.5 29.5t2.5 22.5
t1 19q0 34 -10 57.5t-31.5 35.5t-54.5 12q-44 0 -73 -17t-47 -52t-28 -89q-3 -20 -5.5 -35t-3.5 -26.5t-1 -21.5q0 -50 23.5 -74.5t74.5 -24.5zM573 0l11 57l319 369h-238l17 100h427l-10 -56l-321 -370h268l-18 -100h-455zM1086 723l-130 -132h-114l-81 132h103l65 -104
h-56l104 104h109z" />
    <glyph glyph-name="uni01C7" unicode="&#x1c7;" horiz-adv-x="1135" 
d="M31 0l120 686h130l-100 -573h344l-20 -113h-474zM792 -12q-107 0 -164.5 41.5t-57.5 123.5q0 10 1.5 26.5t8.5 48.5h129q-6 -28 -7 -41.5t-1 -18.5q0 -34 23.5 -52t71.5 -18q53 0 87 36t45 101l79 451h131l-79 -451q-15 -84 -50.5 -139t-90 -81.5t-126.5 -26.5z" />
    <glyph glyph-name="uni01C8" unicode="&#x1c8;" horiz-adv-x="820" 
d="M31 0l120 686h130l-100 -573h344l-20 -113h-474zM693 607l21 116h122l-20 -116h-123zM557 -182q-15 0 -32.5 2t-32.5 5.5t-25 7.5l14 85h49q23 0 35.5 11t16.5 33l100 564h122l-101 -573q-6 -33 -21.5 -64t-45.5 -51t-79 -20z" />
    <glyph glyph-name="uni01C9" unicode="&#x1c9;" horiz-adv-x="502" 
d="M19 0l127 723h122l-127 -723h-122zM375 607l21 116h122l-20 -116h-123zM239 -182q-15 0 -32.5 2t-32.5 5.5t-25 7.5l14 85h49q23 0 35.5 11t16.5 33l100 564h122l-101 -573q-6 -33 -21.5 -64t-45.5 -51t-79 -20z" />
    <glyph glyph-name="uni01CA" unicode="&#x1ca;" horiz-adv-x="1317" 
d="M30 0l121 686h124l209 -399q5 -9 11.5 -22.5t13.5 -27.5t12 -25l6 1q2 16 5 37t5 33l70 403h125l-121 -686h-123l-199 383q-9 17 -23 45.5t-24 48.5h-6q-2 -17 -6 -42.5t-7 -42.5l-68 -392h-125zM974 -12q-107 0 -164.5 41.5t-57.5 123.5q0 10 1.5 26.5t8.5 48.5h129
q-6 -28 -7 -41.5t-1 -18.5q0 -34 23.5 -52t71.5 -18q53 0 87 36t45 101l79 451h131l-79 -451q-15 -84 -50.5 -139t-90 -81.5t-126.5 -26.5z" />
    <glyph glyph-name="uni01CB" unicode="&#x1cb;" horiz-adv-x="982" 
d="M30 0l121 686h124l209 -399q5 -9 11.5 -22.5t13.5 -27.5t12 -25l6 1q2 16 5 37t5 33l70 403h125l-121 -686h-123l-199 383q-9 17 -23 45.5t-24 48.5h-6q-2 -17 -6 -42.5t-7 -42.5l-68 -392h-125zM855 607l21 116h122l-20 -116h-123zM719 -182q-15 0 -32.5 2t-32.5 5.5
t-25 7.5l14 85h49q23 0 35.5 11t16.5 33l100 564h122l-101 -573q-6 -33 -21.5 -64t-45.5 -51t-79 -20z" />
    <glyph glyph-name="uni01CC" unicode="&#x1cc;" horiz-adv-x="834" 
d="M19 0l92 526h100v-71h7q19 23 46.5 42t60 30t66.5 11q43 0 77 -13.5t54.5 -43t20.5 -78.5q0 -18 -2.5 -37.5t-6.5 -41.5l-58 -324h-122l56 315q2 14 4 26.5t2 23.5q0 25 -8.5 39t-24.5 20.5t-37 6.5q-27 0 -52.5 -9.5t-46 -28.5t-35.5 -47t-21 -64l-50 -282h-122z
M707 607l21 116h122l-20 -116h-123zM571 -182q-15 0 -32.5 2t-32.5 5.5t-25 7.5l14 85h49q23 0 35.5 11t16.5 33l100 564h122l-101 -573q-6 -33 -21.5 -64t-45.5 -51t-79 -20z" />
    <glyph glyph-name="uni01CD" unicode="&#x1cd;" horiz-adv-x="709" 
d="M-40 0l386 686h164l147 -686h-133l-30 146h-317l-80 -146h-137zM239 256h231l-36 182q-3 18 -6.5 36.5l-7 37t-5.5 34t-4 27.5h-5q-10 -20 -23 -46.5t-25.5 -51t-21.5 -40.5zM647 868l-130 -132h-122l-81 132h106l65 -105l-56 1l105 104h113z" />
    <glyph glyph-name="uni01CE" unicode="&#x1ce;" horiz-adv-x="587" 
d="M192 -12q-51 0 -90 22t-60.5 65t-21.5 107q0 20 2.5 41.5t6.5 46.5q16 93 50.5 152.5t84.5 87.5t112 28q34 0 62.5 -8t50.5 -24t35 -41h7l31 61h102l-24 -130q-7 -41 -14.5 -80.5t-13.5 -74t-11 -61.5t-7.5 -44t-2.5 -21q0 -14 8 -20.5t21 -6.5h33l-14 -84
q-10 -5 -29 -10.5t-45 -5.5t-45.5 10t-30.5 30q-4 9 -7 20.5t-3 24.5h-7q-33 -43 -78.5 -64t-101.5 -21zM246 93q27 0 51 11t43 32t33 51.5t21 69.5q3 17 4.5 29.5t2 22.5t0.5 18q0 35 -10 58.5t-31 35.5t-54 12q-44 0 -73.5 -17.5t-47.5 -54t-29 -92.5q-3 -18 -5 -32
t-3 -25t-1 -20q0 -50 23.5 -74.5t75.5 -24.5zM520 723l-130 -132h-114l-81 132h103l65 -104h-56l104 104h109z" />
    <glyph glyph-name="uni01CF" unicode="&#x1cf;" horiz-adv-x="282" 
d="M30 0l121 686h130l-121 -686h-130zM427 868l-130 -132h-122l-81 132h106l65 -105l-56 1l105 104h113z" />
    <glyph glyph-name="uni01D0" unicode="&#x1d0;" horiz-adv-x="252" 
d="M19 0l93 526h122l-93 -526h-122zM371 723l-130 -132h-114l-81 132h103l65 -104h-56l104 104h109z" />
    <glyph glyph-name="uni01D1" unicode="&#x1d1;" horiz-adv-x="782" 
d="M359 -12q-97 0 -166 30t-105.5 89.5t-36.5 148.5q0 24 1.5 47t5.5 45q18 109 69 187.5t133 120.5t192 42q97 0 166 -30t106 -89.5t37 -148.5q0 -22 -1.5 -44t-5.5 -44q-17 -110 -68.5 -189.5t-134 -122t-192.5 -42.5zM357 99q55 0 98.5 15.5t76 45.5t53.5 74t31 101
q3 16 5 29t3 23t1.5 19t0.5 17q0 52 -19.5 89t-58.5 56.5t-96 19.5q-54 0 -97.5 -15.5t-76 -45.5t-53.5 -74t-31 -101q-3 -16 -4.5 -29t-2.5 -23.5t-1.5 -19t-0.5 -16.5q0 -52 19.5 -89t58 -56.5t94.5 -19.5zM677 868l-130 -132h-122l-81 132h106l65 -105l-56 1l105 104h113
z" />
    <glyph glyph-name="uni01D2" unicode="&#x1d2;" horiz-adv-x="598" 
d="M260 -12q-76 0 -127 21.5t-76.5 66t-25.5 112.5q0 19 2 40t6 43q16 92 54.5 151t99.5 87.5t144 28.5q77 0 128 -21.5t76.5 -66t25.5 -113.5q0 -19 -2 -39t-6 -43q-16 -92 -53.5 -151t-98 -87.5t-147.5 -28.5zM268 88q48 0 80.5 18.5t52.5 56t30 93.5q4 18 5.5 31t2 23
t0.5 19q0 36 -11.5 60.5t-35.5 36.5t-63 12q-48 0 -80 -19t-52 -56t-31 -93q-3 -18 -5 -31.5t-3 -23.5t-1 -19q0 -36 11.5 -60t36.5 -36t63 -12zM544 723l-130 -132h-114l-81 132h103l65 -104h-56l104 104h109z" />
    <glyph glyph-name="uni01D3" unicode="&#x1d3;" horiz-adv-x="724" 
d="M332 -12q-127 0 -196.5 53.5t-69.5 157.5q0 14 1.5 30.5t4.5 32.5l74 424h130l-75 -426q-1 -7 -3 -19.5t-2 -22.5q0 -59 34.5 -89.5t101.5 -30.5q77 0 126 40.5t63 119.5l76 428h130l-76 -432q-16 -89 -57 -148.5t-106.5 -88.5t-155.5 -29zM656 868l-130 -132h-122
l-81 132h106l65 -105l-56 1l105 104h113z" />
    <glyph glyph-name="uni01D4" unicode="&#x1d4;" horiz-adv-x="583" 
d="M191 -12q-42 0 -77 13.5t-55.5 43t-20.5 78.5q0 18 3 37.5t7 41.5l57 324h123l-56 -316q-2 -14 -4 -26t-2 -23q0 -25 9 -39.5t25 -20.5t37 -6q27 0 52 9.5t45.5 28.5t35.5 47t21 64l50 282h123l-93 -526h-100v71h-7q-19 -23 -46.5 -42t-59.5 -30t-67 -11zM533 723
l-130 -132h-114l-81 132h103l65 -104h-56l104 104h109z" />
    <glyph glyph-name="uni01D5" unicode="&#x1d5;" horiz-adv-x="724" 
d="M332 -12q-127 0 -196.5 53.5t-69.5 157.5q0 14 1.5 30.5t4.5 32.5l74 424h130l-75 -426q-1 -7 -3 -19.5t-2 -22.5q0 -59 34.5 -89.5t101.5 -30.5q77 0 126 40.5t63 119.5l76 428h130l-76 -432q-16 -89 -57 -148.5t-106.5 -88.5t-155.5 -29zM303 757l18 111h109l-19 -111
h-108zM505 757l19 111h110l-19 -111h-110zM337 931l14 83h305l-14 -83h-305z" />
    <glyph glyph-name="uni01D6" unicode="&#x1d6;" horiz-adv-x="583" 
d="M191 -12q-42 0 -77 13.5t-55.5 43t-20.5 78.5q0 18 3 37.5t7 41.5l57 324h123l-56 -316q-2 -14 -4 -26t-2 -23q0 -25 9 -39.5t25 -20.5t37 -6q27 0 52 9.5t45.5 28.5t35.5 47t21 64l50 282h123l-93 -526h-100v71h-7q-19 -23 -46.5 -42t-59.5 -30t-67 -11zM194 612l19 111
h108l-19 -111h-108zM397 612l19 111h109l-19 -111h-109zM228 791l14 83h304l-14 -83h-304z" />
    <glyph glyph-name="uni01D7" unicode="&#x1d7;" horiz-adv-x="724" 
d="M332 -12q-127 0 -196.5 53.5t-69.5 157.5q0 14 1.5 30.5t4.5 32.5l74 424h130l-75 -426q-1 -7 -3 -19.5t-2 -22.5q0 -59 34.5 -89.5t101.5 -30.5q77 0 126 40.5t63 119.5l76 428h130l-76 -432q-16 -89 -57 -148.5t-106.5 -88.5t-155.5 -29zM303 757l18 111h109l-19 -111
h-108zM505 757l19 111h110l-19 -111h-110zM428 910l105 132h132v-3l-131 -129h-106z" />
    <glyph glyph-name="uni01D8" unicode="&#x1d8;" horiz-adv-x="583" 
d="M191 -12q-42 0 -77 13.5t-55.5 43t-20.5 78.5q0 18 3 37.5t7 41.5l57 324h123l-56 -316q-2 -14 -4 -26t-2 -23q0 -25 9 -39.5t25 -20.5t37 -6q27 0 52 9.5t45.5 28.5t35.5 47t21 64l50 282h123l-93 -526h-100v71h-7q-19 -23 -46.5 -42t-59.5 -30t-67 -11zM194 612l19 111
h108l-19 -111h-108zM397 612l19 111h109l-19 -111h-109zM315 765l103 132h129v-3l-129 -129h-103z" />
    <glyph glyph-name="uni01D9" unicode="&#x1d9;" horiz-adv-x="724" 
d="M332 -12q-127 0 -196.5 53.5t-69.5 157.5q0 14 1.5 30.5t4.5 32.5l74 424h130l-75 -426q-1 -7 -3 -19.5t-2 -22.5q0 -59 34.5 -89.5t101.5 -30.5q77 0 126 40.5t63 119.5l76 428h130l-76 -432q-16 -89 -57 -148.5t-106.5 -88.5t-155.5 -29zM303 757l18 111h109l-19 -111
h-108zM505 757l19 111h110l-19 -111h-110zM687 1042l-130 -132h-122l-81 132h106l65 -105l-56 1l105 104h113z" />
    <glyph glyph-name="uni01DA" unicode="&#x1da;" horiz-adv-x="583" 
d="M191 -12q-42 0 -77 13.5t-55.5 43t-20.5 78.5q0 18 3 37.5t7 41.5l57 324h123l-56 -316q-2 -14 -4 -26t-2 -23q0 -25 9 -39.5t25 -20.5t37 -6q27 0 52 9.5t45.5 28.5t35.5 47t21 64l50 282h123l-93 -526h-100v71h-7q-19 -23 -46.5 -42t-59.5 -30t-67 -11zM194 612l19 111
h108l-19 -111h-108zM397 612l19 111h109l-19 -111h-109zM563 897l-130 -132h-114l-81 132h103l65 -104h-56l104 104h109z" />
    <glyph glyph-name="uni01DB" unicode="&#x1db;" horiz-adv-x="724" 
d="M332 -12q-127 0 -196.5 53.5t-69.5 157.5q0 14 1.5 30.5t4.5 32.5l74 424h130l-75 -426q-1 -7 -3 -19.5t-2 -22.5q0 -59 34.5 -89.5t101.5 -30.5q77 0 126 40.5t63 119.5l76 428h130l-76 -432q-16 -89 -57 -148.5t-106.5 -88.5t-155.5 -29zM303 757l18 111h109l-19 -111
h-108zM505 757l19 111h110l-19 -111h-110zM441 910l-86 129l1 3h127l59 -132h-101z" />
    <glyph glyph-name="uni01DC" unicode="&#x1dc;" horiz-adv-x="583" 
d="M191 -12q-42 0 -77 13.5t-55.5 43t-20.5 78.5q0 18 3 37.5t7 41.5l57 324h123l-56 -316q-2 -14 -4 -26t-2 -23q0 -25 9 -39.5t25 -20.5t37 -6q27 0 52 9.5t45.5 28.5t35.5 47t21 64l50 282h123l-93 -526h-100v71h-7q-19 -23 -46.5 -42t-59.5 -30t-67 -11zM194 612l19 111
h108l-19 -111h-108zM397 612l19 111h109l-19 -111h-109zM329 765l-80 129l1 3h121l56 -132h-98z" />
    <glyph glyph-name="Gcaron" unicode="&#x1e6;" horiz-adv-x="794" 
d="M339 -12q-137 0 -212.5 65.5t-75.5 202.5q0 27 2.5 53.5t6.5 51.5q19 106 72.5 181.5t137 115.5t190.5 40q62 0 115.5 -12.5t94 -37.5t63 -63t22.5 -89q0 -10 -1 -21t-3 -23h-134q1 6 1 11.5v10.5q0 28 -11.5 49t-32.5 35.5t-49 22t-61 7.5q-55 0 -100 -15t-78.5 -43.5
t-55.5 -69.5t-32 -94q-3 -19 -5.5 -34t-4 -27.5t-2.5 -23t-1 -21.5q0 -55 18.5 -91t55 -53.5t90.5 -17.5q62 0 113 19.5t84 54.5t39 81l1 7h-218l20 108h348l-65 -368h-92v78q-33 -29 -69.5 -49.5t-78 -30.5t-92.5 -10zM673 868l-130 -132h-122l-81 132h106l65 -105l-56 1
l105 104h113z" />
    <glyph glyph-name="gcaron" unicode="&#x1e7;" horiz-adv-x="591" 
d="M206 -182q-57 0 -101.5 14t-69.5 40.5t-25 65.5q0 7 0.5 15.5t3.5 21.5h118q-1 -4 -1 -6v-4q0 -17 11.5 -27.5t31 -15t42.5 -4.5q44 0 75 16t50 47.5t27 77.5q2 9 3 17t2 12h-6q-19 -24 -43.5 -40.5t-54 -24.5t-63.5 -8q-52 0 -91 20.5t-60.5 63t-21.5 107.5
q0 17 1.5 36.5t5.5 41.5q23 132 87.5 193t157.5 61q55 0 96 -20.5t61 -61.5h7l22 70h101l-81 -460q-16 -90 -51 -144.5t-92.5 -79t-141.5 -24.5zM259 120q29 0 53.5 10t43 29.5t31 47.5t18.5 64q3 16 4.5 27t2 20t0.5 17q0 32 -10.5 54t-31.5 33t-55 11q-40 0 -70.5 -16
t-50 -49t-27.5 -85q-3 -17 -5 -30t-2.5 -22t-0.5 -18q0 -31 10 -51.5t32.5 -31t57.5 -10.5zM533 723l-130 -132h-114l-81 132h103l65 -104h-56l104 104h109z" />
    <glyph glyph-name="uni01EA" unicode="&#x1ea;" horiz-adv-x="782" 
d="M359 -12q-97 0 -166 30t-105.5 89.5t-36.5 148.5q0 24 1.5 47t5.5 45q18 109 69 187.5t133 120.5t192 42q97 0 166 -30t106 -89.5t37 -148.5q0 -22 -1.5 -44t-5.5 -44q-17 -110 -68.5 -189.5t-134 -122t-192.5 -42.5zM357 99q55 0 98.5 15.5t76 45.5t53.5 74t31 101
q3 16 5 29t3 23t1.5 19t0.5 17q0 52 -19.5 89t-58.5 56.5t-96 19.5q-54 0 -97.5 -15.5t-76 -45.5t-53.5 -74t-31 -101q-3 -16 -4.5 -29t-2.5 -23.5t-1.5 -19t-0.5 -16.5q0 -52 19.5 -89t58 -56.5t94.5 -19.5zM434 -182q-22 0 -43.5 6.5t-35 22t-13.5 42.5q0 29 11.5 51.5
t29 40t33.5 31.5h78l-1 -4q-15 -13 -31 -35.5t-16 -47.5q0 -16 9.5 -27.5t31.5 -11.5h39l-9 -54q-19 -7 -42.5 -10.5t-40.5 -3.5z" />
    <glyph glyph-name="uni01EB" unicode="&#x1eb;" horiz-adv-x="598" 
d="M260 -12q-76 0 -127 21.5t-76.5 66t-25.5 112.5q0 19 2 40t6 43q16 92 54.5 151t99.5 87.5t144 28.5q77 0 128 -21.5t76.5 -66t25.5 -113.5q0 -19 -2 -39t-6 -43q-16 -92 -53.5 -151t-98 -87.5t-147.5 -28.5zM268 88q48 0 80.5 18.5t52.5 56t30 93.5q4 18 5.5 31t2 23
t0.5 19q0 36 -11.5 60.5t-35.5 36.5t-63 12q-48 0 -80 -19t-52 -56t-31 -93q-3 -18 -5 -31.5t-3 -23.5t-1 -19q0 -36 11.5 -60t36.5 -36t63 -12zM328 -182q-22 0 -43.5 6.5t-35 22t-13.5 42.5q0 29 11.5 51.5t29 40t33.5 31.5h78l-1 -4q-15 -13 -31 -35.5t-16 -47.5
q0 -16 9.5 -27.5t31.5 -11.5h39l-9 -54q-19 -7 -42.5 -10.5t-40.5 -3.5z" />
    <glyph glyph-name="Aringacute" unicode="&#x1fa;" horiz-adv-x="709" 
d="M-40 0l386 686h164l147 -686h-133l-30 146h-317l-80 -146h-137zM239 256h231l-36 182q-3 18 -6.5 36.5l-7 37t-5.5 34t-4 27.5h-5q-10 -20 -23 -46.5t-25.5 -51t-21.5 -40.5zM447 729q-42 0 -69 24t-27 61q0 33 16.5 59t45 40.5t65.5 14.5q42 0 69 -23.5t27 -60.5
q0 -33 -16.5 -59t-45 -41t-65.5 -15zM455 790q16 0 27.5 5.5t18.5 15.5t7 22q0 15 -10.5 24.5t-27.5 9.5q-15 0 -26.5 -5.5t-18.5 -15.5t-7 -23q0 -14 10.5 -23.5t26.5 -9.5zM428 960l105 132h132v-3l-131 -129h-106z" />
    <glyph glyph-name="aringacute" unicode="&#x1fb;" horiz-adv-x="587" 
d="M192 -12q-51 0 -90 22t-60.5 65t-21.5 107q0 20 2.5 41.5t6.5 46.5q16 93 50.5 152.5t84.5 87.5t112 28q34 0 62.5 -8t50.5 -24t35 -41h7l31 61h102l-24 -130q-7 -41 -14.5 -80.5t-13.5 -74t-11 -61.5t-7.5 -44t-2.5 -21q0 -14 8 -20.5t21 -6.5h33l-14 -84
q-10 -5 -29 -10.5t-45 -5.5t-45.5 10t-30.5 30q-4 9 -7 20.5t-3 24.5h-7q-33 -43 -78.5 -64t-101.5 -21zM246 93q27 0 51 11t43 32t33 51.5t21 69.5q3 17 4.5 29.5t2 22.5t0.5 18q0 35 -10 58.5t-31 35.5t-54 12q-44 0 -73.5 -17.5t-47.5 -54t-29 -92.5q-3 -18 -5 -32
t-3 -25t-1 -20q0 -50 23.5 -74.5t75.5 -24.5zM338 579q-39 0 -64.5 25t-25.5 63q0 48 32 79.5t81 31.5q37 0 61.5 -24.5t24.5 -62.5q0 -32 -14 -57.5t-38.5 -40t-56.5 -14.5zM340 632q16 0 27.5 6.5t18.5 18.5t7 27q0 18 -10.5 29.5t-27.5 11.5q-15 0 -27 -7t-19 -18.5
t-7 -27.5q0 -17 11 -28.5t27 -11.5zM311 820l103 132h129v-3l-129 -129h-103z" />
    <glyph glyph-name="AEacute" unicode="&#x1fc;" horiz-adv-x="999" 
d="M-49 0l456 686h607l-20 -111h-405l17 -169h315l-20 -111h-284l17 -184h285l-20 -111h-379l-13 147h-321l-95 -147h-140zM257 256h240l-24 270q0 6 -0.5 12t-1.5 12.5t-1.5 12.5t-0.5 12h-5q-5 -8 -10.5 -16t-10.5 -16.5t-11 -16.5zM513 736l105 132h132v-3l-131 -129
h-106z" />
    <glyph glyph-name="aeacute" unicode="&#x1fd;" horiz-adv-x="895" 
d="M200 -12q-28 0 -61 4.5t-62.5 18t-48.5 39t-19 67.5q0 49 19 84t53.5 58t81.5 36t104.5 18.5t121.5 5.5l7 43q1 6 1.5 11.5t0.5 10.5q0 26 -18 42t-68 16q-40 0 -63.5 -8.5t-34 -22t-14.5 -30.5l-2 -11h-119v6.5t1 7.5q8 47 39.5 81.5t81 53.5t111.5 19q65 0 108.5 -14
t68.5 -40q30 26 70.5 40t93.5 14q70 0 117 -21t71 -63.5t24 -107.5q0 -22 -3 -49.5t-11 -63.5h-354q-2 -12 -3 -22.5t-1 -20.5q0 -35 11 -59t35 -35.5t61 -11.5q24 0 44.5 6t36.5 18t26.5 31t14.5 45h120q-7 -50 -28 -87t-53 -61t-72 -36t-85 -12q-73 0 -124 19t-78 59
q-25 -25 -56 -42.5t-67 -26.5t-79 -9zM213 85q32 0 59 9t47 26t33 40t18 51l4 22q-63 0 -117 -7.5t-86.5 -29t-32.5 -62.5q0 -15 8 -26t25 -17t42 -6zM514 319h226q2 10 2.5 19t0.5 16q0 31 -10.5 50t-30 28t-46.5 9q-38 0 -66 -14t-46.5 -41t-29.5 -67zM457 591l103 132
h129v-3l-129 -129h-103z" />
    <glyph glyph-name="Oslashacute" unicode="&#x1fe;" horiz-adv-x="782" 
d="M359 -12q-97 0 -166 30t-105.5 89.5t-36.5 148.5q0 24 1.5 47t5.5 45q18 109 69 187.5t133 120.5t192 42q97 0 166 -30t106 -89.5t37 -148.5q0 -22 -1.5 -44t-5.5 -44q-17 -110 -68.5 -189.5t-134 -122t-192.5 -42.5zM357 99q55 0 98.5 15.5t76 45.5t53.5 74t31 101
q3 16 5 29t3 23t1.5 19t0.5 17q0 52 -19.5 89t-58.5 56.5t-96 19.5q-54 0 -97.5 -15.5t-76 -45.5t-53.5 -74t-31 -101q-3 -16 -4.5 -29t-2.5 -23.5t-1.5 -19t-0.5 -16.5q0 -52 19.5 -89t58 -56.5t94.5 -19.5zM-6 -49l715 784h108l-715 -784h-108zM418 736l105 132h132v-3
l-131 -129h-106z" />
    <glyph glyph-name="oslashacute" unicode="&#x1ff;" horiz-adv-x="598" 
d="M260 -12q-76 0 -127 21.5t-76.5 66t-25.5 112.5q0 19 2 40t6 43q16 92 54.5 151t99.5 87.5t144 28.5q77 0 128 -21.5t76.5 -66t25.5 -113.5q0 -19 -2 -39t-6 -43q-16 -92 -53.5 -151t-98 -87.5t-147.5 -28.5zM268 88q48 0 80.5 18.5t52.5 56t30 93.5q4 18 5.5 31t2 23
t0.5 19q0 36 -11.5 60.5t-35.5 36.5t-63 12q-48 0 -80 -19t-52 -56t-31 -93q-3 -18 -5 -31.5t-3 -23.5t-1 -19q0 -36 11.5 -60t36.5 -36t63 -12zM-16 -49l550 624h81l-549 -624h-82zM296 591l103 132h129v-3l-129 -129h-103z" />
    <glyph glyph-name="uni0200" unicode="&#x200;" horiz-adv-x="709" 
d="M-40 0l386 686h164l147 -686h-133l-30 146h-317l-80 -146h-137zM239 256h231l-36 182q-3 18 -6.5 36.5l-7 37t-5.5 34t-4 27.5h-5q-10 -20 -23 -46.5t-25.5 -51t-21.5 -40.5zM295 736l-78 129l2 3h123l50 -132h-97zM459 736l-77 129l2 3h122l50 -132h-97z" />
    <glyph glyph-name="uni0201" unicode="&#x201;" horiz-adv-x="587" 
d="M192 -12q-51 0 -90 22t-60.5 65t-21.5 107q0 20 2.5 41.5t6.5 46.5q16 93 50.5 152.5t84.5 87.5t112 28q34 0 62.5 -8t50.5 -24t35 -41h7l31 61h102l-24 -130q-7 -41 -14.5 -80.5t-13.5 -74t-11 -61.5t-7.5 -44t-2.5 -21q0 -14 8 -20.5t21 -6.5h33l-14 -84
q-10 -5 -29 -10.5t-45 -5.5t-45.5 10t-30.5 30q-4 9 -7 20.5t-3 24.5h-7q-33 -43 -78.5 -64t-101.5 -21zM246 93q27 0 51 11t43 32t33 51.5t21 69.5q3 17 4.5 29.5t2 22.5t0.5 18q0 35 -10 58.5t-31 35.5t-54 12q-44 0 -73.5 -17.5t-47.5 -54t-29 -92.5q-3 -18 -5 -32
t-3 -25t-1 -20q0 -50 23.5 -74.5t75.5 -24.5zM377 591l-78 129l2 3h122l50 -132h-96zM213 591l-78 129l2 3h122l50 -132h-96z" />
    <glyph glyph-name="uni0202" unicode="&#x202;" horiz-adv-x="709" 
d="M-40 0l386 686h164l147 -686h-133l-30 146h-317l-80 -146h-137zM239 256h231l-36 182q-3 18 -6.5 36.5l-7 37t-5.5 34t-4 27.5h-5q-10 -20 -23 -46.5t-25.5 -51t-21.5 -40.5zM289 737q6 31 26.5 61t58.5 50t95 20q58 0 88.5 -20t40.5 -50t5 -61h-80q0 11 -5.5 22t-20 19
t-41.5 8q-25 0 -43 -8t-28 -19t-13 -22h-83z" />
    <glyph glyph-name="uni0203" unicode="&#x203;" horiz-adv-x="587" 
d="M192 -12q-51 0 -90 22t-60.5 65t-21.5 107q0 20 2.5 41.5t6.5 46.5q16 93 50.5 152.5t84.5 87.5t112 28q34 0 62.5 -8t50.5 -24t35 -41h7l31 61h102l-24 -130q-7 -41 -14.5 -80.5t-13.5 -74t-11 -61.5t-7.5 -44t-2.5 -21q0 -14 8 -20.5t21 -6.5h33l-14 -84
q-10 -5 -29 -10.5t-45 -5.5t-45.5 10t-30.5 30q-4 9 -7 20.5t-3 24.5h-7q-33 -43 -78.5 -64t-101.5 -21zM246 93q27 0 51 11t43 32t33 51.5t21 69.5q3 17 4.5 29.5t2 22.5t0.5 18q0 35 -10 58.5t-31 35.5t-54 12q-44 0 -73.5 -17.5t-47.5 -54t-29 -92.5q-3 -18 -5 -32
t-3 -25t-1 -20q0 -50 23.5 -74.5t75.5 -24.5zM351 723q53 0 83.5 -15.5t44 -40t13.5 -52.5q0 -6 -0.5 -11.5t-1.5 -11.5h-81q0 17 -9 28t-24 16.5t-34 5.5q-26 0 -43.5 -8t-27.5 -19.5t-13 -22.5h-82q6 31 26 61t57 50t92 20z" />
    <glyph glyph-name="uni0204" unicode="&#x204;" horiz-adv-x="672" 
d="M30 0l121 686h536l-20 -111h-405l-30 -169h362l-19 -111h-363l-32 -184h412l-20 -111h-542zM279 736l-78 129l2 3h123l50 -132h-97zM443 736l-77 129l2 3h122l50 -132h-97z" />
    <glyph glyph-name="uni0205" unicode="&#x205;" horiz-adv-x="561" 
d="M268 -12q-78 0 -130.5 21.5t-78.5 66.5t-26 113q0 28 3 56t8 54q14 67 46.5 121t87.5 86t139 32q71 0 118.5 -21t71.5 -63.5t24 -107.5q0 -23 -3.5 -53.5t-11.5 -59.5h-356q-2 -12 -3 -22.5t-1 -20.5q0 -35 11.5 -58.5t35.5 -34.5t62 -11q24 0 44.5 5.5t36.5 17.5
t27 30.5t15 44.5h120q-8 -50 -29 -87t-53 -61t-72 -36t-86 -12zM176 319h229q2 10 2.5 19t0.5 16q0 31 -10.5 50t-30.5 28t-47 9q-38 0 -66 -14t-47 -41t-31 -67zM374 591l-78 129l2 3h122l50 -132h-96zM210 591l-78 129l2 3h122l50 -132h-96z" />
    <glyph glyph-name="uni0206" unicode="&#x206;" horiz-adv-x="672" 
d="M30 0l121 686h536l-20 -111h-405l-30 -169h362l-19 -111h-363l-32 -184h412l-20 -111h-542zM273 737q6 31 26.5 61t58.5 50t95 20q58 0 88.5 -20t40.5 -50t5 -61h-80q0 11 -5.5 22t-20 19t-41.5 8q-25 0 -43 -8t-28 -19t-13 -22h-83z" />
    <glyph glyph-name="uni0207" unicode="&#x207;" horiz-adv-x="561" 
d="M268 -12q-78 0 -130.5 21.5t-78.5 66.5t-26 113q0 28 3 56t8 54q14 67 46.5 121t87.5 86t139 32q71 0 118.5 -21t71.5 -63.5t24 -107.5q0 -23 -3.5 -53.5t-11.5 -59.5h-356q-2 -12 -3 -22.5t-1 -20.5q0 -35 11.5 -58.5t35.5 -34.5t62 -11q24 0 44.5 5.5t36.5 17.5
t27 30.5t15 44.5h120q-8 -50 -29 -87t-53 -61t-72 -36t-86 -12zM176 319h229q2 10 2.5 19t0.5 16q0 31 -10.5 50t-30.5 28t-47 9q-38 0 -66 -14t-47 -41t-31 -67zM348 723q53 0 83.5 -15.5t44 -40t13.5 -52.5q0 -6 -0.5 -11.5t-1.5 -11.5h-81q0 17 -9 28t-24 16.5t-34 5.5
q-26 0 -43.5 -8t-27.5 -19.5t-13 -22.5h-82q6 31 26 61t57 50t92 20z" />
    <glyph glyph-name="uni0208" unicode="&#x208;" horiz-adv-x="282" 
d="M30 0l121 686h130l-121 -686h-130zM75 736l-78 129l2 3h123l50 -132h-97zM239 736l-77 129l2 3h122l50 -132h-97z" />
    <glyph glyph-name="uni0209" unicode="&#x209;" horiz-adv-x="252" 
d="M19 0l93 526h122l-93 -526h-122zM228 591l-78 129l2 3h122l50 -132h-96zM64 591l-78 129l2 3h122l50 -132h-96z" />
    <glyph glyph-name="uni020A" unicode="&#x20a;" horiz-adv-x="282" 
d="M30 0l121 686h130l-121 -686h-130zM69 737q6 31 26.5 61t58.5 50t95 20q58 0 88.5 -20t40.5 -50t5 -61h-80q0 11 -5.5 22t-20 19t-41.5 8q-25 0 -43 -8t-28 -19t-13 -22h-83z" />
    <glyph glyph-name="uni020B" unicode="&#x20b;" horiz-adv-x="252" 
d="M19 0l93 526h122l-93 -526h-122zM202 723q53 0 83.5 -15.5t44 -40t13.5 -52.5q0 -6 -0.5 -11.5t-1.5 -11.5h-81q0 17 -9 28t-24 16.5t-34 5.5q-26 0 -43.5 -8t-27.5 -19.5t-13 -22.5h-82q6 31 26 61t57 50t92 20z" />
    <glyph glyph-name="uni020C" unicode="&#x20c;" horiz-adv-x="782" 
d="M359 -12q-97 0 -166 30t-105.5 89.5t-36.5 148.5q0 24 1.5 47t5.5 45q18 109 69 187.5t133 120.5t192 42q97 0 166 -30t106 -89.5t37 -148.5q0 -22 -1.5 -44t-5.5 -44q-17 -110 -68.5 -189.5t-134 -122t-192.5 -42.5zM357 99q55 0 98.5 15.5t76 45.5t53.5 74t31 101
q3 16 5 29t3 23t1.5 19t0.5 17q0 52 -19.5 89t-58.5 56.5t-96 19.5q-54 0 -97.5 -15.5t-76 -45.5t-53.5 -74t-31 -101q-3 -16 -4.5 -29t-2.5 -23.5t-1.5 -19t-0.5 -16.5q0 -52 19.5 -89t58 -56.5t94.5 -19.5zM325 736l-78 129l2 3h123l50 -132h-97zM489 736l-77 129l2 3h122
l50 -132h-97z" />
    <glyph glyph-name="uni020D" unicode="&#x20d;" horiz-adv-x="598" 
d="M260 -12q-76 0 -127 21.5t-76.5 66t-25.5 112.5q0 19 2 40t6 43q16 92 54.5 151t99.5 87.5t144 28.5q77 0 128 -21.5t76.5 -66t25.5 -113.5q0 -19 -2 -39t-6 -43q-16 -92 -53.5 -151t-98 -87.5t-147.5 -28.5zM268 88q48 0 80.5 18.5t52.5 56t30 93.5q4 18 5.5 31t2 23
t0.5 19q0 36 -11.5 60.5t-35.5 36.5t-63 12q-48 0 -80 -19t-52 -56t-31 -93q-3 -18 -5 -31.5t-3 -23.5t-1 -19q0 -36 11.5 -60t36.5 -36t63 -12zM401 591l-78 129l2 3h122l50 -132h-96zM237 591l-78 129l2 3h122l50 -132h-96z" />
    <glyph glyph-name="uni020E" unicode="&#x20e;" horiz-adv-x="782" 
d="M359 -12q-97 0 -166 30t-105.5 89.5t-36.5 148.5q0 24 1.5 47t5.5 45q18 109 69 187.5t133 120.5t192 42q97 0 166 -30t106 -89.5t37 -148.5q0 -22 -1.5 -44t-5.5 -44q-17 -110 -68.5 -189.5t-134 -122t-192.5 -42.5zM357 99q55 0 98.5 15.5t76 45.5t53.5 74t31 101
q3 16 5 29t3 23t1.5 19t0.5 17q0 52 -19.5 89t-58.5 56.5t-96 19.5q-54 0 -97.5 -15.5t-76 -45.5t-53.5 -74t-31 -101q-3 -16 -4.5 -29t-2.5 -23.5t-1.5 -19t-0.5 -16.5q0 -52 19.5 -89t58 -56.5t94.5 -19.5zM319 737q6 31 26.5 61t58.5 50t95 20q58 0 88.5 -20t40.5 -50
t5 -61h-80q0 11 -5.5 22t-20 19t-41.5 8q-25 0 -43 -8t-28 -19t-13 -22h-83z" />
    <glyph glyph-name="uni020F" unicode="&#x20f;" horiz-adv-x="598" 
d="M260 -12q-76 0 -127 21.5t-76.5 66t-25.5 112.5q0 19 2 40t6 43q16 92 54.5 151t99.5 87.5t144 28.5q77 0 128 -21.5t76.5 -66t25.5 -113.5q0 -19 -2 -39t-6 -43q-16 -92 -53.5 -151t-98 -87.5t-147.5 -28.5zM268 88q48 0 80.5 18.5t52.5 56t30 93.5q4 18 5.5 31t2 23
t0.5 19q0 36 -11.5 60.5t-35.5 36.5t-63 12q-48 0 -80 -19t-52 -56t-31 -93q-3 -18 -5 -31.5t-3 -23.5t-1 -19q0 -36 11.5 -60t36.5 -36t63 -12zM375 723q53 0 83.5 -15.5t44 -40t13.5 -52.5q0 -6 -0.5 -11.5t-1.5 -11.5h-81q0 17 -9 28t-24 16.5t-34 5.5q-26 0 -43.5 -8
t-27.5 -19.5t-13 -22.5h-82q6 31 26 61t57 50t92 20z" />
    <glyph glyph-name="uni0210" unicode="&#x210;" horiz-adv-x="717" 
d="M30 0l121 686h342q72 0 119 -21t70.5 -59t23.5 -91q0 -59 -18 -106t-52.5 -80.5t-86.5 -52.5l93 -276h-138l-81 254h-218l-45 -254h-130zM225 364h218q37 0 66 16.5t46 46.5t17 71q0 37 -22.5 57t-66.5 20h-221zM313 736l-78 129l2 3h123l50 -132h-97zM477 736l-77 129
l2 3h122l50 -132h-97z" />
    <glyph glyph-name="uni0211" unicode="&#x211;" horiz-adv-x="362" 
d="M19 0l93 526h98v-83h6q14 25 31.5 46.5t41.5 35t57 13.5q18 0 32 -3t21 -6l-19 -115h-38q-31 0 -57 -9t-45.5 -27t-32.5 -45.5t-19 -64.5l-47 -268h-122zM311 591l-78 129l2 3h122l50 -132h-96zM147 591l-78 129l2 3h122l50 -132h-96z" />
    <glyph glyph-name="uni0212" unicode="&#x212;" horiz-adv-x="717" 
d="M30 0l121 686h342q72 0 119 -21t70.5 -59t23.5 -91q0 -59 -18 -106t-52.5 -80.5t-86.5 -52.5l93 -276h-138l-81 254h-218l-45 -254h-130zM225 364h218q37 0 66 16.5t46 46.5t17 71q0 37 -22.5 57t-66.5 20h-221zM307 737q6 31 26.5 61t58.5 50t95 20q58 0 88.5 -20
t40.5 -50t5 -61h-80q0 11 -5.5 22t-20 19t-41.5 8q-25 0 -43 -8t-28 -19t-13 -22h-83z" />
    <glyph glyph-name="uni0213" unicode="&#x213;" horiz-adv-x="362" 
d="M19 0l93 526h98v-83h6q14 25 31.5 46.5t41.5 35t57 13.5q18 0 32 -3t21 -6l-19 -115h-38q-31 0 -57 -9t-45.5 -27t-32.5 -45.5t-19 -64.5l-47 -268h-122zM285 723q53 0 83.5 -15.5t44 -40t13.5 -52.5q0 -6 -0.5 -11.5t-1.5 -11.5h-81q0 17 -9 28t-24 16.5t-34 5.5
q-26 0 -43.5 -8t-27.5 -19.5t-13 -22.5h-82q6 31 26 61t57 50t92 20z" />
    <glyph glyph-name="uni0214" unicode="&#x214;" horiz-adv-x="724" 
d="M332 -12q-127 0 -196.5 53.5t-69.5 157.5q0 14 1.5 30.5t4.5 32.5l74 424h130l-75 -426q-1 -7 -3 -19.5t-2 -22.5q0 -59 34.5 -89.5t101.5 -30.5q77 0 126 40.5t63 119.5l76 428h130l-76 -432q-16 -89 -57 -148.5t-106.5 -88.5t-155.5 -29zM304 736l-78 129l2 3h123
l50 -132h-97zM468 736l-77 129l2 3h122l50 -132h-97z" />
    <glyph glyph-name="uni0215" unicode="&#x215;" horiz-adv-x="583" 
d="M191 -12q-42 0 -77 13.5t-55.5 43t-20.5 78.5q0 18 3 37.5t7 41.5l57 324h123l-56 -316q-2 -14 -4 -26t-2 -23q0 -25 9 -39.5t25 -20.5t37 -6q27 0 52 9.5t45.5 28.5t35.5 47t21 64l50 282h123l-93 -526h-100v71h-7q-19 -23 -46.5 -42t-59.5 -30t-67 -11zM390 591
l-78 129l2 3h122l50 -132h-96zM226 591l-78 129l2 3h122l50 -132h-96z" />
    <glyph glyph-name="uni0216" unicode="&#x216;" horiz-adv-x="724" 
d="M332 -12q-127 0 -196.5 53.5t-69.5 157.5q0 14 1.5 30.5t4.5 32.5l74 424h130l-75 -426q-1 -7 -3 -19.5t-2 -22.5q0 -59 34.5 -89.5t101.5 -30.5q77 0 126 40.5t63 119.5l76 428h130l-76 -432q-16 -89 -57 -148.5t-106.5 -88.5t-155.5 -29zM298 737q6 31 26.5 61t58.5 50
t95 20q58 0 88.5 -20t40.5 -50t5 -61h-80q0 11 -5.5 22t-20 19t-41.5 8q-25 0 -43 -8t-28 -19t-13 -22h-83z" />
    <glyph glyph-name="uni0217" unicode="&#x217;" horiz-adv-x="583" 
d="M191 -12q-42 0 -77 13.5t-55.5 43t-20.5 78.5q0 18 3 37.5t7 41.5l57 324h123l-56 -316q-2 -14 -4 -26t-2 -23q0 -25 9 -39.5t25 -20.5t37 -6q27 0 52 9.5t45.5 28.5t35.5 47t21 64l50 282h123l-93 -526h-100v71h-7q-19 -23 -46.5 -42t-59.5 -30t-67 -11zM364 723
q53 0 83.5 -15.5t44 -40t13.5 -52.5q0 -6 -0.5 -11.5t-1.5 -11.5h-81q0 17 -9 28t-24 16.5t-34 5.5q-26 0 -43.5 -8t-27.5 -19.5t-13 -22.5h-82q6 31 26 61t57 50t92 20z" />
    <glyph glyph-name="uni0218" unicode="&#x218;" horiz-adv-x="667" 
d="M312 -12q-60 0 -112 10.5t-91 32t-61 54.5t-22 78q0 14 2.5 30t5.5 27h131q-1 -6 -3.5 -16.5t-2.5 -18.5q0 -27 17 -46.5t49 -29.5t76 -10q45 0 77.5 7t53.5 19.5t31 30.5t10 39q0 23 -13.5 39t-36.5 28t-52 21t-61 18q-37 11 -74.5 24.5t-69 34.5t-50 51.5t-18.5 74.5
q0 54 22.5 93.5t62 66t91 39.5t108.5 13q56 0 103.5 -9.5t83 -29t55.5 -50.5t20 -73q0 -9 -1 -20.5t-4 -29.5h-129q3 11 3.5 16.5t0.5 8.5q0 36 -33.5 56.5t-91.5 20.5q-47 0 -82.5 -10t-55 -28.5t-19.5 -45.5q0 -18 11 -31.5t30.5 -23t45 -18t53.5 -16.5q40 -12 81.5 -26
t77 -35.5t57 -54t21.5 -79.5q0 -64 -25.5 -108t-68 -71.5t-95.5 -40t-108 -12.5zM164 -310l9 51q32 0 51 19.5t23 43.5h-55l22 120h120l-17 -94q-9 -50 -32.5 -81t-55 -45t-65.5 -14z" />
    <glyph glyph-name="uni0219" unicode="&#x219;" horiz-adv-x="541" 
d="M238 -12q-55 0 -97 10t-70.5 28t-42.5 43.5t-14 55.5q0 12 2.5 23t4.5 17h119q-1 -4 -2 -10t-1 -8q0 -23 14 -37t37.5 -20t50.5 -6q21 0 41.5 3.5t37.5 10.5t27 19t10 30t-11 29.5t-29.5 19.5t-42 14.5t-49.5 13.5q-28 8 -56 18t-50.5 25t-36 38t-13.5 56q0 43 18 76
t50 55.5t74.5 34t91.5 11.5q47 0 85.5 -8.5t66 -24.5t42.5 -38.5t15 -50.5q0 -16 -3 -29t-4 -15h-119q1 5 1.5 9t0.5 7q0 17 -10 29t-29 18.5t-48 6.5q-27 0 -46.5 -4.5t-32.5 -12.5t-19.5 -18.5t-6.5 -21.5q0 -21 19 -32.5t49 -19t64 -18.5q29 -9 56.5 -18.5t50.5 -24.5
t36.5 -38.5t13.5 -58.5q0 -52 -20 -88t-54.5 -57.5t-78.5 -31.5t-92 -10zM114 -310l9 51q32 0 51 19.5t23 43.5h-55l22 120h120l-17 -94q-9 -50 -32.5 -81t-55 -45t-65.5 -14z" />
    <glyph glyph-name="uni021A" unicode="&#x21a;" horiz-adv-x="619" 
d="M198 0l101 574h-219l20 112h568l-19 -112h-220l-101 -574h-130zM142 -310l9 51q32 0 51 19.5t23 43.5h-55l22 120h120l-17 -94q-9 -50 -32.5 -81t-55 -45t-65.5 -14z" />
    <glyph glyph-name="uni021B" unicode="&#x21b;" horiz-adv-x="314" 
d="M166 -12q-43 0 -66.5 14.5t-33.5 38t-10 51.5q0 8 1 16l2 16l52 302h-63l17 100h66l48 147h97l-26 -147h91l-17 -100h-91l-49 -277q-1 -3 -2.5 -14t-1.5 -13q0 -16 9.5 -25t28.5 -9h47l-15 -84q-10 -4 -24.5 -7.5t-30 -6t-29.5 -2.5zM25 -310l9 51q32 0 51 19.5t23 43.5
h-55l22 120h120l-17 -94q-9 -50 -32.5 -81t-55 -45t-65.5 -14z" />
    <glyph glyph-name="uni022A" unicode="&#x22a;" horiz-adv-x="782" 
d="M359 -12q-97 0 -166 30t-105.5 89.5t-36.5 148.5q0 24 1.5 47t5.5 45q18 109 69 187.5t133 120.5t192 42q97 0 166 -30t106 -89.5t37 -148.5q0 -22 -1.5 -44t-5.5 -44q-17 -110 -68.5 -189.5t-134 -122t-192.5 -42.5zM357 99q55 0 98.5 15.5t76 45.5t53.5 74t31 101
q3 16 5 29t3 23t1.5 19t0.5 17q0 52 -19.5 89t-58.5 56.5t-96 19.5q-54 0 -97.5 -15.5t-76 -45.5t-53.5 -74t-31 -101q-3 -16 -4.5 -29t-2.5 -23.5t-1.5 -19t-0.5 -16.5q0 -52 19.5 -89t58 -56.5t94.5 -19.5zM324 757l18 111h109l-19 -111h-108zM526 757l19 111h110
l-19 -111h-110zM358 931l14 83h305l-14 -83h-305z" />
    <glyph glyph-name="uni022B" unicode="&#x22b;" horiz-adv-x="598" 
d="M260 -12q-76 0 -127 21.5t-76.5 66t-25.5 112.5q0 19 2 40t6 43q16 92 54.5 151t99.5 87.5t144 28.5q77 0 128 -21.5t76.5 -66t25.5 -113.5q0 -19 -2 -39t-6 -43q-16 -92 -53.5 -151t-98 -87.5t-147.5 -28.5zM268 88q48 0 80.5 18.5t52.5 56t30 93.5q4 18 5.5 31t2 23
t0.5 19q0 36 -11.5 60.5t-35.5 36.5t-63 12q-48 0 -80 -19t-52 -56t-31 -93q-3 -18 -5 -31.5t-3 -23.5t-1 -19q0 -36 11.5 -60t36.5 -36t63 -12zM205 612l19 111h108l-19 -111h-108zM408 612l19 111h109l-19 -111h-109zM239 791l14 83h304l-14 -83h-304z" />
    <glyph glyph-name="uni022C" unicode="&#x22c;" horiz-adv-x="782" 
d="M359 -12q-97 0 -166 30t-105.5 89.5t-36.5 148.5q0 24 1.5 47t5.5 45q18 109 69 187.5t133 120.5t192 42q97 0 166 -30t106 -89.5t37 -148.5q0 -22 -1.5 -44t-5.5 -44q-17 -110 -68.5 -189.5t-134 -122t-192.5 -42.5zM357 99q55 0 98.5 15.5t76 45.5t53.5 74t31 101
q3 16 5 29t3 23t1.5 19t0.5 17q0 52 -19.5 89t-58.5 56.5t-96 19.5q-54 0 -97.5 -15.5t-76 -45.5t-53.5 -74t-31 -101q-3 -16 -4.5 -29t-2.5 -23.5t-1.5 -19t-0.5 -16.5q0 -52 19.5 -89t58 -56.5t94.5 -19.5zM312 751q6 31 20 57.5t37.5 43t56.5 16.5q26 0 47 -8.5
t41.5 -17.5t43.5 -9q13 0 23 7.5t16 27.5h68q-5 -31 -19.5 -58t-38 -43t-57.5 -16q-25 0 -46 9t-41 18t-44 9q-13 0 -23 -8t-16 -28h-68zM356 921l14 83h305l-14 -83h-305z" />
    <glyph glyph-name="uni022D" unicode="&#x22d;" horiz-adv-x="598" 
d="M260 -12q-76 0 -127 21.5t-76.5 66t-25.5 112.5q0 19 2 40t6 43q16 92 54.5 151t99.5 87.5t144 28.5q77 0 128 -21.5t76.5 -66t25.5 -113.5q0 -19 -2 -39t-6 -43q-16 -92 -53.5 -151t-98 -87.5t-147.5 -28.5zM268 88q48 0 80.5 18.5t52.5 56t30 93.5q4 18 5.5 31t2 23
t0.5 19q0 36 -11.5 60.5t-35.5 36.5t-63 12q-48 0 -80 -19t-52 -56t-31 -93q-3 -18 -5 -31.5t-3 -23.5t-1 -19q0 -36 11.5 -60t36.5 -36t63 -12zM188 606q6 31 20 57.5t37.5 43t56.5 16.5q26 0 47.5 -8.5t41.5 -17.5t43 -9q14 0 23.5 7.5t15.5 27.5h69q-6 -31 -20.5 -58
t-38 -43t-57.5 -16q-25 0 -46 9t-41 18t-43 9q-13 0 -23.5 -8t-16.5 -28h-68zM238 781l14 83h304l-14 -83h-304z" />
    <glyph glyph-name="uni0230" unicode="&#x230;" horiz-adv-x="782" 
d="M359 -12q-97 0 -166 30t-105.5 89.5t-36.5 148.5q0 24 1.5 47t5.5 45q18 109 69 187.5t133 120.5t192 42q97 0 166 -30t106 -89.5t37 -148.5q0 -22 -1.5 -44t-5.5 -44q-17 -110 -68.5 -189.5t-134 -122t-192.5 -42.5zM357 99q55 0 98.5 15.5t76 45.5t53.5 74t31 101
q3 16 5 29t3 23t1.5 19t0.5 17q0 52 -19.5 89t-58.5 56.5t-96 19.5q-54 0 -97.5 -15.5t-76 -45.5t-53.5 -74t-31 -101q-3 -16 -4.5 -29t-2.5 -23.5t-1.5 -19t-0.5 -16.5q0 -52 19.5 -89t58 -56.5t94.5 -19.5zM418 757l22 120h120l-22 -120h-120zM357 931l14 83h305l-14 -83
h-305z" />
    <glyph glyph-name="uni0231" unicode="&#x231;" horiz-adv-x="598" 
d="M260 -12q-76 0 -127 21.5t-76.5 66t-25.5 112.5q0 19 2 40t6 43q16 92 54.5 151t99.5 87.5t144 28.5q77 0 128 -21.5t76.5 -66t25.5 -113.5q0 -19 -2 -39t-6 -43q-16 -92 -53.5 -151t-98 -87.5t-147.5 -28.5zM268 88q48 0 80.5 18.5t52.5 56t30 93.5q4 18 5.5 31t2 23
t0.5 19q0 36 -11.5 60.5t-35.5 36.5t-63 12q-48 0 -80 -19t-52 -56t-31 -93q-3 -18 -5 -31.5t-3 -23.5t-1 -19q0 -36 11.5 -60t36.5 -36t63 -12zM299 604l19 116h121l-20 -116h-120zM240 791l14 83h304l-14 -83h-304z" />
    <glyph glyph-name="uni0232" unicode="&#x232;" horiz-adv-x="677" 
d="M229 0l49 279l-193 407h134l138 -291h7l236 291h143l-335 -407l-49 -279h-130zM271 757l14 83h305l-14 -83h-305z" />
    <glyph glyph-name="uni0233" unicode="&#x233;" horiz-adv-x="529" 
d="M61 -182q-40 0 -61 5.5t-25 6.5l15 88h55q23 0 45 8.5t41 26.5t33 47l-112 526h122l51 -240q5 -22 10 -51.5t9 -57.5t6 -49h5q6 15 14 34t16.5 39t17 39t15.5 33l125 253h128l-260 -499q-22 -43 -47.5 -80.5t-55.5 -66.5t-66.5 -45.5t-80.5 -16.5zM171 617l14 83h304
l-14 -83h-304z" />
    <glyph glyph-name="uni0237" unicode="&#x237;" horiz-adv-x="250" 
d="M-13 -182q-15 0 -32.5 2t-32.5 5.5t-25 7.5l14 85h49q23 0 35.5 11t16.5 33l100 564h122l-101 -573q-6 -33 -21.5 -64t-45.5 -51t-79 -20z" />
    <glyph glyph-name="uni0259" unicode="&#x259;" horiz-adv-x="580" 
d="M254 -12q-70 0 -118 21t-72 63.5t-24 107.5q0 23 3.5 53.5t11.5 59.5h356q2 12 3 22.5t1 20.5q0 36 -11.5 59t-35.5 34t-62 11q-24 0 -44.5 -5.5t-36.5 -17.5t-26.5 -30.5t-15.5 -44.5h-120q8 50 29 87t53 61t72 36t86 12q79 0 131 -21.5t78 -66t26 -113.5q0 -28 -3 -56
t-8 -54q-14 -66 -46.5 -120.5t-87.5 -86.5t-139 -32zM251 85q38 0 66 14t47.5 41t30.5 67h-229q-2 -10 -2.5 -18.5t-0.5 -16.5q0 -31 11 -50t30.5 -28t46.5 -9z" />
    <glyph glyph-name="uni0272" unicode="&#x272;" horiz-adv-x="584" 
d="M-13 -182q-15 0 -32.5 2t-32.5 5.5t-26 7.5l15 85h49q22 0 35 11t17 33l99 564h100v-71h7q19 23 46.5 42t60 30t66.5 11q43 0 77 -13.5t54.5 -43t20.5 -78.5q0 -18 -2.5 -37.5t-6.5 -41.5l-58 -324h-122l56 315q2 14 4 26.5t2 23.5q0 25 -8.5 39t-24.5 20.5t-37 6.5
q-27 0 -52.5 -9.5t-46 -28.5t-35.5 -47t-21 -64l-58 -329q-4 -25 -14 -49t-27 -43.5t-42.5 -31t-62.5 -11.5z" />
    <glyph glyph-name="uni02B9" unicode="&#x2b9;" horiz-adv-x="197" 
d="M46 526l98 197h134v-3l-126 -194h-106z" />
    <glyph glyph-name="uni02BA" unicode="&#x2ba;" horiz-adv-x="382" 
d="M46 526l98 197h134v-3l-126 -194h-106zM231 526l98 197h134v-3l-126 -194h-106z" />
    <glyph glyph-name="uni02BC" unicode="&#x2bc;" horiz-adv-x="128" 
d="M50 546l9 51q32 0 51 19.5t23 43.5h-56l21 120h121l-16 -94q-9 -50 -32.5 -81t-55 -45t-65.5 -14z" />
    <glyph glyph-name="circumflex" unicode="&#x2c6;" horiz-adv-x="325" 
d="M58 591l130 132h114l81 -132h-103l-65 104h56l-104 -104h-109z" />
    <glyph glyph-name="caron" unicode="&#x2c7;" horiz-adv-x="325" 
d="M406 723l-130 -132h-114l-81 132h103l65 -104h-56l104 104h109z" />
    <glyph glyph-name="uni02C9" unicode="&#x2c9;" horiz-adv-x="438" 
d="M59 595l16 91h438l-16 -91h-438z" />
    <glyph glyph-name="breve" unicode="&#x2d8;" horiz-adv-x="314" 
d="M220 592q-52 0 -83 15.5t-44.5 40.5t-13.5 52q0 6 0.5 11.5t1.5 11.5h81q0 -16 9 -27.5t24.5 -17t33.5 -5.5q26 0 43.5 8t27.5 20t13 22h82q-5 -31 -25.5 -61t-57 -50t-92.5 -20z" />
    <glyph glyph-name="dotaccent" unicode="&#x2d9;" horiz-adv-x="122" 
d="M62 604l19 116h121l-20 -116h-120z" />
    <glyph glyph-name="ring" unicode="&#x2da;" horiz-adv-x="199" 
d="M163 579q-39 0 -64.5 25t-25.5 63q0 48 32 79.5t81 31.5q37 0 61.5 -24.5t24.5 -62.5q0 -32 -14 -57.5t-38.5 -40t-56.5 -14.5zM165 632q16 0 27.5 6.5t18.5 18.5t7 27q0 18 -10.5 29.5t-27.5 11.5q-15 0 -27 -7t-19 -18.5t-7 -27.5q0 -17 11 -28.5t27 -11.5z" />
    <glyph glyph-name="ogonek" unicode="&#x2db;" horiz-adv-x="187" 
d="M28 -182q-22 0 -43.5 6.5t-35 22t-13.5 42.5q0 29 11.5 51.5t29 40t33.5 31.5h78l-1 -4q-15 -13 -31 -35.5t-16 -47.5q0 -16 9.5 -27.5t31.5 -11.5h39l-9 -54q-19 -7 -42.5 -10.5t-40.5 -3.5z" />
    <glyph glyph-name="tilde" unicode="&#x2dc;" horiz-adv-x="333" 
d="M60 606q6 31 20 57.5t37.5 43t56.5 16.5q26 0 47.5 -8.5t41.5 -17.5t43 -9q14 0 23.5 7.5t15.5 27.5h69q-6 -31 -20.5 -58t-38 -43t-57.5 -16q-25 0 -46 9t-41 18t-43 9q-13 0 -23.5 -8t-16.5 -28h-68z" />
    <glyph glyph-name="hungarumlaut" unicode="&#x2dd;" horiz-adv-x="397" 
d="M58 591l98 132h134v-3l-126 -129h-106zM246 591l98 132h134v-3l-126 -129h-106z" />
    <glyph glyph-name="gravecomb" unicode="&#x300;" 
d="M161 591l-80 129l1 3h121l56 -132h-98z" />
    <glyph glyph-name="acutecomb" unicode="&#x301;" 
d="M58 591l103 132h129v-3l-129 -129h-103z" />
    <glyph glyph-name="uni0302" unicode="&#x302;" 
d="M58 591l130 132h114l81 -132h-103l-65 104h56l-104 -104h-109z" />
    <glyph glyph-name="tildecomb" unicode="&#x303;" 
d="M60 606q6 31 20 57.5t37.5 43t56.5 16.5q26 0 47.5 -8.5t41.5 -17.5t43 -9q14 0 23.5 7.5t15.5 27.5h69q-6 -31 -20.5 -58t-38 -43t-57.5 -16q-25 0 -46 9t-41 18t-43 9q-13 0 -23.5 -8t-16.5 -28h-68z" />
    <glyph glyph-name="uni0304" unicode="&#x304;" 
d="M63 617l14 83h304l-14 -83h-304z" />
    <glyph glyph-name="uni0306" unicode="&#x306;" 
d="M220 592q-52 0 -83 15.5t-44.5 40.5t-13.5 52q0 6 0.5 11.5t1.5 11.5h81q0 -16 9 -27.5t24.5 -17t33.5 -5.5q26 0 43.5 8t27.5 20t13 22h82q-5 -31 -25.5 -61t-57 -50t-92.5 -20z" />
    <glyph glyph-name="uni0307" unicode="&#x307;" 
d="M62 604l19 116h121l-20 -116h-120z" />
    <glyph glyph-name="uni0308" unicode="&#x308;" 
d="M62 612l19 111h108l-19 -111h-108zM265 612l19 111h109l-19 -111h-109z" />
    <glyph glyph-name="hookabovecomb" unicode="&#x309;" 
d="M106 591l10 56h14q15 0 24 5t9 18q0 8 -7.5 11t-21.5 3h-59l7 43q12 3 26.5 4.5t29 2.5t25.5 1q16 0 33.5 -2.5t32.5 -8t24.5 -15.5t9.5 -26q0 -21 -12.5 -35t-32.5 -21.5t-43 -9.5l-5 -26h-64z" />
    <glyph glyph-name="uni030A" unicode="&#x30a;" 
d="M163 579q-39 0 -64.5 25t-25.5 63q0 48 32 79.5t81 31.5q37 0 61.5 -24.5t24.5 -62.5q0 -32 -14 -57.5t-38.5 -40t-56.5 -14.5zM165 632q16 0 27.5 6.5t18.5 18.5t7 27q0 18 -10.5 29.5t-27.5 11.5q-15 0 -27 -7t-19 -18.5t-7 -27.5q0 -17 11 -28.5t27 -11.5z" />
    <glyph glyph-name="uni030B" unicode="&#x30b;" 
d="M58 591l98 132h134v-3l-126 -129h-106zM246 591l98 132h134v-3l-126 -129h-106z" />
    <glyph glyph-name="uni030C" unicode="&#x30c;" 
d="M406 723l-130 -132h-114l-81 132h103l65 -104h-56l104 104h109z" />
    <glyph glyph-name="uni030F" unicode="&#x30f;" 
d="M323 591l-78 129l2 3h122l50 -132h-96zM159 591l-78 129l2 3h122l50 -132h-96z" />
    <glyph glyph-name="uni0311" unicode="&#x311;" 
d="M233 723q53 0 83.5 -15.5t44 -40t13.5 -52.5q0 -6 -0.5 -11.5t-1.5 -11.5h-81q0 17 -9 28t-24 16.5t-34 5.5q-26 0 -43.5 -8t-27.5 -19.5t-13 -22.5h-82q6 31 26 61t57 50t92 20z" />
    <glyph glyph-name="uni0312" unicode="&#x312;" 
d="M232 850l-9 -51q-32 0 -51 -19.5t-23 -43.5h55l-22 -120h-120l17 94q9 50 32.5 81t55 45t65.5 14z" />
    <glyph glyph-name="uni0313" unicode="&#x313;" 
d="M50 545l9 51q32 0 51 19.5t23 43.5h-55l22 120h120l-17 -94q-9 -50 -32.5 -81t-55 -45t-65.5 -14z" />
    <glyph glyph-name="uni031B" unicode="&#x31b;" 
d="M27 415l11 64q54 0 93 22.5t46 56.5h-64l23 128h147l-16 -84q-10 -58 -43 -100t-83 -64.5t-114 -22.5z" />
    <glyph glyph-name="dotbelowcomb" unicode="&#x323;" 
d="M-79 -196l19 116h121l-20 -116h-120z" />
    <glyph glyph-name="uni0324" unicode="&#x324;" 
d="M-79 -187l19 111h108l-19 -111h-108zM124 -187l19 111h109l-19 -111h-109z" />
    <glyph glyph-name="uni0326" unicode="&#x326;" 
d="M-101 -310l9 51q32 0 51 19.5t23 43.5h-55l22 120h120l-17 -94q-9 -50 -32.5 -81t-55 -45t-65.5 -14z" />
    <glyph glyph-name="uni0327" unicode="&#x327;" 
d="M23 -182q-25 0 -51.5 2t-48.5 6l9 49h91q23 0 35.5 6t12.5 24q0 9 -8 13.5t-29 4.5h-44l30 88h78l-14 -45q35 -2 60 -14.5t25 -41.5t-15.5 -47t-38.5 -28t-48 -13.5t-44 -3.5z" />
    <glyph glyph-name="uni0328" unicode="&#x328;" 
d="M28 -182q-22 0 -43.5 6.5t-35 22t-13.5 42.5q0 29 11.5 51.5t29 40t33.5 31.5h78l-1 -4q-15 -13 -31 -35.5t-16 -47.5q0 -16 9.5 -27.5t31.5 -11.5h39l-9 -54q-19 -7 -42.5 -10.5t-40.5 -3.5z" />
    <glyph glyph-name="uni032E" unicode="&#x32e;" 
d="M79 -207q-52 0 -83 15.5t-44.5 40.5t-13.5 52q0 6 0.5 11.5t1.5 11.5h81q0 -16 9 -27.5t24.5 -17t33.5 -5.5q26 0 43.5 8t27.5 20t13 22h82q-5 -31 -25.5 -61t-57 -50t-92.5 -20z" />
    <glyph glyph-name="uni0331" unicode="&#x331;" 
d="M-74 -158l14 83h304l-14 -83h-304z" />
    <glyph glyph-name="uni0335" unicode="&#x335;" 
d="M11 324l16 90h334l-16 -90h-334z" />
    <glyph glyph-name="uni0336" unicode="&#x336;" 
d="M10 320l18 99h709l-19 -99h-708z" />
    <glyph glyph-name="uni0337" unicode="&#x337;" 
d="M-10 209l17 95l294 188l-17 -95z" />
    <glyph glyph-name="uni0338" unicode="&#x338;" 
d="M-55 -49l550 624h81l-549 -624h-82z" />
    <glyph glyph-name="uni0394" unicode="&#x394;" horiz-adv-x="755" 
d="M-19 0l387 686h165l146 -686h-698zM178 111h348q-5 21 -12 49.5t-10 42.5l-47 233q-1 5 -5 28t-8.5 53.5t-8.5 56.5h-5q-12 -25 -26.5 -54t-26 -51.5t-15.5 -29.5l-129 -235q-5 -10 -15 -26.5t-20.5 -34.5t-19.5 -32z" />
    <glyph glyph-name="uni03A9" unicode="&#x3a9;" horiz-adv-x="829" 
d="M10 0l20 111h47q11 0 25.5 -2t33 -4.5t37.5 -4.5q-42 35 -66 84t-24 114q0 21 1.5 41.5t5.5 39.5q12 69 44 127t82 101.5t115 67t143 23.5q97 0 165 -30.5t104.5 -89t36.5 -144.5q0 -20 -1.5 -39.5t-5.5 -38.5q-15 -87 -61.5 -151t-113.5 -105q19 1 37 3.5t34.5 5
t29.5 2.5h48l-21 -111h-324l17 98q58 11 101.5 38t72.5 73t40 115q3 19 5 33.5t3.5 26t2 21t0.5 18.5q0 57 -19 93.5t-55.5 54t-89.5 17.5q-70 0 -123.5 -25.5t-88 -79t-48.5 -137.5q-3 -17 -5 -29.5t-2.5 -22t-1 -17.5t-0.5 -15q0 -47 16 -80.5t47.5 -53.5t76.5 -29
l-17 -99h-324z" />
    <glyph glyph-name="uni03BC" unicode="&#x3bc;" horiz-adv-x="587" 
d="M-14 -185l126 711h122l-55 -316q-2 -14 -4 -26t-2 -23q0 -25 8.5 -39.5t24 -20.5t36.5 -6q27 0 52 9.5t45.5 28.5t35 47t20.5 64l50 282h123l-93 -526h-100v71h-7q-18 -23 -45 -42t-59 -30t-67 -11q-17 0 -31 2.5t-28 6.5q-1 -14 -3 -28l-4 -28l-23 -126h-122z" />
    <glyph glyph-name="pi" unicode="&#x3c0;" horiz-adv-x="767" 
d="M61 0q23 38 46.5 91.5t45 113.5t38.5 117.5t26 102.5q-52 0 -80.5 -3t-48.5 -10l-10 84q26 14 74.5 22t127.5 8h488l-28 -101h-102l-46 -260q-7 -44 -11.5 -78t-4.5 -57q0 -9 1 -16.5t2 -13.5h-120q-2 5 -3.5 14t-1.5 22q0 20 3 47.5t9 63.5l50 278h-172
q-11 -45 -29 -104.5t-39.5 -121.5t-44 -115t-43.5 -84h-127z" />
    <glyph glyph-name="uni1E24" unicode="&#x1e24;" horiz-adv-x="732" 
d="M30 0l121 686h130l-49 -279h321l49 279h130l-121 -686h-130l52 295h-321l-52 -295h-130zM228 -196l19 116h121l-20 -116h-120z" />
    <glyph glyph-name="uni1E25" unicode="&#x1e25;" horiz-adv-x="584" 
d="M19 0l127 723h122l-45 -257h6q19 20 44.5 36.5t55.5 26t62 9.5q43 0 77 -13.5t54.5 -43t20.5 -78.5q0 -18 -2.5 -37.5t-6.5 -41.5l-58 -324h-122l56 315q2 14 4 26.5t2 23.5q0 25 -8.5 39t-24.5 20.5t-37 6.5q-27 0 -52.5 -9.5t-46 -28.5t-35.5 -47t-21 -64l-50 -282
h-122zM161 -196l19 116h121l-20 -116h-120z" />
    <glyph glyph-name="uni1E62" unicode="&#x1e62;" horiz-adv-x="667" 
d="M312 -12q-60 0 -112 10.5t-91 32t-61 54.5t-22 78q0 14 2.5 30t5.5 27h131q-1 -6 -3.5 -16.5t-2.5 -18.5q0 -27 17 -46.5t49 -29.5t76 -10q45 0 77.5 7t53.5 19.5t31 30.5t10 39q0 23 -13.5 39t-36.5 28t-52 21t-61 18q-37 11 -74.5 24.5t-69 34.5t-50 51.5t-18.5 74.5
q0 54 22.5 93.5t62 66t91 39.5t108.5 13q56 0 103.5 -9.5t83 -29t55.5 -50.5t20 -73q0 -9 -1 -20.5t-4 -29.5h-129q3 11 3.5 16.5t0.5 8.5q0 36 -33.5 56.5t-91.5 20.5q-47 0 -82.5 -10t-55 -28.5t-19.5 -45.5q0 -18 11 -31.5t30.5 -23t45 -18t53.5 -16.5q40 -12 81.5 -26
t77 -35.5t57 -54t21.5 -79.5q0 -64 -25.5 -108t-68 -71.5t-95.5 -40t-108 -12.5zM193 -196l19 116h121l-20 -116h-120z" />
    <glyph glyph-name="uni1E62" unicode="&#x1e63;" horiz-adv-x="667" 
d="M312 -12q-60 0 -112 10.5t-91 32t-61 54.5t-22 78q0 14 2.5 30t5.5 27h131q-1 -6 -3.5 -16.5t-2.5 -18.5q0 -27 17 -46.5t49 -29.5t76 -10q45 0 77.5 7t53.5 19.5t31 30.5t10 39q0 23 -13.5 39t-36.5 28t-52 21t-61 18q-37 11 -74.5 24.5t-69 34.5t-50 51.5t-18.5 74.5
q0 54 22.5 93.5t62 66t91 39.5t108.5 13q56 0 103.5 -9.5t83 -29t55.5 -50.5t20 -73q0 -9 -1 -20.5t-4 -29.5h-129q3 11 3.5 16.5t0.5 8.5q0 36 -33.5 56.5t-91.5 20.5q-47 0 -82.5 -10t-55 -28.5t-19.5 -45.5q0 -18 11 -31.5t30.5 -23t45 -18t53.5 -16.5q40 -12 81.5 -26
t77 -35.5t57 -54t21.5 -79.5q0 -64 -25.5 -108t-68 -71.5t-95.5 -40t-108 -12.5zM193 -196l19 116h121l-20 -116h-120z" />
    <glyph glyph-name="uni1E6C" unicode="&#x1e6c;" horiz-adv-x="619" 
d="M198 0l101 574h-219l20 112h568l-19 -112h-220l-101 -574h-130zM171 -196l19 116h121l-20 -116h-120z" />
    <glyph glyph-name="uni1E6D" unicode="&#x1e6d;" horiz-adv-x="314" 
d="M166 -12q-43 0 -66.5 14.5t-33.5 38t-10 51.5q0 8 1 16l2 16l52 302h-63l17 100h66l48 147h97l-26 -147h91l-17 -100h-91l-49 -277q-1 -3 -2.5 -14t-1.5 -13q0 -16 9.5 -25t28.5 -9h47l-15 -84q-10 -4 -24.5 -7.5t-30 -6t-29.5 -2.5zM54 -196l19 116h121l-20 -116h-120z
" />
    <glyph glyph-name="Wgrave" unicode="&#x1e80;" horiz-adv-x="954" 
d="M146 0l-60 686h124l36 -441q1 -10 1.5 -27.5t1.5 -36.5t1 -35h5q5 16 11.5 35.5t12.5 37t9 26.5l179 441h167l26 -441q1 -10 1 -27.5t0.5 -36.5t0.5 -35h5q5 15 11.5 33.5t13 36.5t11.5 29l189 441h127l-307 -686h-154l-27 450q-1 14 -1.5 32.5l-1 37t-0.5 31.5h-5
q-4 -15 -10 -34t-12 -37t-11 -30l-190 -450h-154zM513 736l-86 129l1 3h127l59 -132h-101z" />
    <glyph glyph-name="wgrave" unicode="&#x1e81;" horiz-adv-x="758" 
d="M113 0l-64 526h121l22 -241q1 -12 2.5 -37t2.5 -53.5t2 -52.5h4q8 23 18.5 50.5t20 52.5t15.5 39l101 242h131l19 -242q1 -15 2.5 -40.5t3 -52.5t2.5 -49h4q7 20 17 46.5t20 52t17 43.5l105 242h122l-250 -526h-128l-17 270q-1 16 -2 36.5t-1.5 41t-0.5 35.5h-4
q-5 -14 -12 -34.5t-15 -41t-15 -36.5l-114 -271h-129zM398 591l-80 129l1 3h121l56 -132h-98z" />
    <glyph glyph-name="Wacute" unicode="&#x1e82;" horiz-adv-x="954" 
d="M146 0l-60 686h124l36 -441q1 -10 1.5 -27.5t1.5 -36.5t1 -35h5q5 16 11.5 35.5t12.5 37t9 26.5l179 441h167l26 -441q1 -10 1 -27.5t0.5 -36.5t0.5 -35h5q5 15 11.5 33.5t13 36.5t11.5 29l189 441h127l-307 -686h-154l-27 450q-1 14 -1.5 32.5l-1 37t-0.5 31.5h-5
q-4 -15 -10 -34t-12 -37t-11 -30l-190 -450h-154zM500 736l105 132h132v-3l-131 -129h-106z" />
    <glyph glyph-name="wacute" unicode="&#x1e83;" horiz-adv-x="758" 
d="M113 0l-64 526h121l22 -241q1 -12 2.5 -37t2.5 -53.5t2 -52.5h4q8 23 18.5 50.5t20 52.5t15.5 39l101 242h131l19 -242q1 -15 2.5 -40.5t3 -52.5t2.5 -49h4q7 20 17 46.5t20 52t17 43.5l105 242h122l-250 -526h-128l-17 270q-1 16 -2 36.5t-1.5 41t-0.5 35.5h-4
q-5 -14 -12 -34.5t-15 -41t-15 -36.5l-114 -271h-129zM384 591l103 132h129v-3l-129 -129h-103z" />
    <glyph glyph-name="Wdieresis" unicode="&#x1e84;" horiz-adv-x="954" 
d="M146 0l-60 686h124l36 -441q1 -10 1.5 -27.5t1.5 -36.5t1 -35h5q5 16 11.5 35.5t12.5 37t9 26.5l179 441h167l26 -441q1 -10 1 -27.5t0.5 -36.5t0.5 -35h5q5 15 11.5 33.5t13 36.5t11.5 29l189 441h127l-307 -686h-154l-27 450q-1 14 -1.5 32.5l-1 37t-0.5 31.5h-5
q-4 -15 -10 -34t-12 -37t-11 -30l-190 -450h-154zM406 757l18 111h109l-19 -111h-108zM608 757l19 111h110l-19 -111h-110z" />
    <glyph glyph-name="wdieresis" unicode="&#x1e85;" horiz-adv-x="758" 
d="M113 0l-64 526h121l22 -241q1 -12 2.5 -37t2.5 -53.5t2 -52.5h4q8 23 18.5 50.5t20 52.5t15.5 39l101 242h131l19 -242q1 -15 2.5 -40.5t3 -52.5t2.5 -49h4q7 20 17 46.5t20 52t17 43.5l105 242h122l-250 -526h-128l-17 270q-1 16 -2 36.5t-1.5 41t-0.5 35.5h-4
q-5 -14 -12 -34.5t-15 -41t-15 -36.5l-114 -271h-129zM293 612l19 111h108l-19 -111h-108zM496 612l19 111h109l-19 -111h-109z" />
    <glyph glyph-name="uni1E9E" unicode="&#x1e9e;" horiz-adv-x="806" 
d="M34 0l71 400q18 99 69 165.5t130.5 99.5t180.5 33q62 0 112 -12.5t86 -35.5t55 -55.5t19 -73.5q0 -37 -16.5 -72t-44 -61t-60.5 -37v-4q47 -13 73.5 -46t26.5 -83q0 -67 -33 -116t-90 -75.5t-129 -26.5h-227l21 112h214q35 0 59.5 15t38 38.5t13.5 47.5q0 21 -12 37
t-35 24.5t-56 8.5h-193l20 112h190q30 0 53 16t36.5 40t13.5 49q0 40 -35.5 64t-109.5 24q-68 0 -118 -21t-80.5 -64.5t-42.5 -109.5l-70 -393h-130z" />
    <glyph glyph-name="uni1EA0" unicode="&#x1ea0;" horiz-adv-x="709" 
d="M-40 0l386 686h164l147 -686h-133l-30 146h-317l-80 -146h-137zM239 256h231l-36 182q-3 18 -6.5 36.5l-7 37t-5.5 34t-4 27.5h-5q-10 -20 -23 -46.5t-25.5 -51t-21.5 -40.5zM223 -196l19 116h121l-20 -116h-120z" />
    <glyph glyph-name="uni1EA1" unicode="&#x1ea1;" horiz-adv-x="587" 
d="M192 -12q-51 0 -90 22t-60.5 65t-21.5 107q0 20 2.5 41.5t6.5 46.5q16 93 50.5 152.5t84.5 87.5t112 28q34 0 62.5 -8t50.5 -24t35 -41h7l31 61h102l-24 -130q-7 -41 -14.5 -80.5t-13.5 -74t-11 -61.5t-7.5 -44t-2.5 -21q0 -14 8 -20.5t21 -6.5h33l-14 -84
q-10 -5 -29 -10.5t-45 -5.5t-45.5 10t-30.5 30q-4 9 -7 20.5t-3 24.5h-7q-33 -43 -78.5 -64t-101.5 -21zM246 93q27 0 51 11t43 32t33 51.5t21 69.5q3 17 4.5 29.5t2 22.5t0.5 18q0 35 -10 58.5t-31 35.5t-54 12q-44 0 -73.5 -17.5t-47.5 -54t-29 -92.5q-3 -18 -5 -32
t-3 -25t-1 -20q0 -50 23.5 -74.5t75.5 -24.5zM168 -196l19 116h121l-20 -116h-120z" />
    <glyph glyph-name="uni1EA2" unicode="&#x1ea2;" horiz-adv-x="709" 
d="M-40 0l386 686h164l147 -686h-133l-30 146h-317l-80 -146h-137zM239 256h231l-36 182q-3 18 -6.5 36.5l-7 37t-5.5 34t-4 27.5h-5q-10 -20 -23 -46.5t-25.5 -51t-21.5 -40.5zM408 736l11 56h13q17 0 26 5t9 18q0 8 -8 11t-23 3h-58l7 43q12 3 26.5 4.5t29 2.5t26.5 1
q16 0 33 -2.5t32 -8t24.5 -15.5t9.5 -26q0 -21 -12.5 -35t-32.5 -21.5t-43 -9.5l-5 -26h-65z" />
    <glyph glyph-name="uni1EA3" unicode="&#x1ea3;" horiz-adv-x="587" 
d="M192 -12q-51 0 -90 22t-60.5 65t-21.5 107q0 20 2.5 41.5t6.5 46.5q16 93 50.5 152.5t84.5 87.5t112 28q34 0 62.5 -8t50.5 -24t35 -41h7l31 61h102l-24 -130q-7 -41 -14.5 -80.5t-13.5 -74t-11 -61.5t-7.5 -44t-2.5 -21q0 -14 8 -20.5t21 -6.5h33l-14 -84
q-10 -5 -29 -10.5t-45 -5.5t-45.5 10t-30.5 30q-4 9 -7 20.5t-3 24.5h-7q-33 -43 -78.5 -64t-101.5 -21zM246 93q27 0 51 11t43 32t33 51.5t21 69.5q3 17 4.5 29.5t2 22.5t0.5 18q0 35 -10 58.5t-31 35.5t-54 12q-44 0 -73.5 -17.5t-47.5 -54t-29 -92.5q-3 -18 -5 -32
t-3 -25t-1 -20q0 -50 23.5 -74.5t75.5 -24.5zM285 591l10 56h14q15 0 24 5t9 18q0 8 -7.5 11t-21.5 3h-59l7 43q12 3 26.5 4.5t29 2.5t25.5 1q16 0 33.5 -2.5t32.5 -8t24.5 -15.5t9.5 -26q0 -21 -12.5 -35t-32.5 -21.5t-43 -9.5l-5 -26h-64z" />
    <glyph glyph-name="uni1EA4" unicode="&#x1ea4;" horiz-adv-x="709" 
d="M-40 0l386 686h164l147 -686h-133l-30 146h-317l-80 -146h-137zM239 256h231l-36 182q-3 18 -6.5 36.5l-7 37t-5.5 34t-4 27.5h-5q-10 -20 -23 -46.5t-25.5 -51t-21.5 -40.5zM276 736l130 132h122l81 -132h-106l-65 105l56 -1l-105 -104h-113zM412 900l105 132h132v-3
l-131 -129h-106z" />
    <glyph glyph-name="uni1EA5" unicode="&#x1ea5;" horiz-adv-x="587" 
d="M192 -12q-51 0 -90 22t-60.5 65t-21.5 107q0 20 2.5 41.5t6.5 46.5q16 93 50.5 152.5t84.5 87.5t112 28q34 0 62.5 -8t50.5 -24t35 -41h7l31 61h102l-24 -130q-7 -41 -14.5 -80.5t-13.5 -74t-11 -61.5t-7.5 -44t-2.5 -21q0 -14 8 -20.5t21 -6.5h33l-14 -84
q-10 -5 -29 -10.5t-45 -5.5t-45.5 10t-30.5 30q-4 9 -7 20.5t-3 24.5h-7q-33 -43 -78.5 -64t-101.5 -21zM246 93q27 0 51 11t43 32t33 51.5t21 69.5q3 17 4.5 29.5t2 22.5t0.5 18q0 35 -10 58.5t-31 35.5t-54 12q-44 0 -73.5 -17.5t-47.5 -54t-29 -92.5q-3 -18 -5 -32
t-3 -25t-1 -20q0 -50 23.5 -74.5t75.5 -24.5zM166 591l130 132h114l81 -132h-103l-65 104h56l-104 -104h-109zM304 775l103 132h129v-3l-129 -129h-103z" />
    <glyph glyph-name="uni1EA6" unicode="&#x1ea6;" horiz-adv-x="709" 
d="M-40 0l386 686h164l147 -686h-133l-30 146h-317l-80 -146h-137zM239 256h231l-36 182q-3 18 -6.5 36.5l-7 37t-5.5 34t-4 27.5h-5q-10 -20 -23 -46.5t-25.5 -51t-21.5 -40.5zM276 736l130 132h122l81 -132h-106l-65 105l56 -1l-105 -104h-113zM425 900l-86 129l1 3h127
l59 -132h-101z" />
    <glyph glyph-name="uni1EA7" unicode="&#x1ea7;" horiz-adv-x="587" 
d="M192 -12q-51 0 -90 22t-60.5 65t-21.5 107q0 20 2.5 41.5t6.5 46.5q16 93 50.5 152.5t84.5 87.5t112 28q34 0 62.5 -8t50.5 -24t35 -41h7l31 61h102l-24 -130q-7 -41 -14.5 -80.5t-13.5 -74t-11 -61.5t-7.5 -44t-2.5 -21q0 -14 8 -20.5t21 -6.5h33l-14 -84
q-10 -5 -29 -10.5t-45 -5.5t-45.5 10t-30.5 30q-4 9 -7 20.5t-3 24.5h-7q-33 -43 -78.5 -64t-101.5 -21zM246 93q27 0 51 11t43 32t33 51.5t21 69.5q3 17 4.5 29.5t2 22.5t0.5 18q0 35 -10 58.5t-31 35.5t-54 12q-44 0 -73.5 -17.5t-47.5 -54t-29 -92.5q-3 -18 -5 -32
t-3 -25t-1 -20q0 -50 23.5 -74.5t75.5 -24.5zM166 591l130 132h114l81 -132h-103l-65 104h56l-104 -104h-109zM318 775l-80 129l1 3h121l56 -132h-98z" />
    <glyph glyph-name="uni1EA8" unicode="&#x1ea8;" horiz-adv-x="709" 
d="M-40 0l386 686h164l147 -686h-133l-30 146h-317l-80 -146h-137zM239 256h231l-36 182q-3 18 -6.5 36.5l-7 37t-5.5 34t-4 27.5h-5q-10 -20 -23 -46.5t-25.5 -51t-21.5 -40.5zM276 736l130 132h122l81 -132h-106l-65 105l56 -1l-105 -104h-113zM432 900l11 56h13
q17 0 26 5t9 18q0 8 -8 11t-23 3h-58l7 43q12 3 26.5 4.5t29 2.5t26.5 1q16 0 33 -2.5t32 -8t24.5 -15.5t9.5 -26q0 -21 -12.5 -35t-32.5 -21.5t-43 -9.5l-5 -26h-65z" />
    <glyph glyph-name="uni1EA9" unicode="&#x1ea9;" horiz-adv-x="587" 
d="M192 -12q-51 0 -90 22t-60.5 65t-21.5 107q0 20 2.5 41.5t6.5 46.5q16 93 50.5 152.5t84.5 87.5t112 28q34 0 62.5 -8t50.5 -24t35 -41h7l31 61h102l-24 -130q-7 -41 -14.5 -80.5t-13.5 -74t-11 -61.5t-7.5 -44t-2.5 -21q0 -14 8 -20.5t21 -6.5h33l-14 -84
q-10 -5 -29 -10.5t-45 -5.5t-45.5 10t-30.5 30q-4 9 -7 20.5t-3 24.5h-7q-33 -43 -78.5 -64t-101.5 -21zM246 93q27 0 51 11t43 32t33 51.5t21 69.5q3 17 4.5 29.5t2 22.5t0.5 18q0 35 -10 58.5t-31 35.5t-54 12q-44 0 -73.5 -17.5t-47.5 -54t-29 -92.5q-3 -18 -5 -32
t-3 -25t-1 -20q0 -50 23.5 -74.5t75.5 -24.5zM166 591l130 132h114l81 -132h-103l-65 104h56l-104 -104h-109zM317 775l10 56h14q15 0 24 5t9 18q0 8 -7.5 11t-21.5 3h-59l7 43q12 3 26.5 4.5t29 2.5t25.5 1q16 0 33.5 -2.5t32.5 -8t24.5 -15.5t9.5 -26q0 -21 -12.5 -35
t-32.5 -21.5t-43 -9.5l-5 -26h-64z" />
    <glyph glyph-name="uni1EAA" unicode="&#x1eaa;" horiz-adv-x="709" 
d="M-40 0l386 686h164l147 -686h-133l-30 146h-317l-80 -146h-137zM239 256h231l-36 182q-3 18 -6.5 36.5l-7 37t-5.5 34t-4 27.5h-5q-10 -20 -23 -46.5t-25.5 -51t-21.5 -40.5zM276 736l130 132h122l81 -132h-106l-65 105l56 -1l-105 -104h-113zM306 915q6 31 20 57.5
t37.5 43t56.5 16.5q26 0 47 -8.5t41.5 -17.5t43.5 -9q13 0 23 7.5t16 27.5h68q-5 -31 -19.5 -58t-38 -43t-57.5 -16q-25 0 -46 9t-41 18t-44 9q-13 0 -23 -8t-16 -28h-68z" />
    <glyph glyph-name="uni1EAB" unicode="&#x1eab;" horiz-adv-x="587" 
d="M192 -12q-51 0 -90 22t-60.5 65t-21.5 107q0 20 2.5 41.5t6.5 46.5q16 93 50.5 152.5t84.5 87.5t112 28q34 0 62.5 -8t50.5 -24t35 -41h7l31 61h102l-24 -130q-7 -41 -14.5 -80.5t-13.5 -74t-11 -61.5t-7.5 -44t-2.5 -21q0 -14 8 -20.5t21 -6.5h33l-14 -84
q-10 -5 -29 -10.5t-45 -5.5t-45.5 10t-30.5 30q-4 9 -7 20.5t-3 24.5h-7q-33 -43 -78.5 -64t-101.5 -21zM246 93q27 0 51 11t43 32t33 51.5t21 69.5q3 17 4.5 29.5t2 22.5t0.5 18q0 35 -10 58.5t-31 35.5t-54 12q-44 0 -73.5 -17.5t-47.5 -54t-29 -92.5q-3 -18 -5 -32
t-3 -25t-1 -20q0 -50 23.5 -74.5t75.5 -24.5zM166 591l130 132h114l81 -132h-103l-65 104h56l-104 -104h-109zM196 790q6 31 20 57.5t37.5 43t56.5 16.5q26 0 47.5 -8.5t41.5 -17.5t43 -9q14 0 23.5 7.5t15.5 27.5h69q-6 -31 -20.5 -58t-38 -43t-57.5 -16q-25 0 -46 9
t-41 18t-43 9q-13 0 -23.5 -8t-16.5 -28h-68z" />
    <glyph glyph-name="uni1EAC" unicode="&#x1eac;" horiz-adv-x="709" 
d="M-40 0l386 686h164l147 -686h-133l-30 146h-317l-80 -146h-137zM239 256h231l-36 182q-3 18 -6.5 36.5l-7 37t-5.5 34t-4 27.5h-5q-10 -20 -23 -46.5t-25.5 -51t-21.5 -40.5zM223 -196l19 116h121l-20 -116h-120zM276 736l130 132h122l81 -132h-106l-65 105l56 -1
l-105 -104h-113z" />
    <glyph glyph-name="uni1EAD" unicode="&#x1ead;" horiz-adv-x="587" 
d="M192 -12q-51 0 -90 22t-60.5 65t-21.5 107q0 20 2.5 41.5t6.5 46.5q16 93 50.5 152.5t84.5 87.5t112 28q34 0 62.5 -8t50.5 -24t35 -41h7l31 61h102l-24 -130q-7 -41 -14.5 -80.5t-13.5 -74t-11 -61.5t-7.5 -44t-2.5 -21q0 -14 8 -20.5t21 -6.5h33l-14 -84
q-10 -5 -29 -10.5t-45 -5.5t-45.5 10t-30.5 30q-4 9 -7 20.5t-3 24.5h-7q-33 -43 -78.5 -64t-101.5 -21zM246 93q27 0 51 11t43 32t33 51.5t21 69.5q3 17 4.5 29.5t2 22.5t0.5 18q0 35 -10 58.5t-31 35.5t-54 12q-44 0 -73.5 -17.5t-47.5 -54t-29 -92.5q-3 -18 -5 -32
t-3 -25t-1 -20q0 -50 23.5 -74.5t75.5 -24.5zM168 -196l19 116h121l-20 -116h-120zM166 591l130 132h114l81 -132h-103l-65 104h56l-104 -104h-109z" />
    <glyph glyph-name="uni1EAE" unicode="&#x1eae;" horiz-adv-x="709" 
d="M-40 0l386 686h164l147 -686h-133l-30 146h-317l-80 -146h-137zM239 256h231l-36 182q-3 18 -6.5 36.5l-7 37t-5.5 34t-4 27.5h-5q-10 -20 -23 -46.5t-25.5 -51t-21.5 -40.5zM447 737q-50 0 -80 15.5t-43 40.5t-13 53q0 5 0.5 11t1.5 11h81q0 -3 0.5 -6.5t1.5 -6.5
q3 -9 10.5 -17.5t20.5 -14t34 -5.5q26 0 44 8t28 20t12 22h82q-5 -31 -26 -61t-58.5 -50t-95.5 -20zM415 890l105 132h132v-3l-131 -129h-106z" />
    <glyph glyph-name="uni1EAF" unicode="&#x1eaf;" horiz-adv-x="587" 
d="M192 -12q-51 0 -90 22t-60.5 65t-21.5 107q0 20 2.5 41.5t6.5 46.5q16 93 50.5 152.5t84.5 87.5t112 28q34 0 62.5 -8t50.5 -24t35 -41h7l31 61h102l-24 -130q-7 -41 -14.5 -80.5t-13.5 -74t-11 -61.5t-7.5 -44t-2.5 -21q0 -14 8 -20.5t21 -6.5h33l-14 -84
q-10 -5 -29 -10.5t-45 -5.5t-45.5 10t-30.5 30q-4 9 -7 20.5t-3 24.5h-7q-33 -43 -78.5 -64t-101.5 -21zM246 93q27 0 51 11t43 32t33 51.5t21 69.5q3 17 4.5 29.5t2 22.5t0.5 18q0 35 -10 58.5t-31 35.5t-54 12q-44 0 -73.5 -17.5t-47.5 -54t-29 -92.5q-3 -18 -5 -32
t-3 -25t-1 -20q0 -50 23.5 -74.5t75.5 -24.5zM336 592q-52 0 -83 15.5t-44.5 40.5t-13.5 52q0 6 0.5 11.5t1.5 11.5h81q0 -16 9 -27.5t24.5 -17t33.5 -5.5q26 0 43.5 8t27.5 20t13 22h82q-5 -31 -25.5 -61t-57 -50t-92.5 -20zM304 775l103 132h129v-3l-129 -129h-103z" />
    <glyph glyph-name="uni1EB0" unicode="&#x1eb0;" horiz-adv-x="709" 
d="M-40 0l386 686h164l147 -686h-133l-30 146h-317l-80 -146h-137zM239 256h231l-36 182q-3 18 -6.5 36.5l-7 37t-5.5 34t-4 27.5h-5q-10 -20 -23 -46.5t-25.5 -51t-21.5 -40.5zM447 737q-50 0 -80 15.5t-43 40.5t-13 53q0 5 0.5 11t1.5 11h81q0 -3 0.5 -6.5t1.5 -6.5
q3 -9 10.5 -17.5t20.5 -14t34 -5.5q26 0 44 8t28 20t12 22h82q-5 -31 -26 -61t-58.5 -50t-95.5 -20zM428 890l-86 129l1 3h127l59 -132h-101z" />
    <glyph glyph-name="uni1EB1" unicode="&#x1eb1;" horiz-adv-x="587" 
d="M192 -12q-51 0 -90 22t-60.5 65t-21.5 107q0 20 2.5 41.5t6.5 46.5q16 93 50.5 152.5t84.5 87.5t112 28q34 0 62.5 -8t50.5 -24t35 -41h7l31 61h102l-24 -130q-7 -41 -14.5 -80.5t-13.5 -74t-11 -61.5t-7.5 -44t-2.5 -21q0 -14 8 -20.5t21 -6.5h33l-14 -84
q-10 -5 -29 -10.5t-45 -5.5t-45.5 10t-30.5 30q-4 9 -7 20.5t-3 24.5h-7q-33 -43 -78.5 -64t-101.5 -21zM246 93q27 0 51 11t43 32t33 51.5t21 69.5q3 17 4.5 29.5t2 22.5t0.5 18q0 35 -10 58.5t-31 35.5t-54 12q-44 0 -73.5 -17.5t-47.5 -54t-29 -92.5q-3 -18 -5 -32
t-3 -25t-1 -20q0 -50 23.5 -74.5t75.5 -24.5zM336 592q-52 0 -83 15.5t-44.5 40.5t-13.5 52q0 6 0.5 11.5t1.5 11.5h81q0 -16 9 -27.5t24.5 -17t33.5 -5.5q26 0 43.5 8t27.5 20t13 22h82q-5 -31 -25.5 -61t-57 -50t-92.5 -20zM318 775l-80 129l1 3h121l56 -132h-98z" />
    <glyph glyph-name="uni1EB2" unicode="&#x1eb2;" horiz-adv-x="709" 
d="M-40 0l386 686h164l147 -686h-133l-30 146h-317l-80 -146h-137zM239 256h231l-36 182q-3 18 -6.5 36.5l-7 37t-5.5 34t-4 27.5h-5q-10 -20 -23 -46.5t-25.5 -51t-21.5 -40.5zM447 737q-50 0 -80 15.5t-43 40.5t-13 53q0 5 0.5 11t1.5 11h81q0 -3 0.5 -6.5t1.5 -6.5
q3 -9 10.5 -17.5t20.5 -14t34 -5.5q26 0 44 8t28 20t12 22h82q-5 -31 -26 -61t-58.5 -50t-95.5 -20zM435 890l11 56h13q17 0 26 5t9 18q0 8 -8 11t-23 3h-58l7 43q12 3 26.5 4.5t29 2.5t26.5 1q16 0 33 -2.5t32 -8t24.5 -15.5t9.5 -26q0 -21 -12.5 -35t-32.5 -21.5t-43 -9.5
l-5 -26h-65z" />
    <glyph glyph-name="uni1EB3" unicode="&#x1eb3;" horiz-adv-x="587" 
d="M192 -12q-51 0 -90 22t-60.5 65t-21.5 107q0 20 2.5 41.5t6.5 46.5q16 93 50.5 152.5t84.5 87.5t112 28q34 0 62.5 -8t50.5 -24t35 -41h7l31 61h102l-24 -130q-7 -41 -14.5 -80.5t-13.5 -74t-11 -61.5t-7.5 -44t-2.5 -21q0 -14 8 -20.5t21 -6.5h33l-14 -84
q-10 -5 -29 -10.5t-45 -5.5t-45.5 10t-30.5 30q-4 9 -7 20.5t-3 24.5h-7q-33 -43 -78.5 -64t-101.5 -21zM246 93q27 0 51 11t43 32t33 51.5t21 69.5q3 17 4.5 29.5t2 22.5t0.5 18q0 35 -10 58.5t-31 35.5t-54 12q-44 0 -73.5 -17.5t-47.5 -54t-29 -92.5q-3 -18 -5 -32
t-3 -25t-1 -20q0 -50 23.5 -74.5t75.5 -24.5zM336 592q-52 0 -83 15.5t-44.5 40.5t-13.5 52q0 6 0.5 11.5t1.5 11.5h81q0 -16 9 -27.5t24.5 -17t33.5 -5.5q26 0 43.5 8t27.5 20t13 22h82q-5 -31 -25.5 -61t-57 -50t-92.5 -20zM317 775l10 56h14q15 0 24 5t9 18q0 8 -7.5 11
t-21.5 3h-59l7 43q12 3 26.5 4.5t29 2.5t25.5 1q16 0 33.5 -2.5t32.5 -8t24.5 -15.5t9.5 -26q0 -21 -12.5 -35t-32.5 -21.5t-43 -9.5l-5 -26h-64z" />
    <glyph glyph-name="uni1EB4" unicode="&#x1eb4;" horiz-adv-x="709" 
d="M-40 0l386 686h164l147 -686h-133l-30 146h-317l-80 -146h-137zM239 256h231l-36 182q-3 18 -6.5 36.5l-7 37t-5.5 34t-4 27.5h-5q-10 -20 -23 -46.5t-25.5 -51t-21.5 -40.5zM447 737q-50 0 -80 15.5t-43 40.5t-13 53q0 5 0.5 11t1.5 11h81q0 -3 0.5 -6.5t1.5 -6.5
q3 -9 10.5 -17.5t20.5 -14t34 -5.5q26 0 44 8t28 20t12 22h82q-5 -31 -26 -61t-58.5 -50t-95.5 -20zM309 905q6 31 20 57.5t37.5 43t56.5 16.5q26 0 47 -8.5t41.5 -17.5t43.5 -9q13 0 23 7.5t16 27.5h68q-5 -31 -19.5 -58t-38 -43t-57.5 -16q-25 0 -46 9t-41 18t-44 9
q-13 0 -23 -8t-16 -28h-68z" />
    <glyph glyph-name="uni1EB5" unicode="&#x1eb5;" horiz-adv-x="587" 
d="M192 -12q-51 0 -90 22t-60.5 65t-21.5 107q0 20 2.5 41.5t6.5 46.5q16 93 50.5 152.5t84.5 87.5t112 28q34 0 62.5 -8t50.5 -24t35 -41h7l31 61h102l-24 -130q-7 -41 -14.5 -80.5t-13.5 -74t-11 -61.5t-7.5 -44t-2.5 -21q0 -14 8 -20.5t21 -6.5h33l-14 -84
q-10 -5 -29 -10.5t-45 -5.5t-45.5 10t-30.5 30q-4 9 -7 20.5t-3 24.5h-7q-33 -43 -78.5 -64t-101.5 -21zM246 93q27 0 51 11t43 32t33 51.5t21 69.5q3 17 4.5 29.5t2 22.5t0.5 18q0 35 -10 58.5t-31 35.5t-54 12q-44 0 -73.5 -17.5t-47.5 -54t-29 -92.5q-3 -18 -5 -32
t-3 -25t-1 -20q0 -50 23.5 -74.5t75.5 -24.5zM336 592q-52 0 -83 15.5t-44.5 40.5t-13.5 52q0 6 0.5 11.5t1.5 11.5h81q0 -16 9 -27.5t24.5 -17t33.5 -5.5q26 0 43.5 8t27.5 20t13 22h82q-5 -31 -25.5 -61t-57 -50t-92.5 -20zM196 790q6 31 20 57.5t37.5 43t56.5 16.5
q26 0 47.5 -8.5t41.5 -17.5t43 -9q14 0 23.5 7.5t15.5 27.5h69q-6 -31 -20.5 -58t-38 -43t-57.5 -16q-25 0 -46 9t-41 18t-43 9q-13 0 -23.5 -8t-16.5 -28h-68z" />
    <glyph glyph-name="uni1EB6" unicode="&#x1eb6;" horiz-adv-x="709" 
d="M-40 0l386 686h164l147 -686h-133l-30 146h-317l-80 -146h-137zM239 256h231l-36 182q-3 18 -6.5 36.5l-7 37t-5.5 34t-4 27.5h-5q-10 -20 -23 -46.5t-25.5 -51t-21.5 -40.5zM223 -196l19 116h121l-20 -116h-120zM447 737q-50 0 -80 15.5t-43 40.5t-13 53q0 5 0.5 11
t1.5 11h81q0 -3 0.5 -6.5t1.5 -6.5q3 -9 10.5 -17.5t20.5 -14t34 -5.5q26 0 44 8t28 20t12 22h82q-5 -31 -26 -61t-58.5 -50t-95.5 -20z" />
    <glyph glyph-name="uni1EB7" unicode="&#x1eb7;" horiz-adv-x="587" 
d="M192 -12q-51 0 -90 22t-60.5 65t-21.5 107q0 20 2.5 41.5t6.5 46.5q16 93 50.5 152.5t84.5 87.5t112 28q34 0 62.5 -8t50.5 -24t35 -41h7l31 61h102l-24 -130q-7 -41 -14.5 -80.5t-13.5 -74t-11 -61.5t-7.5 -44t-2.5 -21q0 -14 8 -20.5t21 -6.5h33l-14 -84
q-10 -5 -29 -10.5t-45 -5.5t-45.5 10t-30.5 30q-4 9 -7 20.5t-3 24.5h-7q-33 -43 -78.5 -64t-101.5 -21zM246 93q27 0 51 11t43 32t33 51.5t21 69.5q3 17 4.5 29.5t2 22.5t0.5 18q0 35 -10 58.5t-31 35.5t-54 12q-44 0 -73.5 -17.5t-47.5 -54t-29 -92.5q-3 -18 -5 -32
t-3 -25t-1 -20q0 -50 23.5 -74.5t75.5 -24.5zM168 -196l19 116h121l-20 -116h-120zM336 592q-52 0 -83 15.5t-44.5 40.5t-13.5 52q0 6 0.5 11.5t1.5 11.5h81q0 -16 9 -27.5t24.5 -17t33.5 -5.5q26 0 43.5 8t27.5 20t13 22h82q-5 -31 -25.5 -61t-57 -50t-92.5 -20z" />
    <glyph glyph-name="uni1EB8" unicode="&#x1eb8;" horiz-adv-x="672" 
d="M30 0l121 686h536l-20 -111h-405l-30 -169h362l-19 -111h-363l-32 -184h412l-20 -111h-542zM207 -196l19 116h121l-20 -116h-120z" />
    <glyph glyph-name="uni1EB9" unicode="&#x1eb9;" horiz-adv-x="561" 
d="M268 -12q-78 0 -130.5 21.5t-78.5 66.5t-26 113q0 28 3 56t8 54q14 67 46.5 121t87.5 86t139 32q71 0 118.5 -21t71.5 -63.5t24 -107.5q0 -23 -3.5 -53.5t-11.5 -59.5h-356q-2 -12 -3 -22.5t-1 -20.5q0 -35 11.5 -58.5t35.5 -34.5t62 -11q24 0 44.5 5.5t36.5 17.5
t27 30.5t15 44.5h120q-8 -50 -29 -87t-53 -61t-72 -36t-86 -12zM176 319h229q2 10 2.5 19t0.5 16q0 31 -10.5 50t-30.5 28t-47 9q-38 0 -66 -14t-47 -41t-31 -67zM149 -196l19 116h121l-20 -116h-120z" />
    <glyph glyph-name="uni1EBA" unicode="&#x1eba;" horiz-adv-x="672" 
d="M30 0l121 686h536l-20 -111h-405l-30 -169h362l-19 -111h-363l-32 -184h412l-20 -111h-542zM392 736l11 56h13q17 0 26 5t9 18q0 8 -8 11t-23 3h-58l7 43q12 3 26.5 4.5t29 2.5t26.5 1q16 0 33 -2.5t32 -8t24.5 -15.5t9.5 -26q0 -21 -12.5 -35t-32.5 -21.5t-43 -9.5
l-5 -26h-65z" />
    <glyph glyph-name="uni1EBB" unicode="&#x1ebb;" horiz-adv-x="561" 
d="M268 -12q-78 0 -130.5 21.5t-78.5 66.5t-26 113q0 28 3 56t8 54q14 67 46.5 121t87.5 86t139 32q71 0 118.5 -21t71.5 -63.5t24 -107.5q0 -23 -3.5 -53.5t-11.5 -59.5h-356q-2 -12 -3 -22.5t-1 -20.5q0 -35 11.5 -58.5t35.5 -34.5t62 -11q24 0 44.5 5.5t36.5 17.5
t27 30.5t15 44.5h120q-8 -50 -29 -87t-53 -61t-72 -36t-86 -12zM176 319h229q2 10 2.5 19t0.5 16q0 31 -10.5 50t-30.5 28t-47 9q-38 0 -66 -14t-47 -41t-31 -67zM282 591l10 56h14q15 0 24 5t9 18q0 8 -7.5 11t-21.5 3h-59l7 43q12 3 26.5 4.5t29 2.5t25.5 1
q16 0 33.5 -2.5t32.5 -8t24.5 -15.5t9.5 -26q0 -21 -12.5 -35t-32.5 -21.5t-43 -9.5l-5 -26h-64z" />
    <glyph glyph-name="uni1EBC" unicode="&#x1ebc;" horiz-adv-x="672" 
d="M30 0l121 686h536l-20 -111h-405l-30 -169h362l-19 -111h-363l-32 -184h412l-20 -111h-542zM266 751q6 31 20 57.5t37.5 43t56.5 16.5q26 0 47 -8.5t41.5 -17.5t43.5 -9q13 0 23 7.5t16 27.5h68q-5 -31 -19.5 -58t-38 -43t-57.5 -16q-25 0 -46 9t-41 18t-44 9
q-13 0 -23 -8t-16 -28h-68z" />
    <glyph glyph-name="uni1EBD" unicode="&#x1ebd;" horiz-adv-x="561" 
d="M268 -12q-78 0 -130.5 21.5t-78.5 66.5t-26 113q0 28 3 56t8 54q14 67 46.5 121t87.5 86t139 32q71 0 118.5 -21t71.5 -63.5t24 -107.5q0 -23 -3.5 -53.5t-11.5 -59.5h-356q-2 -12 -3 -22.5t-1 -20.5q0 -35 11.5 -58.5t35.5 -34.5t62 -11q24 0 44.5 5.5t36.5 17.5
t27 30.5t15 44.5h120q-8 -50 -29 -87t-53 -61t-72 -36t-86 -12zM176 319h229q2 10 2.5 19t0.5 16q0 31 -10.5 50t-30.5 28t-47 9q-38 0 -66 -14t-47 -41t-31 -67zM161 606q6 31 20 57.5t37.5 43t56.5 16.5q26 0 47.5 -8.5t41.5 -17.5t43 -9q14 0 23.5 7.5t15.5 27.5h69
q-6 -31 -20.5 -58t-38 -43t-57.5 -16q-25 0 -46 9t-41 18t-43 9q-13 0 -23.5 -8t-16.5 -28h-68z" />
    <glyph glyph-name="uni1EBE" unicode="&#x1ebe;" horiz-adv-x="672" 
d="M30 0l121 686h536l-20 -111h-405l-30 -169h362l-19 -111h-363l-32 -184h412l-20 -111h-542zM260 736l130 132h122l81 -132h-106l-65 105l56 -1l-105 -104h-113zM396 900l105 132h132v-3l-131 -129h-106z" />
    <glyph glyph-name="uni1EBF" unicode="&#x1ebf;" horiz-adv-x="561" 
d="M268 -12q-78 0 -130.5 21.5t-78.5 66.5t-26 113q0 28 3 56t8 54q14 67 46.5 121t87.5 86t139 32q71 0 118.5 -21t71.5 -63.5t24 -107.5q0 -23 -3.5 -53.5t-11.5 -59.5h-356q-2 -12 -3 -22.5t-1 -20.5q0 -35 11.5 -58.5t35.5 -34.5t62 -11q24 0 44.5 5.5t36.5 17.5
t27 30.5t15 44.5h120q-8 -50 -29 -87t-53 -61t-72 -36t-86 -12zM176 319h229q2 10 2.5 19t0.5 16q0 31 -10.5 50t-30.5 28t-47 9q-38 0 -66 -14t-47 -41t-31 -67zM163 591l130 132h114l81 -132h-103l-65 104h56l-104 -104h-109zM301 775l103 132h129v-3l-129 -129h-103z" />
    <glyph glyph-name="uni1EC0" unicode="&#x1ec0;" horiz-adv-x="672" 
d="M30 0l121 686h536l-20 -111h-405l-30 -169h362l-19 -111h-363l-32 -184h412l-20 -111h-542zM260 736l130 132h122l81 -132h-106l-65 105l56 -1l-105 -104h-113zM409 900l-86 129l1 3h127l59 -132h-101z" />
    <glyph glyph-name="uni1EC1" unicode="&#x1ec1;" horiz-adv-x="561" 
d="M268 -12q-78 0 -130.5 21.5t-78.5 66.5t-26 113q0 28 3 56t8 54q14 67 46.5 121t87.5 86t139 32q71 0 118.5 -21t71.5 -63.5t24 -107.5q0 -23 -3.5 -53.5t-11.5 -59.5h-356q-2 -12 -3 -22.5t-1 -20.5q0 -35 11.5 -58.5t35.5 -34.5t62 -11q24 0 44.5 5.5t36.5 17.5
t27 30.5t15 44.5h120q-8 -50 -29 -87t-53 -61t-72 -36t-86 -12zM176 319h229q2 10 2.5 19t0.5 16q0 31 -10.5 50t-30.5 28t-47 9q-38 0 -66 -14t-47 -41t-31 -67zM163 591l130 132h114l81 -132h-103l-65 104h56l-104 -104h-109zM315 775l-80 129l1 3h121l56 -132h-98z" />
    <glyph glyph-name="uni1EC2" unicode="&#x1ec2;" horiz-adv-x="672" 
d="M30 0l121 686h536l-20 -111h-405l-30 -169h362l-19 -111h-363l-32 -184h412l-20 -111h-542zM260 736l130 132h122l81 -132h-106l-65 105l56 -1l-105 -104h-113zM416 900l11 56h13q17 0 26 5t9 18q0 8 -8 11t-23 3h-58l7 43q12 3 26.5 4.5t29 2.5t26.5 1q16 0 33 -2.5
t32 -8t24.5 -15.5t9.5 -26q0 -21 -12.5 -35t-32.5 -21.5t-43 -9.5l-5 -26h-65z" />
    <glyph glyph-name="uni1EC3" unicode="&#x1ec3;" horiz-adv-x="561" 
d="M268 -12q-78 0 -130.5 21.5t-78.5 66.5t-26 113q0 28 3 56t8 54q14 67 46.5 121t87.5 86t139 32q71 0 118.5 -21t71.5 -63.5t24 -107.5q0 -23 -3.5 -53.5t-11.5 -59.5h-356q-2 -12 -3 -22.5t-1 -20.5q0 -35 11.5 -58.5t35.5 -34.5t62 -11q24 0 44.5 5.5t36.5 17.5
t27 30.5t15 44.5h120q-8 -50 -29 -87t-53 -61t-72 -36t-86 -12zM176 319h229q2 10 2.5 19t0.5 16q0 31 -10.5 50t-30.5 28t-47 9q-38 0 -66 -14t-47 -41t-31 -67zM163 591l130 132h114l81 -132h-103l-65 104h56l-104 -104h-109zM314 775l10 56h14q15 0 24 5t9 18
q0 8 -7.5 11t-21.5 3h-59l7 43q12 3 26.5 4.5t29 2.5t25.5 1q16 0 33.5 -2.5t32.5 -8t24.5 -15.5t9.5 -26q0 -21 -12.5 -35t-32.5 -21.5t-43 -9.5l-5 -26h-64z" />
    <glyph glyph-name="uni1EC4" unicode="&#x1ec4;" horiz-adv-x="672" 
d="M30 0l121 686h536l-20 -111h-405l-30 -169h362l-19 -111h-363l-32 -184h412l-20 -111h-542zM260 736l130 132h122l81 -132h-106l-65 105l56 -1l-105 -104h-113zM290 915q6 31 20 57.5t37.5 43t56.5 16.5q26 0 47 -8.5t41.5 -17.5t43.5 -9q13 0 23 7.5t16 27.5h68
q-5 -31 -19.5 -58t-38 -43t-57.5 -16q-25 0 -46 9t-41 18t-44 9q-13 0 -23 -8t-16 -28h-68z" />
    <glyph glyph-name="uni1EC5" unicode="&#x1ec5;" horiz-adv-x="561" 
d="M268 -12q-78 0 -130.5 21.5t-78.5 66.5t-26 113q0 28 3 56t8 54q14 67 46.5 121t87.5 86t139 32q71 0 118.5 -21t71.5 -63.5t24 -107.5q0 -23 -3.5 -53.5t-11.5 -59.5h-356q-2 -12 -3 -22.5t-1 -20.5q0 -35 11.5 -58.5t35.5 -34.5t62 -11q24 0 44.5 5.5t36.5 17.5
t27 30.5t15 44.5h120q-8 -50 -29 -87t-53 -61t-72 -36t-86 -12zM176 319h229q2 10 2.5 19t0.5 16q0 31 -10.5 50t-30.5 28t-47 9q-38 0 -66 -14t-47 -41t-31 -67zM163 591l130 132h114l81 -132h-103l-65 104h56l-104 -104h-109zM193 790q6 31 20 57.5t37.5 43t56.5 16.5
q26 0 47.5 -8.5t41.5 -17.5t43 -9q14 0 23.5 7.5t15.5 27.5h69q-6 -31 -20.5 -58t-38 -43t-57.5 -16q-25 0 -46 9t-41 18t-43 9q-13 0 -23.5 -8t-16.5 -28h-68z" />
    <glyph glyph-name="uni1EC6" unicode="&#x1ec6;" horiz-adv-x="672" 
d="M30 0l121 686h536l-20 -111h-405l-30 -169h362l-19 -111h-363l-32 -184h412l-20 -111h-542zM207 -196l19 116h121l-20 -116h-120zM260 736l130 132h122l81 -132h-106l-65 105l56 -1l-105 -104h-113z" />
    <glyph glyph-name="uni1EC7" unicode="&#x1ec7;" horiz-adv-x="561" 
d="M268 -12q-78 0 -130.5 21.5t-78.5 66.5t-26 113q0 28 3 56t8 54q14 67 46.5 121t87.5 86t139 32q71 0 118.5 -21t71.5 -63.5t24 -107.5q0 -23 -3.5 -53.5t-11.5 -59.5h-356q-2 -12 -3 -22.5t-1 -20.5q0 -35 11.5 -58.5t35.5 -34.5t62 -11q24 0 44.5 5.5t36.5 17.5
t27 30.5t15 44.5h120q-8 -50 -29 -87t-53 -61t-72 -36t-86 -12zM176 319h229q2 10 2.5 19t0.5 16q0 31 -10.5 50t-30.5 28t-47 9q-38 0 -66 -14t-47 -41t-31 -67zM149 -196l19 116h121l-20 -116h-120zM163 591l130 132h114l81 -132h-103l-65 104h56l-104 -104h-109z" />
    <glyph glyph-name="uni1EC8" unicode="&#x1ec8;" horiz-adv-x="282" 
d="M30 0l121 686h130l-121 -686h-130zM188 736l11 56h13q17 0 26 5t9 18q0 8 -8 11t-23 3h-58l7 43q12 3 26.5 4.5t29 2.5t26.5 1q16 0 33 -2.5t32 -8t24.5 -15.5t9.5 -26q0 -21 -12.5 -35t-32.5 -21.5t-43 -9.5l-5 -26h-65z" />
    <glyph glyph-name="uni1EC9" unicode="&#x1ec9;" horiz-adv-x="252" 
d="M19 0l93 526h122l-93 -526h-122zM136 591l10 56h14q15 0 24 5t9 18q0 8 -7.5 11t-21.5 3h-59l7 43q12 3 26.5 4.5t29 2.5t25.5 1q16 0 33.5 -2.5t32.5 -8t24.5 -15.5t9.5 -26q0 -21 -12.5 -35t-32.5 -21.5t-43 -9.5l-5 -26h-64z" />
    <glyph glyph-name="uni1ECA" unicode="&#x1eca;" horiz-adv-x="282" 
d="M30 0l121 686h130l-121 -686h-130zM3 -196l19 116h121l-20 -116h-120z" />
    <glyph glyph-name="uni1ECB" unicode="&#x1ecb;" horiz-adv-x="252" 
d="M124 607l21 116h122l-20 -116h-123zM19 0l93 526h122l-93 -526h-122zM-13 -196l19 116h121l-20 -116h-120z" />
    <glyph glyph-name="uni1ECC" unicode="&#x1ecc;" horiz-adv-x="782" 
d="M359 -12q-97 0 -166 30t-105.5 89.5t-36.5 148.5q0 24 1.5 47t5.5 45q18 109 69 187.5t133 120.5t192 42q97 0 166 -30t106 -89.5t37 -148.5q0 -22 -1.5 -44t-5.5 -44q-17 -110 -68.5 -189.5t-134 -122t-192.5 -42.5zM357 99q55 0 98.5 15.5t76 45.5t53.5 74t31 101
q3 16 5 29t3 23t1.5 19t0.5 17q0 52 -19.5 89t-58.5 56.5t-96 19.5q-54 0 -97.5 -15.5t-76 -45.5t-53.5 -74t-31 -101q-3 -16 -4.5 -29t-2.5 -23.5t-1.5 -19t-0.5 -16.5q0 -52 19.5 -89t58 -56.5t94.5 -19.5zM253 -196l19 116h121l-20 -116h-120z" />
    <glyph glyph-name="uni1ECD" unicode="&#x1ecd;" horiz-adv-x="598" 
d="M260 -12q-76 0 -127 21.5t-76.5 66t-25.5 112.5q0 19 2 40t6 43q16 92 54.5 151t99.5 87.5t144 28.5q77 0 128 -21.5t76.5 -66t25.5 -113.5q0 -19 -2 -39t-6 -43q-16 -92 -53.5 -151t-98 -87.5t-147.5 -28.5zM268 88q48 0 80.5 18.5t52.5 56t30 93.5q4 18 5.5 31t2 23
t0.5 19q0 36 -11.5 60.5t-35.5 36.5t-63 12q-48 0 -80 -19t-52 -56t-31 -93q-3 -18 -5 -31.5t-3 -23.5t-1 -19q0 -36 11.5 -60t36.5 -36t63 -12zM160 -196l19 116h121l-20 -116h-120z" />
    <glyph glyph-name="uni1ECE" unicode="&#x1ece;" horiz-adv-x="782" 
d="M359 -12q-97 0 -166 30t-105.5 89.5t-36.5 148.5q0 24 1.5 47t5.5 45q18 109 69 187.5t133 120.5t192 42q97 0 166 -30t106 -89.5t37 -148.5q0 -22 -1.5 -44t-5.5 -44q-17 -110 -68.5 -189.5t-134 -122t-192.5 -42.5zM357 99q55 0 98.5 15.5t76 45.5t53.5 74t31 101
q3 16 5 29t3 23t1.5 19t0.5 17q0 52 -19.5 89t-58.5 56.5t-96 19.5q-54 0 -97.5 -15.5t-76 -45.5t-53.5 -74t-31 -101q-3 -16 -4.5 -29t-2.5 -23.5t-1.5 -19t-0.5 -16.5q0 -52 19.5 -89t58 -56.5t94.5 -19.5zM438 736l11 56h13q17 0 26 5t9 18q0 8 -8 11t-23 3h-58l7 43
q12 3 26.5 4.5t29 2.5t26.5 1q16 0 33 -2.5t32 -8t24.5 -15.5t9.5 -26q0 -21 -12.5 -35t-32.5 -21.5t-43 -9.5l-5 -26h-65z" />
    <glyph glyph-name="uni1ECF" unicode="&#x1ecf;" horiz-adv-x="598" 
d="M260 -12q-76 0 -127 21.5t-76.5 66t-25.5 112.5q0 19 2 40t6 43q16 92 54.5 151t99.5 87.5t144 28.5q77 0 128 -21.5t76.5 -66t25.5 -113.5q0 -19 -2 -39t-6 -43q-16 -92 -53.5 -151t-98 -87.5t-147.5 -28.5zM268 88q48 0 80.5 18.5t52.5 56t30 93.5q4 18 5.5 31t2 23
t0.5 19q0 36 -11.5 60.5t-35.5 36.5t-63 12q-48 0 -80 -19t-52 -56t-31 -93q-3 -18 -5 -31.5t-3 -23.5t-1 -19q0 -36 11.5 -60t36.5 -36t63 -12zM309 591l10 56h14q15 0 24 5t9 18q0 8 -7.5 11t-21.5 3h-59l7 43q12 3 26.5 4.5t29 2.5t25.5 1q16 0 33.5 -2.5t32.5 -8
t24.5 -15.5t9.5 -26q0 -21 -12.5 -35t-32.5 -21.5t-43 -9.5l-5 -26h-64z" />
    <glyph glyph-name="uni1ED0" unicode="&#x1ed0;" horiz-adv-x="782" 
d="M359 -12q-97 0 -166 30t-105.5 89.5t-36.5 148.5q0 24 1.5 47t5.5 45q18 109 69 187.5t133 120.5t192 42q97 0 166 -30t106 -89.5t37 -148.5q0 -22 -1.5 -44t-5.5 -44q-17 -110 -68.5 -189.5t-134 -122t-192.5 -42.5zM357 99q55 0 98.5 15.5t76 45.5t53.5 74t31 101
q3 16 5 29t3 23t1.5 19t0.5 17q0 52 -19.5 89t-58.5 56.5t-96 19.5q-54 0 -97.5 -15.5t-76 -45.5t-53.5 -74t-31 -101q-3 -16 -4.5 -29t-2.5 -23.5t-1.5 -19t-0.5 -16.5q0 -52 19.5 -89t58 -56.5t94.5 -19.5zM306 736l130 132h122l81 -132h-106l-65 105l56 -1l-105 -104
h-113zM442 900l105 132h132v-3l-131 -129h-106z" />
    <glyph glyph-name="uni1ED1" unicode="&#x1ed1;" horiz-adv-x="598" 
d="M260 -12q-76 0 -127 21.5t-76.5 66t-25.5 112.5q0 19 2 40t6 43q16 92 54.5 151t99.5 87.5t144 28.5q77 0 128 -21.5t76.5 -66t25.5 -113.5q0 -19 -2 -39t-6 -43q-16 -92 -53.5 -151t-98 -87.5t-147.5 -28.5zM268 88q48 0 80.5 18.5t52.5 56t30 93.5q4 18 5.5 31t2 23
t0.5 19q0 36 -11.5 60.5t-35.5 36.5t-63 12q-48 0 -80 -19t-52 -56t-31 -93q-3 -18 -5 -31.5t-3 -23.5t-1 -19q0 -36 11.5 -60t36.5 -36t63 -12zM190 591l130 132h114l81 -132h-103l-65 104h56l-104 -104h-109zM328 775l103 132h129v-3l-129 -129h-103z" />
    </font>
</defs>
</svg>
